<?xml version="1.0" encoding="utf-8"?>
<!-- Generator: Adobe Illustrator 15.1.0, SVG Export Plug-In . SVG Version: 6.00 Build 0)  -->
<!DOCTYPE svg PUBLIC "-//W3C//DTD SVG 1.1//EN" "http://www.w3.org/Graphics/SVG/1.1/DTD/svg11.dtd">
<svg version="1.1" id="Layer_1" xmlns="http://www.w3.org/2000/svg" xmlns:xlink="http://www.w3.org/1999/xlink" x="0px" y="0px"
	 width="972.098px" height="992.754px" viewBox="0 0 972.098 992.754" enable-background="new 0 0 972.098 992.754"
	 xml:space="preserve">
<g>
	<path d="M507.263,277.377c0.495,0.088,0.816-0.192,1.029-0.71c0.076,0.387,0.265,0.737,0.578,0.995
		c1.042,0.852,4.924-0.663,10.229-7.67c5.302-7.006,5.491-17.326,4.166-21.681c-1.326-4.355-3.693-6.249-4.641-5.964
		c-0.947,0.284-0.947,1.798-0.852,3.597c0.094,1.799-1.137,5.586-4.546,9.941c-3.408,4.356-6.438,8.142-7.197,13.35
		C505.272,274.442,505.651,277.093,507.263,277.377 M583.394,390.422c1.306,4.673,3.314,7.574,5.208,8.994
		c1.691,1.268,3.252,1.472,4.376,0.516c0.391,0.697,0.916,1.042,1.685,0.999c1.704-0.095,1.798-1.799,1.515-4.639
		c-0.284-2.841-0.505-7.073,1.516-15.148c1.704-6.817,5.018-13.54,7.48-21.303c2.461-7.763,0.188-19.03-5.113-28.308
		c-5.304-9.279-12.974-17.705-13.447-13.35c-3.408-2.271-4.545-2.556-1.988,1.704c2.558,4.261,7.48,10.131,7.575,21.113
		c0.096,10.983-4.071,17.61-6.912,26.51S581.594,383.984,583.394,390.422 M142.699,691.4c0.378-1.041-0.189-2.841-1.989-5.681
		c-1.799-2.84-2.272-4.828-3.22-10.225c-0.946-5.396-3.313-10.415-6.723-13.539c-3.409-3.124-8.71-5.87-11.741-6.817
		c-2.646-0.827-2.463,0.379-1.515,1.799c0.947,1.422,1.61,3.693,1.799,8.616c0.19,4.923,0.19,12.876,4.166,19.314
		c3.978,6.438,9.943,7.669,13.163,7.764c3.219,0.094,4.923,0.662,6.155,1.041C144.024,694.052,144.687,692.537,142.699,691.4
		 M869.882,938.649c6.534-18.035,7.103-28.687,2.983-36.497c-4.041-5.753-9.969-8.432-21.035-7.433
		c-5.768,2.543-10.697,7.985-13.251,11.633c-3.3,4.715-11.127,16.22-21.594,14.428c-9.634-1.649-11.036-9.608-8.036-15.719
		c-6.682,1.577-12.938,2.457-20.36,2.108c-16.097-0.757-32.384-7.196-35.981-9.467c-0.299-0.19-0.569-0.335-0.819-0.452
		c1.829-2.363,2.705-10.895,0.346-20.804c-2.841-11.93-11.363-28.829-24.856-42.463c-13.494-13.634-21.022-32.806-23.152-40.049
		c-2.131-7.242-1.278-10.083-4.546-10.509c-3.266-0.426-3.124,1.278-3.408,3.55c-0.283,2.273-1.563,6.107-2.414,13.351
		c-0.853,7.243-1.137,18.888,5.396,33.374c6.533,14.484,15.767,24.994,19.033,32.095s3.267,11.788,1.278,11.646
		c-1.987-0.143-7.102-6.959-12.072-13.208c-4.972-6.249-19.459-22.297-28.408-28.118c-8.949-5.823-8.664-3.834-6.393,0
		c2.273,3.834,4.688,8.805,5.683,11.787c-11.079-6.391-22.727-9.941-32.384-21.444c-9.66-11.503-17.614-31.103-28.267-59.079
		s-28.408-82.653-35.793-101.257c-5.059-12.741-10.582-26.345-14.564-35.391h-0.001c-12.28-23.12-31.029-58.198-48.926-79.501
		c-17.896-21.302,2.983-2.556,11.363,8.521c3.678,4.862,10.011,14.703,16.463,24.961c-0.46-5.816,1.352-13.509,3.422-18.57
		c-0.142,10.367-0.656,22.975,4.642,31.469c5.217,8.375,9.738,15.642,11.978,18.946c5.959,8.796,13.707,21.694,29.538,31.21
		c1.822,1.039,3.71,2.087,5.688,3.158c17.042,9.231,44.882,17.042,78.972,2.273c34.088-14.771,55.962-41.327,72.155-70.016
		c16.191-28.687,25.991-60.071,49.429-77.966c23.436-17.894,62.716-36.482,88.204-66.463c5.245-6.171,9.329-11.602,12.495-16.429
		c-18.577,6.18-19.73-8.776-14.037-18.481c5.501-9.379,15.911-15.724,23.657-16.426c-1.331-7.679-8.307-9.815-12.24-9.684
		c0.357-0.826,0.698-1.679,1.015-2.556c2.462-6.817,1.896-17.326-2.462-25.658c-4.356-8.331-5.491-13.823-3.504-17.988
		c1.989-4.166-0.188-5.681-1.42-3.598c-1.23,2.083-2.083,2.461-3.978,4.071c-1.894,1.609-7.574,7.48-5.681,16.284
		c1.895,8.805,3.599,13.634-0.569,17.705c-4.166,4.071-9.09,8.332-6.154,17.231c0.194,0.589,0.453,1.031,0.736,1.365
		c-1.395,0.508-3.32,1.427-5.187,2.706c-2.471,1.696-6.474,4.393-11.765,8.758c-14.323,12.119-31.414,27.646-45.902,34.179
		c-14.488,6.533-26.419,8.663-40.054,11.787c-13.637,3.124-24.573,7.669-29.119,10.225c-4.545,2.556-6.96,3.408-2.698,0
		c4.261-3.408,11.505-7.669,23.639-11.115c-1.154-1.149-3.365-2.616-7.162-4.412c-10.606-5.018-34.563-18.367-44.031-23.858
		c-4.502-2.611-10.284-6.142-15.125-10.124h-0.001c-7.459-5.309-22.656-18.659-18.396-16.244c4.262,2.414,8.433,3.729,8.827,1.081
		c0.007,0.002,0.014,0.005,0.021,0.007c0.432-8.513,7.859-11.299,16.719-17.325c2.13-1.45,4.066-3.063,5.771-4.798
		c0.034,0.765,0.266,1.698,0.762,2.715c1.895,3.881,8.049,10.319,26.987,9.467c11.336-0.509,18.191-3.735,22.5-8.618
		c0.572,1.786,2.256,4.134,5.528,7.293c5.492,5.302,20.454,17.42,26.798,25.374c6.345,7.953,7.766,13.349,5.113,21.112
		c-1.326,3.882-2.126,7.117-2.3,9.422c5.502-1.681,10.947-3.559,15.793-5.682c0.522-0.229,1.05-0.473,1.58-0.727
		c7.908-10.254,13.585-25.568,1.159-44.15c-6.264-9.367-9.621-16.175-12.737-21.727c-4.361,4.6-14.477,5.624-22.206-0.128
		c-7.101-5.284-8.852-14.327-7.658-20.229c-0.948,0.103-1.831,0.261-2.605,0.475c-0.461,0.126-0.84,0.295-1.153,0.487
		c-0.144-7.516-0.98-14.989-1.404-20.18c-0.758-9.279-3.03-25.184-3.787-28.593c-0.759-3.408-3.03-5.586-5.114-5.586
		c-2.082,0-49.713,5.681-53.5,6.249c-3.787,0.568-5.683,1.799-4.924,7.29c0.758,5.491,3.124,24.237,3.883,30.297
		c0.117,0.945,0.273,1.62,0.457,2.094c-3.275-0.904-6.797-1.143-10.211-0.579c-6.07,1.002-12.059,3.638-16.701,6.257
		c-0.508,3.508,0.261,7.988,5.498,8.157c5.847,0.189,15.182-6.506,17.918-9.147c2.733-2.64,3.96-0.848,2.073,2.263
		c-1.886,3.112-8.675,13.013-20.273,12.919c-9.222-0.075-9.561-7.418-8.838-11.991c-0.921,0.605-1.749,1.183-2.445,1.705
		c0.046-0.104,0.092-0.204,0.137-0.317c1.231-3.03,2.558-8.994-1.516-16.095c-4.071-7.101-10.699-9.468-12.782-10.036
		c-2.084-0.568-2.937-0.474-2.747,2.272c0.19,2.746,1.421,4.64,2.937,7.196c1.515,2.556,2.651,7.006,0.664,14.486
		c-1.99,7.479-12.785,18.461-16.762,29.255c-3.978,10.793-1.326,26.036,4.545,37.397c5.87,11.361,11.837,25.09,13.351,28.593
		c1.516,3.503,1.232,5.302,0.286,3.598c-0.947-1.705-3.884-5.113-8.05-7.385c-4.167-2.273-7.386-1.988-1.325,5.68
		c6.06,7.669,13.162,25.752,13.352,37.209c0.189,11.455-2.273,17.609-6.156,17.704c-3.882,0.095-5.587-4.545-5.775-9.846
		c-0.189-5.302,0-21.965-8.807-32.38s-19.506-17.894-22.726-19.788c-3.22-1.893-5.114-1.609-3.693,1.421
		c1.42,3.029,3.313,6.627,7.291,13.444c3.977,6.817,5.683,17.136,3.977,25.847c-1.704,8.71-7.669,23.574-3.881,36.167
		c3.559,11.832,12.829,16.335,18.779,18.145c-0.042,0.043-0.082,0.081-0.126,0.128c-1.799,1.989-5.871,6.533-15.434,9.847
		c-9.564,3.313-17.045,1.988-21.212-6.344c-4.167-8.331-5.302-21.208-5.397-28.781c-0.094-7.574-0.474-10.793-3.504-17.61
		c-3.029-6.817-4.733-11.456-7.196-20.071c-2.462-8.616-1.42-17.989-1.136-20.829c0.284-2.841-0.475-3.882-1.042-1.704
		c-0.566,2.177-1.608,3.124-3.787,5.586c-2.178,2.461-4.83,7.574-4.924,14.959c-9.942-10.226-17.045-18.652-17.519-30.865
		c-0.474-12.214,4.64-25.279,6.344-27.646c1.705-2.367,1.232-3.503-0.757-2.651s-9.185,4.261-17.708,14.864
		c-8.521,10.604-9.848,22.534-8.995,31.054c-16.761-6.532-44.031-9.088-62.401-8.71c22.631-7.479,32.952-16.473,35.793-26.604
		c2.842-10.131-0.474-19.693-3.882-26.699c-3.409-7.006-5.967-8.9-5.682-11.172s-1.989-3.787-6.061-11.456
		c-4.071-7.669-7.291-18.273-5.491-31.433c1.798-13.16,7.006-26.793,8.427-30.297c1.42-3.502,0.946-6.343-2.367-5.586
		c-3.314,0.758-13.807,6.605-19.128,18.747c-3.928,8.966-4.673,19.789-2.366,27.227c-2.242-2.472-5.066-5.748-7.576-8.86
		c-7.102-8.805-13.541-21.113-13.162-35.599c0.378-14.486,2.177-30.391-3.22-49.327c-5.397-18.935-17.991-40.238-41.002-58.983
		c-23.01-18.747-24.335-26.51-23.293-37.587c1.041-11.078,8.143-18.841,11.173-22.628c3.03-3.787,4.64-6.912,3.409-8.332
		c-0.712-0.821-4.375,0.553-8.724,3.498c1.294-2.698,3.01-8.337,0.959-17.605c-2.367-10.698-11.551-20.45-15.813-24.142
		c-4.262-3.693-8.712-3.693-5.871,0.852c2.841,4.544,7.576,13.539,6.439,21.018c-1.136,7.48-6.156,12.308-17.801,26.321
		c-11.648,14.011-12.406,29.444-9.281,41.563c-12.025-16.947-14.866-45.161-23.483-64.57c-8.617-19.409-21.116-30.202-24.903-33.327
		c-3.789-3.124-6.061-2.367-3.22,0.663c2.84,3.03,8.333,10.131,10.889,16.663c-7.669-10.414-29.355-17.515-45.453-22.628
		c-16.096-5.112-26.229-8.331-36.835-19.787c-10.604-11.456-15.718-24.143-16.571-28.782c-0.851-4.639-1.987-5.775-2.745-0.757
		c-0.757,5.017-2.179,24.426,6.534,38.439c8.711,14.012,20.169,21.965,33.237,29.444c13.067,7.479,25.85,16.947,32.762,32.001
		c6.913,15.054,3.694,30.013-3.03,35.883c-6.723,5.87-16.003,3.503-21.306-6.344c-5.301-9.846-3.313-24.237-17.612-43.456
		c-14.299-19.22-29.638-23.954-34.752-24.901c-5.113-0.946-10.321-0.473-6.344,2.652c3.977,3.124,10.701,12.118,17.423,24.805
		c6.724,12.687,7.576,25.563-1.23,31.433c-8.807,5.87-20.549,5.302-31.722-4.356c-11.174-9.657-18.181-22.343-22.252-31.716
		c-4.073-9.374-6.156-18.368-7.481-20.735c-1.327-2.367-2.746-3.313-2.557-0.946c0.189,2.367-2.179,8.142-2.936,15.148
		c-0.704,6.515-0.259,15.318,1.861,21.774c-3.709-3.543-10.205-12.016-14.549-22.058c-4.545-10.509-5.492-19.125-6.061-24.806
		c-0.567-5.68,0.758-10.982-0.473-10.319c-1.231,0.662-5.302,6.627-8.428,16.757c-2.766,8.969-4.407,23.122-0.086,33.742
		c-0.456-0.194-0.934-0.367-1.429-0.51c-5.587-1.609-19.317-8.047-29.449-25.279C83.232,65.3,80.202,51.762,81.433,40.684
		c1.231-11.077,2.462-13.917,1.231-14.959c-1.231-1.041-5.397,3.219-9.469,10.036c-4.071,6.817-10.511,19.503-12.688,41.09
		c-2.178,21.586,1.326,40.427,13.162,56.144c11.837,15.717,24.999,25.753,40.718,37.114c15.717,11.361,24.256,19.886,20.452,35.883
		c-2.525,10.615-6.846,15.692-9.648,18.945c0.126-5.263-0.756-16.875-8.817-27.845c-10.226-13.918-29.638-15.906-33.805-16.001
		c-4.166-0.094-3.976,2.462-0.757,4.829c3.22,2.367,10.606,7.48,14.961,16.379c4.356,8.9,0.474,23.669-9.469,22.723
		c-9.942-0.947-16.571-11.551-20.926-22.439c-4.357-10.888-5.208-33.232-13.541-51.504c-8.333-18.273-21.685-24.9-25.283-26.415
		c-3.598-1.515-5.019,0.473-3.504,2.083c1.515,1.609,3.219,5.018,5.777,12.118c2.557,7.101,4.901,21.306,6.911,35.22
		c2.368,16.379,4.263,21.871,8.617,38.629c-1.42-2.936-7.954-18.179-9.468-22.06c-1.516-3.882-1.894-3.499-2.083-0.379
		c-0.19,3.125-2.178,14.486,0.189,27.457c2.367,12.97,8.428,29.539,19.412,44.309c10.984,14.769,30.775,19.219,49.428,25.468
		c18.655,6.248,28.976,16.284,35.605,26.793c6.628,10.509,7.859,23.291,4.165,27.267c-3.692,3.977-10.037,2.651-15.812-4.544
		c-5.776-7.195-6.25-16.947-14.772-24.995c-8.523-8.047-18.465-10.793-30.586-13.35c-13.056-2.753-20.547-8.142-25.376-11.74
		c-4.831-3.597-5.02-1.609,1.135,5.586c5.552,6.491,22.821,20.545,31.533,39.67c7.682,16.866,12.026,28.782,26.229,34.368
		c8.751,3.441,17.802,4.639,23.862,8.237c4.908,2.913,8.247,6.446,10.754,9.896c-16.334-6.333-26.583-3.067-25.999-1.564
		c0.663,1.704,4.735,2.935,9.848,6.627c5.113,3.692,10.7,12.403,14.771,22.912c4.073,10.509,9.186,30.107,39.961,42.51
		c-40.717,0.473-72.06,24.521-76.132,28.593c-0.009,0.009-0.017,0.018-0.026,0.028c1.894-4.92,2.819-15.799-4.141-25.023
		c-8.143-10.793-19.791-10.793-28.313-10.983c-8.522-0.189-14.772-0.189-20.169-5.302c-5.397-5.112-5.303-11.456-5.208-15.716
		c0.05-2.231-0.166-3.142-0.528-2.827c0.544-2.021-1.313-1.515-3.733,1.596c-2.651,3.408-10.037,11.361-10.226,26.32
		c-0.19,14.959,13.825,20.261,23.293,21.208c9.469,0.947,17.992,1.42,22.064,2.935c2.947,1.097,4.788,2.941,5.588,4.952
		c-1.377,1.545-4.693,2.791-7.86,5.273c-3.504,2.746-6.25,7.859-5.208,13.349c1.041,5.492,6.912,10.888,15.433,9.373
		c-4.82,8.508-13.603,33.435-3.456,62.534c-0.351,0.079-0.712,0.158-1.089,0.237c-4.545,0.946-7.385-0.095-10.037-4.639
		c-2.651-4.545-1.231-13.255-0.189-19.883c1.042-6.627,3.03-19.124-5.682-32.475c-8.711-13.349-27.649-13.159-31.911-12.592
		c-4.261,0.568-5.397,3.977,1.704,6.344c7.103,2.366,15.151,10.035,18.939,19.692s3.125,19.788,2.747,27.078
		c-0.38,7.29-3.978,19.125,4.26,35.409c8.239,16.284,19.033,15.243,25.567,15.147c0.255-0.003,0.499-0.015,0.739-0.029
		c2.234,4.424,7.328,8.418,14.79,12.148c-1.988,0.095-7.575,0.284-12.973,0.19c-5.397-0.096-3.313,3.503,4.261,5.586
		c7.576,2.082,23.769,3.124,28.029,3.597c4.261,0.475,2.368,1.515-3.219,3.409c-5.587,1.893-16.286,1.893-25.851-2.272
		c-9.563-4.167-17.897-4.261-22.158-3.692c-4.261,0.567-6.25,2.271-1.137,3.219c5.114,0.947,11.932,4.923,21.496,10.699
		c9.564,5.774,19.128,8.52,27.839,6.911c8.712-1.61,17.992-4.829,26.04-4.071c8.049,0.757,16.666,6.059,29.166,9.089
		c9.95,2.412,18.818,0.502,26.99-2.24c1.575-0.554,2.93-2.52,2.648-8.363c-0.284-5.87,0.474-9.752,3.503-13.16
		c-0.094,5.491-1.414,12.176-1.041,16.569c3.693-7.196,8.617-11.173,15.434-15.149c-5.512,8.313-14.852,18.019-15.909,24.971
		c-0.412,3.768-0.545,8.367,0.002,14.226c1.041,11.172,5.491,16.853,3.692,23.101c-1.798,6.249-5.114,6.249-17.706,6.723
		c-12.595,0.474-18.182,1.609-19.791,2.272c-1.611,0.663-2.652,1.325-2.936-0.094c-0.284-1.421-1.042-3.409-4.261-7.291
		c-3.219-3.883-9.185-5.87-13.635-5.207c-4.452,0.663-6.25,2.935-3.41,5.396c2.841,2.461,4.641,4.544,5.115,6.627
		c0.213,0.945,0.41,1.982,0.746,2.654c-0.874,0.2-1.895,0.531-3.115,1.038c-4.544,1.894-10.037,5.586-14.772,12.023
		c-4.734,6.438-7.954,18.937,0.189,27.646c0.889,0.951,1.836,1.812,2.82,2.614c-1.932-8.452,3.816-22.43,24.592-21.157
		c21.28,1.303,25.187,17.479,15.429,24.742c6.733-2.54,17.317-7.157,26.284-10.744c11.837-4.733,30.302-10.982,38.54-21.113
		c8.239-10.13,10.89-24.71,13.163-34.367c2.272-9.656,7.101-26.319,8.806-31.054c1.704-4.734,3.408-9.658,4.545-9.373
		c0.787,0.196-0.153,5.438-1.466,11c3.482-2.368,4.566-3.145,4.307-1.249c-0.279,2.048-1.944,5.188-5.69,6.732
		c-0.157,0.581-0.313,1.149-0.465,1.694c-1.989,7.101-4.64,18.272-6.912,27.835c-2.273,9.563-5.966,24.616-14.583,32.854
		c-8.618,8.237-25.756,16.095-38.824,21.113c-13.067,5.018-19.412,7.479-23.294,8.899c-3.329,1.217-5.241,2.2-6.509,3.894
		c-0.313,0.473-0.636,0.971-0.971,1.503c-0.621,0.984-1.099,2.089-1.439,3.267c-0.475,2.341,0.97,6.869,4.942,11.124
		c0.466,0.499,1.035,0.979,1.679,1.438c-0.303-8.422,6.431-20.085,24.137-19.999c13.965,0.067,17.549,9.883,16.709,16.061
		c10.234-4.772,22.277-10.858,32.187-15.677c17.328-8.426,32.858-17.42,38.256-30.202c5.396-12.782,4.544-25.09,6.059-37.966
		c1.515-12.876,4.64-37.02,7.102-36.734c1.829,0.211,0.941,9.146,0.092,17.105c4.961-3.517,4.021-1.967,3.317,0.41
		c-0.58,1.957-2.161,3.633-3.849,4.651c-0.086,0.87-0.162,1.693-0.223,2.449c-0.662,8.236-2.272,23.479-3.314,32.379
		c-1.042,8.9-3.125,20.261-8.806,26.888c-5.682,6.628-16.003,14.771-38.161,25.47c-2.662,1.284-5.284,2.556-7.852,3.802
		c-1.609,3.048-6.46,7.976-12.601,16.269c-4.134,5.582-4.369,11.163-2.541,15.451c3.823-11.116,13.491-19.313,27.28-18.951
		c9.901,0.262,13.726,6.281,13.933,11.253c5.496-5.299,12.13-12.022,21.836-20.061c15.435-12.781,23.199-21.491,29.164-28.781
		c5.966-7.291,9.659-20.734,9.659-24.333c0-3.598,0.853-7.194,2.936-12.213c2.083-5.018,4.924-19.788,6.628-38.438
		c1.705-18.651,0-28.498-4.829-44.499c-4.829-16-12.973-23.574-26.325-35.22c-13.351-11.646-24.903-16.285-41.379-19.788
		c-16.477-3.503-38.256-3.313-46.4-3.028c-8.143,0.283-16.665-1.326-16.76-7.007c-0.094-5.681,15.34-9.468,26.892-9.278
		c11.553,0.188,19.128,5.302,24.241,14.486c25.661,0.852,46.684,12.308,56.816,19.313c10.131,7.006,19.506,15.812,24.903,28.308
		c4.327,10.019,7.31,21.377,8.423,33.777c1.388,5.135,3.278,9.438,5.686,13.089c2.936,4.449,4.262,8.805,8.144,14.485
		c3.882,5.681,11.078,14.959,13.92,21.208c2.841,6.248,1.893,13.634-4.262,17.799c-6.058,4.101-20.006,7.732-29.834-3.445
		c-2.195,9.182-4.266,17.495-7.285,25.411c-4.261,11.171-14.014,21.207-25.282,31.527c-11.269,10.32-25.851,21.87-35.699,32.189
		c-9.848,10.32-25.093,18.937-36.078,15.339c-10.984-3.599-15.339-13.256-12.878-22.155c2.191-7.918,7.903-14.033,12.872-18.421
		c-14.848,7.213-26.875,13.006-32.189,14.823c-7.196,2.462-17.309,2.176-23.862-1.704c-7.152-4.233-9.282-12.09-12.014-10.998
		c-7.626,3.077-17.877,9.448-25.199,19.897c-9.091,12.971-9.565,28.593-1.516,40.048c8.048,11.457,31.722,34.747,40.718,47.719
		c8.995,12.971,14.393,25.847,20.643,50.179s9.28,36.45,22.158,43.646c12.878,7.195,55.678,7.765,73.196,7.858
		c17.518,0.095,27.082-3.314,31.816-2.936c4.735,0.38,11.552,1.421,15.435-4.828c0.085-0.137,0.155-0.281,0.233-0.423
		c1.657-3.758,0.331-9.994-4.305-13.399c-0.334-0.246-0.681-0.469-1.033-0.681c-0.072,3.244-3.3,7.455-8.535,6.649
		c-5.426-0.835-7.004-5.73-5.92-9.134c-2.571-0.002-4.976-0.841-7.522-2.896c-2.936-2.366-8.996-8.993-16.098-10.225
		c-7.101-1.229-4.829-4.071,0-4.354c4.829-0.283,11.269,1.515,16.572,6.059c5.302,4.545,11.363,6.533,17.328,8.048
		c5.966,1.515,16.452,6.323,13.719,19.635c2,0.663,4.666,1.642,9.006,3.087c8.522,2.842,16.666,2.367,23.957-0.852
		c1.818-0.802,3.446-1.83,4.822-3.045c2.944-2.923,3.605-9.221,0.956-14.59c-0.213-0.433-0.461-0.828-0.725-1.207
		c-1.72,2.481-7.707,5.181-14.415,4.665c-6.559-0.504-10.929-4.383-10.732-8.561c-4.584-0.213-9.862-1.123-15.414-3.487
		c-10.89-4.64-15.435-11.268-21.496-15.622c-6.06-4.355-14.204-7.858-18.18-8.427c-3.978-0.567-2.936-3.408,1.988-3.029
		s15.057,2.556,22.727,9.656c7.67,7.102,16.381,12.593,24.998,14.013c8.617,1.421,17.329,1.326,24.241,2.746
		c6.913,1.42,10.795,6.249,11.742,10.981c0.946,4.731-0.03,8.311-1.718,11.253c7.675,3.09,15.533,0.46,19.709-2.352
		c0.418-0.282,0.85-0.63,1.284-1.006c1.88-1.929,4.012-6.63,3.356-13.102c-0.24-2.368-1.097-4.145-2.357-5.456
		c-1.069,2.997-5.473,7.314-12.707,6.545c-7.89-0.84-10.467-7.72-9.943-11.285c-4.354-0.928-8.865-2.291-12.586-4.195
		c-8.143-4.165-22.157-13.065-31.153-15.905c-8.996-2.84-14.014-3.977-14.109-5.586c-0.095-1.61,11.363-3.478,25.188,3.563
		c13.825,7.041,22.598,14.52,34.593,16.887c11.995,2.367,20.308-0.881,25.82,8.429c4.476,7.56,1.72,14.804-0.735,18.611
		c3.727,1.103,7.028,1.396,10.015,0.883c1.788,0.06,3.204-0.111,4.378-0.393c3.754-0.953,7.835-6.599,7.648-15.127
		c-0.089-4.045-1.214-7.411-3.327-10.032c-1.904,2.067-6.748,5.013-13.159,3.684c-6.626-1.374-9.92-6.207-10.61-10.114
		c-6.821,0.095-13.902,0.188-19.218-2.189c-8.891-3.977-9.081-5.87-14.668-9.183c-5.587-3.314-12.215-6.912-15.055-7.858
		c-2.841-0.947-0.853-3.882,4.166-2.937c5.018,0.947,14.962,5.802,20.832,9.434c5.871,3.633,11.647,6.567,18.749,6.473
		c7.101-0.094,20.926-1.987,29.828,5.113c8.534,6.808,11.227,19.562,1.92,31.271c0.524,0.294,1.157,0.689,1.963,1.203
		c3.408,2.179,9.562,4.734,21.873,1.988c12.309-2.745,20.549-10.414,23.862-28.403c2.551-13.843-0.229-25.657-5.831-29.726
		c-1.313,2.295-2.49,6.488-4.155,9.563c-3.678,6.789-12.731,13.674-23.952,11.127c-10.59-2.402-16.807-10.684-12.639-17.711
		c-2.579,0.004-5.072-0.119-7.397-0.425c-13.729-1.799-21.589-10.982-28.691-15.338c-7.102-4.354-15.245-6.533-20.643-9.94
		c-5.397-3.408-15.53-11.268-14.771-13.635c0.757-2.367,0-3.503-1.516-5.68c-1.514-2.177-6.249-12.876-8.521-20.64
		c-2.274-7.765-3.125-12.593-3.315-15.717c-0.189-3.125-1.704-3.882-3.03-1.324c-1.326,2.556-6.913,16.378-3.409,29.918
		c-3.882-5.966-4.545-5.776-6.061-5.492c-1.514,0.284-1.325,3.03-1.325,7.006s-0.663,15.433,4.829,24.995
		c-2.935-3.408-11.646-8.048-19.696-14.296c-8.048-6.249-18.939-15.717-24.997-23.953c-6.061-8.238-5.493-18.274,1.135-23.291
		c6.629-5.019,29.733-11.93,60.035-23.007c30.301-11.077,54.826-19.125,76.889-34.746c22.063-15.622,25.283-29.445,21.59-45.824
		c-3.693-16.379-13.825-35.126-16.003-40.711c-2.178-5.586-2.652-10.793-1.42-11.267c1.231-0.474,5.113,8.236,7.764,15.622
		c2.651,7.384,19.412,43.361,28.787,65.043c9.374,21.681,20.453,45.16,23.388,51.03c-7.386-6.532-13.445-7.669-19.033-12.971
		c-5.587-5.302-7.385-8.805-8.427-11.456c-1.042-2.65-3.504-3.124-3.504-1.798c0,1.325,0.757,11.077,1.137,17.231
		c0.379,6.153,1.136,17.609,14.582,31.147c15.318,15.424,32.373,25.135,38.908,36.944c-4.687-1.753-11.27-3.159-14.572-4.564
		c-4.45-1.893-5.587-5.586-5.871-7.953s-3.598-2.65-3.408,0.569c0.188,3.219,0.094,11.361,8.048,20.071
		c7.955,8.71,16.003,15.147,15.529,20.166c-0.473,5.018-5.302,24.711-3.787,42.036c1.516,17.326,7.48,38.439,34.941,42.699
		c27.46,4.262,48.767-2.083,64.959-5.111c16.191-3.03,30.205-3.883,64.012,4.166c33.804,8.047,45.735,6.721,63.348,1.893
		c17.613-4.828,28.313-1.704,49.335,0.947c10.451,1.317,22.209,1.521,33.117-1.098C848.345,966.907,863.366,956.639,869.882,938.649
		 M708.953,297.544c2.274-0.379,25.662-3.03,32.007-3.693c6.344-0.663,18.086-1.988,19.791-2.178
		c1.704-0.189,2.178,0.285,2.367,2.652c0.189,2.367,2.271,18.462,3.314,32.284c1.041,13.823,1.894,28.309-2.937,35.22
		c-4.829,6.912-10.037,10.604-23.483,11.172c-13.445,0.568-20.738-4.071-23.199-7.764c-0.567-0.85-1.102-1.346-1.569-1.578
		c4.567-5.409,6.829-11.863,5.263-18.588c-1.396-5.986-6.221-10.356-12.122-12.452c0.25-0.229,0.507-0.539,0.76-0.897
		c1.135-1.61,0.852-3.408,0.567-6.249c-0.285-2.84-2.557-21.681-2.936-24.427C706.397,298.301,706.683,297.922,708.953,297.544
		 M222.762,242.527c-3.325-13.367-2.546-25.814-1.627-31.401c0.638-3.878,2.875-6.783,4.668-5.728
		c1.202,0.707,0.353,2.616-0.424,4.314c-0.779,1.697-1.981,6.011-0.495,13.791c1.484,7.779,4.88,13.861,10.75,21.146
		c-2.829-10.467-1.627-16.337-0.072-15.771c1.556,0.565,1.486,3.889,3.113,7.92c1.626,4.032,4.243,9.265,10.82,20.015
		s9.477,20.792,10.608,28.996c1.132,8.204,1.414,14.216,6.578,25.603c5.162,11.386,18.317,22.914,19.519,31.825
		s-4.102,10.679-8.134,7.426c-4.03-3.253-8.061-10.467-14.144-21.854c-6.082-11.387-18.458-23.268-28.996-35.503
		c-10.537-12.235-11.316-23.904-12.376-34.159c-1.061-10.255-3.325-15.347-4.598-19.307c-1.272-3.961-1.979-7.709-2.546-9.972
		C214.841,227.605,219.367,234.96,222.762,242.527 M349.072,386.801c-2.122,0.566-5.941,2.688-13.579,2.971
		c-7.638,0.282-18.459-0.92-31.684-4.456s-21.358-7.426-31.33-8.204c-9.971-0.778-13.861,3.536-21.57,1.839
		c-7.709-1.697-12.659-6.577-17.61-13.013c-4.95-6.436-12.448-9.406-16.691-9.618c-4.243-0.212-3.536-3.215,0.354-3.183
		c8.628,0.071,14.639,3.748,19.661,9.548c5.021,5.799,10.467,11.245,14.923,11.669c4.455,0.424,11.597-2.617,21.004-2.334
		c7.352,0.221,21.57,5.658,29.35,7.85c7.78,2.193,23.621,5.517,33.523,5.375C345.323,385.104,351.193,386.235,349.072,386.801
		 M382.948,342.882c-2.121-0.07-1.98-2.829-6.577-10.537c-4.597-7.709-8.628-16.337-12.094-26.451
		c-3.465-10.113-7.849-16.266-13.719-23.974c-5.871-7.709-11.458-15.984-14.57-25.178c-3.111-9.194-4.526-18.671-5.869-23.197
		c-1.065-3.585,0.354-6.577,5.657,9.336c-0.424-7.992-1.485-13.296-3.536-19.095c-2.051-5.8-3.89-10.043-5.163-11.457
		c-1.272-1.415,0.425-2.264,2.334,0.282c1.91,2.546,6.437,11.528,8.982,19.873c2.546,8.346,6.648,16.62,11.174,22.419
		c-3.111-7.638-4.031-16.195-4.243-19.377c-0.212-3.183,0.707-2.264,1.344,1.06c0.637,3.324,2.192,7.85,4.738,14.286
		c2.546,6.436,4.102,10.326,13.084,22.49s15.835,21.855,19.59,35.786c2.687,9.972,0.778,21.499,0.849,27.087
		C384.999,341.822,384.574,342.937,382.948,342.882 M613.789,414.375c0.379,1.42,0.568,3.692,1.705,1.705
		c1.135-1.989,5.775-7.859,7.858-15.528c2.084-7.669-1.894-19.693-4.544-20.071c-2.652-0.379-5.02,6.249-5.777,13.16
		c-0.741,6.768-0.51,13.42,0.95,17.534C613.22,412.697,613.5,413.291,613.789,414.375 M816.239,268.761
		c-2.745,5.965-4.45,13.729-3.504,22.628c0.948,8.9,4.262,18.747,10.133,25.942c0.414,0.509,0.764,0.883,1.061,1.144
		c0.115,0.584,0.237,1.095,0.359,1.507c1.042,3.503,2.462,3.692,3.788,3.03c1.326-0.663,1.42-2.273,0.568-4.923
		c-0.853-2.652-2.272-12.498,1.42-21.208c3.692-8.711,9.28-11.74,15.53-21.113c6.248-9.374,13.635-21.208,10.889-36.167
		c-2.746-14.959-13.067-27.835-18.654-33.043c-5.587-5.207-6.818-3.786-3.599,1.989s7.198,17.042,4.167,25.468
		c-3.03,8.426-4.544,9.184-5.776,11.456c-0.215,0.396-0.375,0.744-0.512,1.073c-0.385-1.428-0.951-2.858-1.76-4.197
		c-2.746-4.545-7.767-12.024-11.175-16.001c-3.408-3.976-3.693,0.758-2.65,4.261c1.041,3.503,3.409,12.876,3.124,20.45
		C819.364,258.631,818.985,262.797,816.239,268.761 M893.888,306.917c0.184,0.015,0.359,0.008,0.532-0.009
		c-1.03,1.273-0.063,3.118,1.36,2.281c3.398-1.998,5.682-5.207,5.492-12.876c-0.172-7.005-2.367-10.226-2.746-12.971
		c-0.379-2.746-2.272-2.367-3.029,0.284c-0.759,2.651-2.272,3.787-4.546,7.763c-2.272,3.977-2.747,7.764-2.084,10.509
		C889.53,304.644,891.614,306.727,893.888,306.917 M893.46,406.391c-6.559,9.292-0.796,14.797,11.163,12.866
		c7.202-11.851,8.581-19.82,8.312-26.185C905.697,394.248,899.064,398.452,893.46,406.391 M789.463,342.791
		c-0.819-0.502-1.618-0.948-2.389-1.317c-2.567-1.233-5.579-1.848-8.404-1.991c-0.373,5.574,1.985,12.312,6.915,16.837
		c5.297,4.863,13.623,3.404,17.412,0.565C799.761,351.579,796.239,347.361,789.463,342.791 M825.311,420.63
		c13.051-8.645,26.286-21.513,32.641-26.753c1.121-0.924,2.093-1.784,2.958-2.592c-0.112-0.985-0.264-1.983-0.449-2.946
		c-0.945-4.924-3.124-11.74-5.018-16.663c-1.895-4.924-3.314-9.658-3.789-17.137c-0.473-7.48,0-15.148,1.422-18.935
		c1.42-3.787,0.946-4.639-0.473-5.681c-1.422-1.042-2.463,0.379-2.653,2.083c-0.189,1.704-1.229,1.799-2.556,3.314
		c-0.957,1.092-3.142,4.551-4.854,8.489c-0.759-1.817-2.096-3.833-4.048-6.028c-3.787-4.26-8.711-7.858-16.002-8.994
		c-1.725-0.269-3.551-0.365-5.343-0.227c-0.522,8.273,2.041,16.367,7.383,19.839c5.657,3.677,11.976,1.32,14.239-1.132
		c2.263-2.452,4.621,0.189,2.168,3.396c-2.451,3.206-8.297,7.544-18.011,2.452c-8.963-4.7-11.397-14.379-10.782-23.382
		c-3.592,1.539-6.346,4.672-6.699,10.322c-0.104,1.653-0.184,3.26-0.228,4.846c0.438,9.808,4.735,21.598,14.811,35.565
		C828.886,392.746,834.013,409.36,825.311,420.63 M454.198,907.508c-1.986,5.883,1.108,12.057,7.383,13.461
		c7.166,1.604,14.818-1.975,19.236-6.884c4.311-4.789,4.305-8.088,6.43-10.534c-1.087-0.349-2.246-0.452-3.47-0.263
		C477.224,904.302,465.414,906.808,454.198,907.508 M717.761,246.986c-6.533,2.083-16.762,6.343-18.655,15.716
		c-1.894,9.374,4.356,16.001,11.647,19.409c7.291,3.408,19.033,3.314,25.474-0.378c6.438-3.693,6.25-10.036,1.986-14.107
		c0,0,9.564-2.178,17.804-9.468c6.27-5.549,7.039-13.729,2.672-21.287c0.688,0.082,1.503,0.033,2.44-0.205
		c5.208-1.326,19.033-8.142,29.733-19.977s10.416-24.711,6.439-32.664c-3.764-7.524-9.729-9.452-14.289-8.996
		c3.879-6.64,9.125-23.039,3.115-33.135c-7.102-11.929-24.431-18.083-45.831-13.16s-42.327,19.125-54.825,36.734
		c-12.5,17.611-13.731,33.99-2.084,51.032C695.034,233.542,709.427,241.305,717.761,246.986 M688.88,168.687
		c11.741-18.272,33.71-29.255,50.187-33.799c16.476-4.545,34.847-0.947,41.001,8.426s1.515,23.385-0.947,28.593
		c-0.449,0.951-0.782,1.843-1.01,2.651c-2.479-1.01-4.938-2.842-9.501-3.03c-6.912-0.284-11.078,2.272-6.25,2.935
		c4.83,0.663,12.121,3.124,14.489,4.923c2.366,1.799,3.598,1.989,5.965,1.704c2.367-0.284,7.955,0.474,10.795,8.995
		c2.841,8.521-0.474,18.746-7.197,24.521c-6.723,5.776-17.707,13.35-27.555,17.232c-1.212,0.477-1.973,1.14-2.356,1.829
		c-0.569-0.714-1.192-1.418-1.86-2.108c0.639-1.124,0.99-3.119,1.092-5.97c0.189-5.302-3.598-11.078-5.964-13.35
		c-2.368-2.272-4.736-3.029-2.084,1.42c2.265,3.803,2.709,10.363,2.396,13.905c-8.572-6.487-15.472-6.413-18.02-5.478
		c-2.842,1.041-3.221,2.651-0.095,4.165c3.124,1.515,10.889,3.409,17.423,8.616c6.533,5.207,9.658,14.107,3.787,19.504
		c-5.871,5.396-13.352,6.817-16.948,7.574c-3.601,0.757-4.642,0.757-5.968,2.935c-1.323,2.177-1.779,3.27,0.663,4.355
		c5.114,2.272,5.682,6.343,2.841,7.764c-2.841,1.419-9.848,2.84-16.76,1.136c-6.913-1.705-13.73-7.007-13.352-13.255
		c0.378-6.249,7.198-8.9,14.488-12.498c7.291-3.597,6.25-7.385,1.988-10.604s-20.833-13.16-31.628-27.74
		C677.706,199.458,677.138,186.961,688.88,168.687 M650.624,798.67c2.296,7.608,6.155,12.876,10.322,15.622
		c5.13,3.381,7.859,2.177,5.018-2.556c-2.841-4.734-4.166-13.066-2.083-22.25s1.894-25.278-6.817-37.87
		c-8.712-12.593-16.003-17.042-18.938-18.841c-2.936-1.8-3.599,0.662-1.042,4.639c2.559,3.977,9.942,14.959,11.363,28.023
		C649.866,778.504,647.31,787.687,650.624,798.67 M350.276,694.604c1.099,1.469,2.282,3.255,4.247,4.938
		c2.653,2.271,11.364,5.491,19.791,1.704c8.428-3.787,5.019-14.107-0.947-22.722c-5.238-7.566-14.365-18.478-17.78-28.642
		c0.086,14.781-0.688,26.006-3.999,39.339C351.134,691.054,350.699,692.844,350.276,694.604 M714.825,794.125
		c0.438,1.921,1.041,1.705,1.136,3.125s0.285,2.367,1.42,3.219c1.138,0.853,2.368,0.379,2.843-2.178
		c0.473-2.557,2.462-6.154,4.828-11.171c2.367-5.02,4.925-11.172,4.355-20.167c-0.568-8.994-3.787-17.138-6.154-16.853
		c-2.368,0.284-3.22,1.041-3.029,2.935c0.188,1.894-1.517,7.386-3.978,14.865C713.783,775.38,712.363,783.332,714.825,794.125
		 M53.026,359.557c5.114,1.515,11.741,4.734,15.53,12.024c3.787,7.29,3.313,17.42,3.976,27.078
		c0.663,9.657,4.924,18.841,14.678,24.805c9.753,5.965,24.43,3.693,28.786,1.989c4.355-1.705,4.167-3.409,1.23-4.261
		c-2.935-0.852-10.51-3.692-12.877-11.267c-2.368-7.574-1.61-18.841-11.079-33.042c-9.469-14.202-22.158-21.397-39.487-21.303
		C49.142,355.606,47.912,358.042,53.026,359.557 M892.33,919.737c-3.858-3.015-8.251-4.074-11.73-4.258
		c0.361,13.007-2.554,36.726-25.897,50.72c2.297,0.991,6.109,1.756,11.369,1.549C899.015,959.587,898.256,933.426,892.33,919.737
		 M818.117,916.254c5.846,1.509,12.353-4.432,16.219-9.241c2.859-3.557,7.164-8.962,11.615-11.503
		c-2.805,0.486-5.878,1.151-9.258,2.003c-8.86,2.234-15.868,4.402-22.184,6.124C810.203,909.725,812.936,914.917,818.117,916.254
		 M949.943,950.533c-2.128-2.708-5.743-3.871-8.823-3.656c1.445,6.977-1.226,15.956-15.389,21.001
		c5.524,1.065,13.594,1.242,19.572-1.44C952.69,963.125,953.068,954.509,949.943,950.533 M922.753,933.968
		c-1.131-2.011-2.58-3.903-4.342-5.59c-7.079-6.78-15.199-8.039-21.205-7.44c12.086,20.313-5.318,39.591-17.772,46.088
		c1.901,0.776,5.61,1.328,10.949,1.59c3.124,0.153,6.227,0.062,9.318-0.393C913.213,962.938,925.642,947.637,922.753,933.968
		 M937.409,944.258c-2.494-4.836-7.088-7.336-10.849-8.105c1.354,9.604-1.749,24.389-18.186,30.664
		c1.51,0.632,4.958,0.902,10.227,0.853c0.647-0.007,1.306-0.049,1.966-0.108C928.817,964.363,939.948,955.088,937.409,944.258
		 M387.003,857.749c2.597,6.636,5.776,11.645,9.942,14.959c4.167,3.313,5.303-0.475,2.747-4.166
		c-2.556-3.693-4.072-10.036-2.747-15.054c1.325-5.019,4.356-9.09,3.978-16.19c-0.379-7.101-4.924-12.497-6.724-12.118
		c-1.553,0.326-1.479,1.501-0.822,3.094c-7.396,1.798-10.527,12.242-10.067,18.776c1.515-5.396,3.977-3.976,3.219-1.609
		C385.771,847.808,385.299,853.394,387.003,857.749 M409.811,946.335c3.467,0.645,7.065-1.404,8.568-4.957
		c-1.795-0.689-3.863-0.976-5.998-0.976c-2.209,0-5.32-0.238-8.773-0.762C403.477,942.94,406.366,945.693,409.811,946.335
		 M381.795,946.745c-1.61,0.246-3.581,0.495-5.82,0.62c-0.257,1.65,1.437,3.503,6.396,4.062c5.366,0.605,8.187-1.817,10.212-3.192
		C389.436,946.518,385.384,946.198,381.795,946.745 M431.688,935.773c3.266,0.855,7.489-0.535,9.928-2.74
		c-2.091-1.387-4.666-2.387-7.741-2.951c-2.704-0.496-5.8-0.596-9.043-0.59C424.298,931.838,428.324,934.893,431.688,935.773
		 M340.314,956.519c2.287,0.653,5.205-0.747,5.58-3.645c-2.35-0.885-4.828-1.256-6.941-1.364
		C335.933,953.37,337.921,955.835,340.314,956.519 M270.343,792.516c1.71-1.266,3.424-2.73,5.22-4.369
		c-0.85-3.318-1.959-9.184-10.685-9.849c-9.461-0.721-19.334,5.893-22.993,19.148c0.974,0.797,2.046,1.438,3.175,1.887
		C251.973,802.079,262.673,798.197,270.343,792.516 M210.119,775.474c3.25-0.829,8.291-2.879,14.211-5.553
		c0.862-5.126-1.501-12.124-12.354-12.934c-11.474-0.856-20.615,8.63-20.855,16.947
		C196.299,776.139,203.623,777.131,210.119,775.474 M175.746,751.142c1.324-0.236,2.58-0.485,3.812-0.745
		c7.485-6.698,11.5-18.789-7.94-21.604c-18.343-2.657-23.615,12.419-20.533,19.771C158.272,752.05,166.915,752.724,175.746,751.142"
		/>
</g>
</svg>
