<?xml version="1.0" encoding="utf-8"?>
<!-- Generator: Adobe Illustrator 15.1.0, SVG Export Plug-In . SVG Version: 6.00 Build 0)  -->
<!DOCTYPE svg PUBLIC "-//W3C//DTD SVG 1.1//EN" "http://www.w3.org/Graphics/SVG/1.1/DTD/svg11.dtd">
<svg version="1.1" id="Layer_1" xmlns="http://www.w3.org/2000/svg" xmlns:xlink="http://www.w3.org/1999/xlink" x="0px" y="0px"
	 width="520.87px" height="431.349px" viewBox="39.054 202.323 520.87 431.349"
	 enable-background="new 39.054 202.323 520.87 431.349" xml:space="preserve">
<path d="M363.091,566.218c-1.701-9.432-12.157-15.922-23.913,5.037c-11.754,20.961-18.706,19.148-24.529,8.398
	c-5.825-10.748-5.937-35.941-2.912-58.336s9.856-63.264,20.273-100.662c5.963-21.409,13.249-47.075,20.763-72.061
	c24.763-3.295,50.51-6.101,73.021-7.234c41.114-2.068,78.899,0.54,94.193,13.67c-13.765,17.537-11.876,32.105-5.668,36.422
	s15.834,1.439,30.318-13.85c14.483-15.289,19.072-39.391,12.056-53.42c-7.018-14.03-27.62-26.35-62.977-28.778
	c-35.357-2.428-69.993-0.359-120.733,6.116c-1.867,0.238-3.744,0.482-5.624,0.729c0.729-2.185,1.454-4.337,2.173-6.441
	c12.656-37.063,20.273-58.785,23.972-69.87c3.694-11.084,1.23-21.61-6.723-23.29c-7.952-1.68-18.146,2.688-26.882,23.737
	c-7.407,17.847-23.591,57.262-33.873,81.812c-30.25,4.668-58.539,9.629-77.288,12.955c0.915-2.726,1.827-5.395,2.734-7.989
	c8.737-24.969,23.298-65.726,26.659-75.58c3.36-9.853-0.896-20.714-8.289-21.05c-7.395-0.336-18.93,5.599-25.65,23.626
	c-6.156,16.515-23.219,64.604-31.722,87.619c-28.873,5.495-68.285,13.52-103.896,22.485c-15.935,4.01-23.481,19.335-24.921,29.408
	c-1.438,10.072,2.43,19.246,13.944,16.547c11.033-2.584,64.583-14.578,96.747-20.799c-5.179,13.295-10.777,27.303-16.239,40.196
	c-12.097,28.552-32.259,76.251-48.389,101.443c-16.129,25.193-27.554,40.086-41.219,40.758
	c-19.679,1.797-33.328-17.826-43.138-4.094c-6.24,8.738-12.664,34.6,6.258,46.557c4.814,2.104,10.209,3.406,16.046,4.006
	c18.593,1.902,42.787-9.965,64.517-37.398c21.73-27.432,31.25-47.811,33.379-51.619c-3.137,20.156-7.494,57.328-1.231,78.156
	c6.159,20.49,21.842,27.545,39.314,11.869c17.474-15.676,33.043-41.318,51.188-74.012c18.146-32.695,30.803-59.793,32.259-62.816
	c-11.761,50.5-16.241,94.951-12.546,122.607c3.697,27.656,18.93,46.916,39.428,41.766c15.313-3.848,30.199-15.428,40.264-30.926
	C364.304,586.417,364.768,575.515,363.091,566.218 M283.845,404.309c-11.762,25.417-37.076,78.155-49.621,101.558
	c-12.544,23.4-24.417,43.221-29.906,51.281c-5.488,8.063-5.601,6.83-6.16-0.225c-0.561-7.053-1.681-24.633,3.92-56.992
	c5.6-32.357,15.12-74.348,23.298-102.228c2.821-9.619,5.762-19.69,8.763-29.783c19.147-3.562,38.862-7.105,61.656-10.82
	c3.188-0.52,6.495-1.052,9.892-1.591C298.334,372.302,290.367,390.215,283.845,404.309"/>
</svg>
