<?xml version="1.0" encoding="utf-8"?>
<!-- Generator: Adobe Illustrator 15.1.0, SVG Export Plug-In . SVG Version: 6.00 Build 0)  -->
<!DOCTYPE svg PUBLIC "-//W3C//DTD SVG 1.1//EN" "http://www.w3.org/Graphics/SVG/1.1/DTD/svg11.dtd">
<svg version="1.1" id="Layer_1" xmlns="http://www.w3.org/2000/svg" xmlns:xlink="http://www.w3.org/1999/xlink" x="0px" y="0px"
	 width="524.571px" height="306.881px" viewBox="34.714 266.558 524.571 306.881"
	 enable-background="new 34.714 266.558 524.571 306.881" xml:space="preserve">
<path fill="#010101" d="M211.374,528.708c-4.354-3.955-23.84-16.326-45.413-13.451c-22.261,2.969-40.07,15.332-50.162,21.363
	c-10.092,6.033-29.979,14.936-42.247,10.088c-12.268-4.846-18.105-12.758-18.798-33.23c-0.693-20.473,9.435-58.438,23.349-93.759
	c15.039-38.177,41.356-88.716,62.232-122.442c11.777-19.028-3.878-25.423-13.258-10.187
	c-26.911,43.715-46.601,83.276-63.815,123.926C46.048,451.664,33.78,497.06,34.77,524.556c0.989,27.494,10.389,43.615,30.474,47.969
	c20.084,4.35,41.554-7.814,55.306-15.727c13.752-7.914,29.88-17.408,46.996-16.221s24.537,8.801,28.791,11.473
	c4.254,2.67,9.397,2.967,15.533-6.23C218.003,536.621,214.302,531.371,211.374,528.708 M545.381,424.835
	c-2.032,1.602-6.691,4.998-13.611,6.096c-7.761,1.23-13.612,0.063-17.677-0.924c-4.065-0.984-5.729-1.293-9.793,1.785
	c-0.37-7.326-6.45-10.017-14.722-3.016c-7.637,6.463-13.919,16.008-21.803,29.059c-7.884,13.053-22.05,39.344-29.872,50.117
	c-7.821,10.773-10.285,10.529-13.488,4.617c-3.201-5.91-3.264-19.764-1.602-32.076c1.664-12.314,5.42-34.787,11.148-55.352
	c3.278-11.771,7.284-25.884,11.417-39.623c13.615-1.812,27.772-3.355,40.151-3.978c22.607-1.137,43.384,0.297,51.794,7.517
	c-7.567,9.643-6.529,17.654-3.116,20.027c3.413,2.374,8.706,0.792,16.672-7.615c7.965-8.408,10.486-21.66,6.628-29.375
	c-3.857-7.714-15.188-14.489-34.628-15.824c-19.441-1.335-38.486-0.198-66.389,3.362c-1.025,0.131-2.058,0.266-3.092,0.401
	c0.4-1.201,0.8-2.385,1.194-3.542c6.96-20.379,11.147-32.324,13.181-38.418c2.032-6.096,0.678-11.883-3.695-12.807
	c-4.373-0.924-9.979,1.477-14.781,13.052c-4.072,9.814-12.972,31.486-18.626,44.985c-16.634,2.567-32.188,5.294-42.498,7.124
	c0.504-1.499,1.005-2.967,1.505-4.393c4.804-13.729,12.811-36.141,14.657-41.559c1.849-5.418-0.491-11.39-4.558-11.575
	s-10.409,3.079-14.104,12.991c-3.387,9.081-12.768,35.523-17.442,48.179c-15.877,3.021-37.548,7.435-57.13,12.364
	c-8.761,2.206-12.911,10.632-13.703,16.17s1.335,10.583,7.667,9.099c6.066-1.421,35.513-8.016,53.198-11.437
	c-2.849,7.31-5.928,15.013-8.931,22.104c-6.65,15.699-17.736,41.928-26.606,55.781c-8.869,13.852-15.151,22.041-22.665,22.408
	c-7.514,0.371-11.086-3.631-12.072-5.293c11.21-9.176,27.901-23.336,35.479-38.852c7.574-15.516,6.526-26.904-0.74-33.184
	c-7.269-6.282-18.785-5.605-31.35,6.217c-12.565,11.822-21.558,33.432-25.067,57.813c-11.826,7.572-22.173,8.313-27.408,2.895
	s-8.869-18.777-7.33-36.389c7.576-12.066,24.145-39.71,35.292-57.381c11.148-17.67,26.669-42.975,37.202-62.061
	c10.531-19.087,19.523-40.39,19.216-52.396c-0.309-12.005-8.19-18.224-19.216-14.099c-11.024,4.125-28.271,20.256-43.792,46.916
	c-15.521,26.66-23.096,45.376-33.628,76.715c-10.533,31.337-12.75,54.548-13.98,60.832c-8.253,13.297-15.952,21.672-21.496,26.535
	c-5.542,4.863-11.765,4.063-14.475-0.555s0.616-12.684,8.869-20.504c8.253-7.816,15.829-10.342,20.264-15.145
	s5.604-11.637,4.064-16.131s-4.743-4.619-9.054-3.078c-4.313,1.539-17.369,4.248-32.274,5.541
	c-14.903,1.293-24.451,0.615-27.592,0.246c1.17-7.882-4.127-12.314-9.917-8.559c-5.789,3.756-25.683,18.9-32.828,39.711
	c-7.144,20.811-1.909,35.648,7.453,42.359s23.898,4.803,33.013-5.479c9.116-10.283,14.535-23.09,13.365-42.299
	c4.681-0.123,11.887-0.801,14.597-1.23c-10.84,16.316-14.474,35.525-6.897,46.053c7.576,10.529,20.756,9.174,30.057,3.387
	c9.3-5.787,17.984-15.699,21.926-20.871c0.801,17.73,8.254,32.879,21.435,36.078c13.18,3.203,26.792-3.756,34.614-8.865
	c2.833,10.592,10.593,15.578,20.817,16.625c10.224,1.047,23.527-5.48,35.476-20.564s17.185-26.291,18.354-28.383
	c-1.725,11.082-4.122,31.52-0.678,42.975c3.388,11.268,12.01,15.146,21.617,6.525c9.608-8.619,18.171-22.719,28.146-40.695
	c9.979-17.979,16.938-32.879,17.739-34.541c-6.468,27.77-8.933,52.211-6.898,67.418c2.032,15.207,10.408,25.797,21.68,22.967
	c11.272-2.832,20.634-14.225,28.271-25.367c7.637-11.145,12.563-20.072,13.673-22.164c2.033,7.326,8.068,21.426,27.593,17.115
	c19.525-4.311,31.597-30.537,28.518-54.734c9.301-0.309,18.593-4.627,25.375-9.729c6.961-5.232,10.594-14.223,8.438-20.193
	C553.758,420.772,547.412,423.236,545.381,424.835 M267.051,336.854c9.547-17.855,17.492-29.43,24.206-36.449
	c6.713-7.02,10.408-8.866,11.579-7.819c1.17,1.046-2.032,11.759-9.177,25.428c-7.145,13.668-19.955,35.956-28.517,49.563
	s-21.434,34.171-25.067,40.143C248.328,378.967,257.505,354.708,267.051,336.854 M132.414,473.597
	c-0.493,4.805-1.664,7.697-5.79,7.574s-9.484-2.586-11.395-10.406c-1.909-7.816,4.62-17.67,11.456-23.148
	c-0.062,1.785,1.048,4.494,3.266,9.543C132.167,462.208,132.907,468.796,132.414,473.597 M299.324,446.693
	c4.559-3.449,7.945-1.662,8.686-0.063c0.737,1.602,0.616,3.51-2.956,8.004c-3.573,4.494-11.333,12.561-17.185,16.932
	C290.21,460.976,294.762,450.144,299.324,446.693 M407.479,416.154c-6.467,13.977-20.387,42.975-27.284,55.844
	c-6.897,12.867-13.427,23.766-16.444,28.197c-3.019,4.434-3.079,3.756-3.389-0.123c-0.308-3.879-0.924-13.545,2.156-31.338
	c3.079-17.793,8.314-40.883,12.811-56.213c1.553-5.289,3.169-10.827,4.818-16.376c10.528-1.959,21.369-3.907,33.903-5.95
	c1.753-0.286,3.57-0.579,5.438-0.875C415.446,398.555,411.064,408.404,407.479,416.154 M502.081,480.308
	c-0.491,4.189-0.861,5.727-5.48,6.221c-4.619,0.49-10.347-1.602-11.086-9.359c-0.739-7.756,1.724-21.979,10.84-29.43
	c-0.616,2.033,2.402,5.664,4.496,14.162C502.385,468.125,502.574,476.123,502.081,480.308"/>
</svg>
