<?xml version="1.0" encoding="utf-8"?>
<!-- Generator: Adobe Illustrator 15.1.0, SVG Export Plug-In . SVG Version: 6.00 Build 0)  -->
<!DOCTYPE svg PUBLIC "-//W3C//DTD SVG 1.1//EN" "http://www.w3.org/Graphics/SVG/1.1/DTD/svg11.dtd">
<svg version="1.1" id="Layer_1" xmlns="http://www.w3.org/2000/svg" xmlns:xlink="http://www.w3.org/1999/xlink" x="0px" y="0px"
	 width="497.481px" height="325.277px" viewBox="48.889 257.987 497.481 325.277"
	 enable-background="new 48.889 257.987 497.481 325.277" xml:space="preserve">
<path fill="#010101" d="M442.264,297.794c-1.408-1.304-1.862-0.694-0.769,0.35c0.769,0.731,1.694,1.59,2.847,2.543
	c1.148,0.954,1.726,0.827,1.148,0.191C444.915,300.242,443.669,299.098,442.264,297.794 M451.885,302.214
	c-0.896-0.477-1.774,0.191-0.896,0.795c0.928,0.635,3.74,2.607,4.539,3.116c0.799,0.508,1.566-0.477,0.99-0.891
	C455.945,304.821,452.78,302.691,451.885,302.214 M546.25,315.218c-0.512-0.636-3.794-0.509-17.476,0
	c-13.682,0.509-47.779,0.636-64.188,0.763c1.107-0.509,3.366-1.865,3.11-4.366c-0.255-2.502-2.854-4.748-3.494-5.088
	c-0.641-0.339,1.534-1.229,3.152-1.738c1.621-0.509,1.621-1.441,1.023-1.992c-0.597-0.552-2.387-1.951-3.025-2.544
	c-0.639-0.594-1.023-0.466-1.577,0s-0.511,0.763-0.128,1.145c0.384,0.381,1.363,1.144,2.302,1.78
	c0.938,0.636,0.555,0.89-1.107,1.611c-1.662,0.721-1.918,1.06-3.197,0.933c-1.277-0.127-1.063,1.188,0.555,2.416
	c1.62,1.23,2.984,2.12,3.197,4.07s-0.598,2.628-2.941,3.179c-0.955,0.225-1.504,0.408-1.827,0.594l-0.003-0.001
	c-0.634,0.364-7.161,0.393-12.851,1.392c-0.355-0.208-0.812-0.429-1.292-0.628c-1.918-0.795-3.612-2.544-4.379-4.229
	c-0.108-0.238-0.213-0.432-0.314-0.596c0.22-0.979,0.021-2.643-0.518-3.473c-0.639-0.986-1.789-1.717-1.246-2.131
	c0.544-0.413,1.758,0.286,3.229-0.477c0.862-0.448,1.149-1.124,1.039-2.071c0.059,0.04,0.108,0.075,0.143,0.1
	c0.48,0.35,0.225,1.717,0.801,2.512c0.574,0.795,1.822,0.763,2.525,0.063c0.703-0.699,1.021-1.462,0.959-2.225
	c-0.064-0.763-0.742-0.832-1.151,0.032c-0.257,0.54-0.446,1.049-0.959,1.017c-0.511-0.032-0.671-0.763-0.767-1.431
	c-0.097-0.667-0.033-0.922-0.863-1.335c-0.831-0.414-3.356-1.908-5.403-3.688c-2.045-1.781-2.236-4.102-1.533-4.929
	c0.703-0.826,2.813-0.54,4.443,1.081c1.63,1.622,2.493,2.925,3.164,3.911c0.672,0.986,0.927,0.859,0.862,0.286
	c-0.014-0.123-0.033-0.253-0.073-0.402c1.262,0.084,5.366-0.344,7.649-0.488c2.035-0.128,5.955-0.38,7.402-0.473
	c-0.255,1.358-0.54,2.501-0.722,3.557c-0.223,1.304-0.287,2.035,0.512,2.003c0.8-0.031,1.087-0.54,1.15-1.43
	c0.063-0.891,0.097-1.717,0.447-3.88c0.353-2.162,0.862-6.009,0.768-6.867c-0.096-0.859-0.447-1.113-0.928-0.795
	c-0.479,0.318-0.67,0.54-0.606,1.399c0.061,0.792-0.177,3.169-0.394,4.665c-0.205,0.01-0.465,0.022-0.785,0.039
	c-0.02-7.883-6.901-16.618-12.471-20.602c-5.69-4.07-13.234-4.515-18.383-3.148c-5.146,1.368-7.574,4.643-8.055,5.469
	c-0.479,0.827-0.734,0.7-1.726,0.573c-0.992-0.128-5.181-0.605-8.983,0.445c-3.804,1.049-6.521,2.956-6.777,6.263
	c-0.734-0.349-3.164-1.081-7.256-0.636c-4.092,0.446-6.586,2.417-6.873,3.784c-0.287,1.367,0.606,1.59-1.438,2.226
	c-2.047,0.636-5.723,3.147-5.563,6.232c0.16,3.084,2.525,4.165,5.052,4.419c2.524,0.255,5.498-0.445,6.648-1.081
	c1.151-0.636,1.215-0.572,2.142,0.127c0.929,0.7,2.941,0.954,4.476,0.35c-1.311,1.622-2.397,3.688-2.109,5.342
	c0.084,0.482,0.244,0.927,0.5,1.332c-1.692,0.552-4.026,1.563-6.188,3.119c-3.006,2.162-5.308,5.818-1.976,8.299
	c3.333,2.48,9.454,0.922,11.629,0.159c2.175-0.763,3.483-1.24,6.17-1.685c2.685-0.446,4.507-1.527,5.944-2.48
	c1.416-0.938,2.559-0.312,5.425-1.563c-0.166,1.934,0.58,4.404,4.453,4.489c4.38,0.095,6.33-2.894,7.736-2.735s3.9,0.572,5.402-0.54
	c1.502-1.113,1.727-1.463,2.108-0.604c0.355,0.796,1.568,2.959,4.678,3.8c-0.776,0.188-1.519,0.399-2.198,0.64
	c-5.994,2.12-13.291,6.275-21.129,14.202c-7.84,7.928-13.722,14.753-15.811,20.01c-1.985,5-1.767,9.803,1.815,12.486
	c-8.162-0.032-25.342-0.09-35.703-0.043c-6.323-3.679-21.935-13.184-34.053-21.091c-13.384-8.733-26.938-19.756-39.041-29.167
	c-12.104-9.412-19.606-10.514-21.994-8.903c-2.387,1.611-0.682,5.681,2.898,10.175c3.581,4.493,12.787,12.887,16.025,17.381
	c3.24,4.494,0.598,5.766-5.626,2.459c-6.223-3.307-15.173-10.938-23.101-17.721c-7.928-6.783-34.609-26.453-45.436-33.915
	c-10.825-7.461-18.071-7.122-20.629-4.578c-2.558,2.543-3.239,7.885,1.619,14.922c4.859,7.038,14.577,15.177,20.203,20.773
	c5.626,5.596,16.111,17.467,10.144,20.519c-5.967,3.052-24.635-10.768-42.024-23.741c-17.39-12.972-40.747-32.049-49.868-38.069
	s-14.748-5.681-17.475-2.714c-2.729,2.968-2.814,7.038,4.347,17.128c7.161,10.089,15.856,19.501,23.783,28.319
	c7.928,8.818,13.043,15.77,15.429,19.416c2.387,3.646,2.046,4.748-4.432,3.052c-6.479-1.695-22.847-16.024-36.4-28.488
	c-13.553-12.464-54.641-43.242-62.569-49.008c-7.928-5.765-12.7-3.391-14.661,0.424c-1.962,3.816-0.342,11.023,9.718,23.656
	c10.059,12.634,17.39,17.212,30.772,32.219c13.273,14.884,27.39,29.936,49.656,47.303c-4.167,0.061-7.778,0.134-9.143,0.221
	c-3.005,0.191-2.622,1.399-3.069,4.833c-0.448,3.434-5.307,28.552-8.313,49.283c-3.005,20.73-4.154,47.183-3.771,69.505
	c0.384,22.32,4.092,39.361,10.485,54.369s15.088,22.701,28.77,30.648c13.682,7.949,30.944,7.379,36.314,7.695
	c5.371,0.318,14.258,1.525,32.798,1.146c18.541-0.383,46.096,1.018,74.035-3.563c27.938-4.578,46.862-16.152,62.591-28.871
	c15.728-12.717,31.968-34.91,40.79-51.063c5.383-9.855,9.43-20.135,12.889-29.818c6.332,1.441,33.332,5.08,47.017,5.02
	c14.129-0.064,25.382-1.846,36.25-10.492c10.869-8.65,16.879-24.803,18.479-37.773c1.598-12.973,0.256-31.668-1.918-42.352
	c-2.103-10.324-5.517-14.234-10.188-17.699c2.295-0.488,2.899-1.547,2.108-2.607c-0.853-1.145-4.092-0.806-9.205-1.018
	c-5.115-0.211-10.226-0.938-11.381-1.483c-0.673-0.318-2.132-1.993-9.42-10.387c-7.287-8.394-13.938-17.466-17.9-22.299
	c7.244,0.254,17.646-1.526,28.896-3.01c11.254-1.484,30.986-3.603,32.01-3.646c1.022-0.042,0.896,0.678,1.405,2.078
	c0.513,1.398,2.984,2.034,6.31,1.95c3.324-0.085,3.964-1.399,4.135-2.035c0.17-0.636,0.384-0.806,0.98-1.018
	c0.596-0.212,1.149-0.848,1.064-1.399c-0.086-0.551,0-0.805,0.979-1.06c0.979-0.254,1.406-1.102,1.107-1.611
	c-0.298-0.508-0.213-0.932,0.768-0.932s3.879-0.127,6.947-0.467C545.654,317.295,546.762,315.854,546.25,315.218 M459.639,296.554
	c-1.213,0.062-2.778,0.139-4.525,0.223c-3.791,0.182-7.11,0.511-9.1,1.012c-0.164-0.291-0.386-0.638-0.686-1.065
	c0.641,0.096,1.674-0.211,2.496-0.551c1.151-0.477,2.686-1.209,3.165-2.671c0.479-1.463-1.087-2.035-0.544-2.162
	c0.542-0.127,4.487-0.793,6.379-2.627C458.4,291.695,459.293,294.495,459.639,296.554 M441.128,311.297
	c-0.387-0.12-0.788,0.136-1.296,0.519c-0.927,0.699-2.363,1.685-4.763,1.494c-2.396-0.19-2.973-0.063-4.123,0.668
	c-1.149,0.731-2.59,2.003-5.211,1.685c-2.453-0.297-3.143-1.43-2.461-3.528c1.714-1.379,2.563-3.072,1.822-3.594
	c-0.992-0.7-1.695,0.254-2.924,1.558c-1.229,1.303-2.447,1.494-4.046,1.781c-1.599,0.286-2.015,0.286-3.772,1.621
	s-3.707,1.749-5.37,1.94c-1.662,0.19-3.933,0.89-6.841,1.844c-2.909,0.954-9.75,1.494-10.166-1.177
	c-0.414-2.671,4.636-5.119,9.783-6.868c6.647,2.099,9.652-0.54,9.621-1.653c-0.05-1.718-4.354-1.421-9.127-0.538
	c-0.238-0.188-0.464-0.393-0.654-0.638c-1.023-1.304,0.127-3.18,1.086-4.261s1.887-1.908,1.312-2.734
	c-0.574-0.827-2.109-0.223-3.932-0.032c-1.823,0.191-2.431-0.286-2.302-1.24c0.127-0.954-0.799-0.986-1.566-0.318
	c-0.767,0.668-1.95,1.304-4.284,1.749c-2.333,0.445-7.001,0.54-7.318-2.512c-0.32-3.053,3.516-4.706,5.4-5.342
	c1.887-0.636,2.493-1.367,1.854-1.844s-0.575-1.558,2.845-2.543c3.421-0.986,6.776-0.7,8.438-0.191
	c1.664,0.508,3.324,0.477,3.166-0.922c-0.16-1.398,0.096-2.512,2.877-3.943c2.779-1.431,7.479-1.717,10.355-1.272
	c2.878,0.445,3.005-0.509,3.996-1.971c0.991-1.463,4.028-4.261,10.166-4.674c6.137-0.413,11.763,0.954,17.358,6.518
	c2.271,2.26,4.035,4.724,5.373,7.108c-1.017,0.637-3.797,1.672-6.078,2.176c-2.301,0.509-3.58,0.668-3.611,1.272
	c-0.032,0.604,1.119,0.699,1.982,1.145c0.861,0.445,1.47,1.558-2.719,2.48c-0.826,0.182-1.236,0.436-1.309,0.796
	c-0.063-0.085-0.125-0.167-0.194-0.256c-1.758-2.289-4.952-3.911-6.809-2.479c-1.854,1.431-1.055,4.483,1.215,6.582
	c1.721,1.591,3.734,2.962,4.816,3.684c0.168,0.521,0.188,1.155-0.82,1.753c-1.342,0.795-3.102-0.096-3.676,0.731
	c-0.576,0.827,0.447,1.717,1.246,2.766C441.155,309.533,441.253,310.361,441.128,311.297 M449.84,341.714
	c0.213-1.017,0.426-1.187,2.045-1.017c0.084,0.008,0.174,0.017,0.264,0.025c7.998,6.728,25.039,20.816,26.546,22.231
	c0.743,0.698,1.194,1.297,1.479,1.945c-1.664,0.439-5.773,1.518-10.229,2.636c-0.488-0.841-0.917-1.585-1.267-2.206
	c-2.215-3.943-2.705-5.48-3.836-6.02c-2.217-1.06-15.94-6.868-17.943-7.589C448.262,348.328,449.626,342.732,449.84,341.714
	 M407.131,357.018c0.641-4.578,2.983-8.436,6.223-12.251c13.385,1.695,21.91,4.563,29.58,7.334
	c7.629,2.755,12.787,4.917,13.938,5.426c1.149,0.509,1.79,0.636,2.217,0.975c0.426,0.339,1.661,0.975,3.665,2.035
	c2.005,1.06,2.558,1.738,2.855,2.628c0.298,0.891,1.624,2.942,3.197,5.851c2.727,5.045,11.678,21.621,13,23.74
	c1.019,1.636,1.759,2.662,2.336,2.989c-0.813,0.198-2.047,0.716-3.871,1.378c-3.154,1.145-9.121,2.883-10.826,3.222
	c-1.705,0.339-2.771,0.678-3.58-0.467c-0.811-1.144-3.666-7.122-5.839-11.234c-2.175-4.112-3.112-4.282-4.773-6.656
	c-1.662-2.374-4.646-7.376-6.267-9.92c-1.619-2.543-3.196-4.239-3.836-5.554c-0.639-1.314-1.149-1.229-3.154-1.229
	c-1.934,0-18.122-0.158-28.176-0.093C408.824,362.867,406.52,361.397,407.131,357.018 M448.368,374.171
	c2.527,4.186,5.888,9.728,7.054,11.548c0.117,0.184,0.242,0.382,0.373,0.593c-2.387,0.662-11.234,3.117-15.287,4.227
	c2.387-8.959,3.44-14.938,4.854-21.354c0.207,0.343,1.141,1.893,2.367,3.927C444.549,373.911,442.945,375.128,448.368,374.171
	 M454.867,389.068c-0.597,1.229-3.408,8.182-4.049,9.963c-0.375,1.046-0.675,1.725-0.688,2.194
	c-0.104-0.051-0.215-0.104-0.334-0.159c-2.09-0.976-8.354-3.562-9.334-3.985c-0.68-0.293-1.289-0.338-1.72-0.145
	c0.41-1.45,0.816-2.912,1.218-4.383C441.86,392.142,451.092,390.13,454.867,389.068 M446.43,414.971
	c1.106,1.441,1.32,0.805,1.705,2.374c0.383,1.568,1.404,5.469,0.51,5.766s-3.366-3.35-4.73-5.385
	c-1.256-1.874-6.412-9.999-7.72-12.134c0.335-1.09,0.667-2.187,0.995-3.291C441.045,407.332,445.346,413.562,446.43,414.971
	 M444.383,420.736c2.174,3.01,3.666,4.75,5.114,3.52c1.449-1.23,0.128-6.063-0.682-9.413c-0.811-3.349-1.279-7.122-1.875-10.047
	c-0.598-2.925-0.428-3.052,0.938-2.416c1.363,0.636,1.833,0.763,2.388,0.975c0.554,0.212,1.193,0.254,1.363-0.424
	c0.084-0.335,0.146-0.556-0.063-0.812c0.331-0.127,0.627-0.52,1-1.308c0.618-1.309,4.049-10.412,4.675-12.075
	c1.775,3.039,3.796,6.627,4.445,7.242c0.896,0.848,2.047,3.222,3.07,4.918c1.021,1.696,2.428,1.526,4.006,1.145
	c0.598-0.145,1.662-0.381,3.021-0.707c0.249,0.823,0.325,1.214-1.104,2.021c-1.578,0.89-3.496,1.865-2.984,3.518
	c0.512,1.654,2.26,2.12,4.773,3.434c2.516,1.315,12.873,6.232,15.686,7.97c2.813,1.738,4.435,2.29,5.243,1.527
	c0.81-0.763,0.042-2.587-1.663-4.876c-1.704-2.289-5.924-8.012-7.586-10.259c-1.59-2.147-2.857-4.25-3.452-5.838
	c4.396-1.485,5.051-2.329,4.604-2.938c-0.119-0.161-0.299-0.234-0.552-0.236c0.086-0.802-1.474-4.089-4.534-9.981
	c10.368,0.041,14.02,5.567,15.271,13.355c1.278,7.948,1.151,23.208-4.923,30.142c-6.073,6.932-22.057,10.047-33.629,11.955
	c-11.572,1.906-27.363,4.068-32.861,4.896c-0.762,0.113-1.372,0.305-1.811,0.521c4.004-11.498,7.324-21.48,9.888-28.693
	c1.251-3.52,2.446-7.143,3.604-10.845C437.902,410.887,442.288,417.837,444.383,420.736 M484.575,412.724
	c2.345,1.314,3.111,0.636,3.111-1.145c1.236,1.399,4.729,6.274,4.305,6.698c-0.425,0.424-4.772-2.331-7.587-4.027
	c-2.813-1.696-12.402-6.105-13.894-6.783c-1.492-0.678-1.236-1.102-0.386-1.526c0.854-0.424,0.902-0.649,1.492-0.297
	C473.323,406.662,482.232,411.41,484.575,412.724 M393.258,505.482c-10.166,14.752-22.633,31.73-40.727,44.957
	c-18.093,13.229-39.318,22.639-67.002,25.373c-27.683,2.734-64.188,2.354-77.358,2.289c-13.171-0.063-34.652,0.637-47.886-5.342
	c-13.235-5.977-26.086-15.389-33.055-35.355s-8.631-39.107-8.375-58.631c0.255-19.521,1.342-47.313,4.348-67.151
	c3.005-19.841,5.882-37.074,6.073-42.606c32.351,0.127,103.061,0.063,126.524,0.127c23.463,0.063,80.492,0.382,95.517,0.254
	c15.023-0.127,82.857,0,91.808,0.064c-2.302,11.319-4.348,20.858-9.974,37.264c-5.626,16.407-12.979,37.2-17.965,50.556
	C410.199,470.634,403.424,490.73,393.258,505.482 M511.023,384.341c2.046,9.284,3.771,22.829,1.726,40.954
	c-2.046,18.123-7.479,28.678-17.197,37.199c-9.718,8.521-23.207,9.539-33.949,9.283c-10.559-0.25-35.938-2.895-46.693-4.072
	c1.902-5.402,3.638-10.596,5.33-15.385c0.548-1.551,1.083-3.074,1.607-4.58c0.39,0.166,1.088,0.238,2.164,0.127
	c3.709-0.381,8.056-0.889,9.653-0.57c1.599,0.316,9.206,0.443,24.103-2.162s28.388-5.404,34.718-13.607
	c6.329-8.203,8.312-21.559,6.647-33.322c-1.646-11.648-9.248-16.684-20.756-15.98c-2.38-4.36-5.128-9.038-7.242-12.654
	c1.125-0.25,4.803-1.063,9.535-2.054c0.131,1.903,0.387,4.611,2.074,5.103c1.748,0.509,2.303-1.187,2.432-2.289
	c0.127-1.102,0.297-2.204,0.767-3.01c0.142-0.244,0.173-0.472,0.122-0.641c0.466,0.133,1.308,0.226,2.605,0.302
	c1.729,0.101,5.588,0.127,9.006,0.041C504.393,368.621,509.023,375.263,511.023,384.341 M470.766,347.056
	c4.987,6.359,12.424,14.876,13.403,15.682c0.979,0.806,4.188,1.172,8.677,1.572c4.651,0.415,8.822,0.042,10.654,0.297
	c1.832,0.254,0.385,0.89-2.982,1.102c-3.368,0.212-8.354-0.042-10.784-0.127c-2.429-0.085-2.982-0.212-3.793,0.381
	c-0.233,0.171-0.341,0.313-0.314,0.433c-0.236,0.021-0.544,0.191-0.88,0.585c-0.938,1.102-1.106,1.992-1.149,2.925
	c-0.043,0.933-0.555,1.314-0.854,0.042c-0.298-1.271-0.128-5.129-2.813-7.715c-2.595-2.499-21.67-18.341-25.679-21.469
	c1.229-0.089,2.48-0.432,3.261-1.382c1.319-1.61,1.448-4.281-2.174-10.598c0.443-0.026,0.893-0.068,1.301-0.114
	C457.684,330.216,465.893,340.84,470.766,347.056 M542.799,316.575c-2.389,0.339-5.414,0.508-7.63,0.551
	c-2.218,0.042-2.218,1.229-1.833,1.78c0.383,0.551,0.129,0.763-0.683,1.103c-0.811,0.339-1.278,0.551-1.235,1.102
	c0.041,0.551,0.129,0.89-0.811,1.229s-0.979,0.848-1.066,1.569c-0.085,0.721-3.279,0.848-5.369,0.678s-2.516-1.102-3.111-2.586
	s-1.278-1.781-2.6-1.611c-1.322,0.17-22.249,2.544-31.67,3.688c-9.419,1.145-21.736,2.798-25.146,3.01
	c-0.357,0.023-0.7,0.044-1.033,0.066l3.758-9.443c23.207-0.29,45.144-0.382,63.938-1.348c5.326-0.274,13.554-0.806,15.515-0.764
	C545.781,315.642,545.186,316.235,542.799,316.575 M457.98,363.589c0.809,0.594,2.387,1.442,3.707,2.29
	c1.322,0.848,1.705-0.467,0.896-0.891c-0.81-0.423-2.557-1.314-4.007-2.077C457.127,362.148,456.571,362.557,457.98,363.589
	 M168.106,270.789c6.99,5.935,12.616,8.394,16.026,5.172c3.409-3.222-2.558-9.326-7.843-13.735
	c-5.285-4.409-10.4-5.342-12.531-2.968S162.323,265.879,168.106,270.789 M236.898,280.031c4.178,2.798,9.889,6.274,13.725,7.801
	c3.837,1.526,7.672-1.188,3.154-5.342c-4.518-4.155-16.794-14.584-21.141-10.598C230.741,273.629,232.721,277.233,236.898,280.031"
	/>
</svg>
