<?xml version="1.0" encoding="utf-8"?>
<!-- Generator: Adobe Illustrator 15.1.0, SVG Export Plug-In . SVG Version: 6.00 Build 0)  -->
<!DOCTYPE svg PUBLIC "-//W3C//DTD SVG 1.1//EN" "http://www.w3.org/Graphics/SVG/1.1/DTD/svg11.dtd">
<svg version="1.1" id="Layer_1" xmlns="http://www.w3.org/2000/svg" xmlns:xlink="http://www.w3.org/1999/xlink" x="0px" y="0px"
	 width="1287.128px" height="1295.761px" viewBox="0 0 1287.128 1295.761" enable-background="new 0 0 1287.128 1295.761"
	 xml:space="preserve">
<g>
	<path d="M550.525,154.667c-4.524,0.125-13.947,2.005-19.474,3.384c-4.554,1.136-12.941,3.134-18.218,5.139
		c-4.209,1.599-2.638,5.891,1.758,4.637c4.398-1.253,9.047-3.509,19.977-6.016c9.63-2.208,16.082-2.882,18.721-4.011
		C555.927,156.672,555.048,154.541,550.525,154.667 M494.929,304.513c7.915,7.521,22.238,19.742,28.457,23.69
		c6.219,3.948,7.916-0.376,4.523-3.761c-3.392-3.384-10.365-9.024-19.977-17.673c-9.61-8.649-22.803-21.621-31.66-31.21
		c-8.858-9.588-15.582-9.389-5.089,3.573C475.142,284.02,487.014,296.993,494.929,304.513 M459.813,482.186
		c-3.141,2.757-10.177,10.027-13.569,15.918c-3.393,5.891-6.408,10.028-8.167,14.163c-2.313,5.439,0,9.401,3.016,3.886
		c3.015-5.515,16.082-26.322,20.353-31.962C465.718,478.551,462.954,479.428,459.813,482.186 M435.313,103.653
		c3.015-1.881,8.041-7.521,9.925-13.537c-1.382,9.4-0.124,14.163,3.392,14.915c3.519,0.752,11.058-10.403,15.203-22.937
		c-2.386,13.787-0.629,23.063,3.896,24.566c4.523,1.505,9.297-5.64,10.05-9.024c0.754-3.384-2.387-4.136-4.397-1.003
		c-2.01,3.134-3.518,3.886-4.522-0.627c-1.006-4.512,0.124-20.055,3.516-32.338c0.271-0.981,0.53-1.912,0.781-2.821
		c0.544-0.108,1.082-0.214,1.607-0.313c15.328-2.882,25.128-1.879,24.248,0.627c-0.879,2.507-1.381,6.017,1.509,6.017
		c2.889,0,7.161-6.894,5.402-10.905c-1.759-4.011-8.292-6.393-18.973-4.512c-2.846,0.501-7.037,1.262-11.867,2.199
		c1.765-6.258,2.916-10.127,3.701-12.477c1.131-3.385-3.015-5.766-5.402,0c-1.108,2.676-2.923,8.008-4.925,13.797
		c-3.865,0.791-7.912,1.659-11.871,2.573c1.604-5.821,3.169-11.262,3.855-13.487c1.006-3.259-3.392-5.39-5.403,0.5
		c-1.042,3.057-2.494,8.345-4.278,14.383c-6.27,1.568-11.919,3.214-15.698,4.795c-6.864,2.872-5.025,8.649-0.502,7.145
		c1.995-0.664,7.294-2.297,13.813-4.144c-1.053,3.289-2.182,6.616-3.386,9.784c-4.523,11.908-8.543,22.687-15.077,19.804
		c-2.826-1.246-4.522,1.003-4.02,5.014C426.393,105.658,432.298,105.532,435.313,103.653 M454.411,65.924
		c0.051-0.195,0.105-0.396,0.156-0.593c3.735-1.008,7.632-2.011,11.389-2.9c-1.544,4.333-3.077,8.436-4.383,11.39
		c-3.77,8.523-8.795,22.687-10.68,21.684C449.008,94.502,452.275,74.072,454.411,65.924 M450.013,169.331
		c-2.889-1.378-7.036-7.018-8.795-13.662c-1.758-6.643-5.528-19.052-16.333-17.924c-10.806,1.128-9.046,13.537-2.387,20.557
		c3.333,3.514,7.915,1.127,4.774-2.758c-3.141-3.886-5.78-11.03-1.884-13.161c3.894-2.131,9.548,8.022,11.307,14.916
		c0.259,1.015,0.546,1.974,0.847,2.901c-2.064,0.154-4.155,1.521-4.868,3.742c-1.004,3.133,1.759,5.389,3.016,3.008
		c0.961-1.82,2.068-2.683,3.322-2.879c1.538,3.446,3.403,6.112,5.473,8.018c3.266,3.008,8.292,3.384,9.423,1.504
		C455.039,171.713,452.902,170.711,450.013,169.331 M1274.327,1261.518c-0.201-5.686-2.813-69.859-5.628-105.399
		c-2.813-35.539-9.447-147.64-14.672-184.397c-5.228-36.758-13.869-81.639-25.528-99.916c-8.833-13.849-16.047-20.346-21.474-23.656
		c8.816,0.066,15.517,0.099,17.052,0.099c3.818,0,8.241-1.016,9.246-6.498c1.005-5.483,2.612-15.028,3.015-18.685
		c0.148-1.34-0.168-2.267-0.86-2.907c2.749-0.348,5.089-0.698,6.884-1.053c15.265-3.008,21.106-10.904,16.018-19.741
		c-5.088-8.836-17.149-7.896-26.008-7.896c-8.857,0-53.521-3.008-90.271-8.836s-62.945-16.733-72.181-20.869
		c-9.234-4.137-11.873-5.641-14.51-9.401c-2.64-3.761-14.134-13.725-30.908-43.056c-16.773-29.33-21.862-49.071-30.341-74.641
		c-8.481-25.569-29.212-87.801-38.823-118.824c-9.612-31.022-19.978-57.908-30.343-74.829s-34.676-18.99-52.769-4.701
		c-18.092,14.29-72.179,64.489-126.833,113.936c-54.652,49.448-138.141,131.422-164.337,155.863c0,0-9.8-13.348-17.15-26.321
		s-18.469-35.722-27.892-55.087c6.596,2.82,21.108,4.7,23.369,1.503c2.262-3.195-0.376-7.144-2.073-11.092
		c-1.696-3.949-0.566-5.64-3.958-13.349c-3.392-7.708-9.045-25.946-15.453-53.02c-6.03-25.475-10.054-46.622-11.608-67.825
		c0.518-1.96,1.01-4.511,1.619-7.756c2.828-15.041,8.858-23.501,15.83-28.766c6.974-5.264,13.004-9.401,11.874-18.613
		c-1.131-9.212-10.554-16.734-15.454-19.366c-4.899-2.632,17.15-8.085,29.777-10.34c7.148-1.278,19.548-3.4,29.033-7.661
		c35.447,17.735,136.155,56.78,153.459,63.438c17.589,6.769,42.466,16.044,44.729,13.036c11.684,7.646,10.176-9.276,7.664-20.808
		c-2.514-11.531-10.933-31.335-22.114-58.284c-11.182-26.948-31.535-75.957-38.571-93.63c15.328-11.156,20.731-23.314,21.611-25.444
		c0.879-2.131,3.265-3.761,7.788-7.396c4.523-3.635,26.512-23.94,36.185-34.093c9.675-10.153,13.946-18.425,10.931-22.06
		c-3.015-3.635-8.795,0.501-14.071,4.387c-5.277,3.886-27.39,20.807-47.617,37.603c18.971-21.934,11.181-33.591,5.528-33.967
		c5.652-7.646,8.041-15.041,5.401-19.679c-2.639-4.638-10.05-5.766-17.087-1.253c1.131-4.889-3.895-9.652-11.056-7.271
		c-5.008,1.666-10.447,5.421-16.358,10.61c0.153-1.241-0.097-2.733-0.979-4.216c-2.765-4.639-6.156-5.14-11.686-3.134
		c-5.526,2.006-19.851,7.521-31.912,12.785c-4.637,2.022-9.755,4.325-14.665,6.569c-5.246-5.287-5.234-15.391,7.063-24.681
		c13.193-9.965,44.477-4.137,64.265-10.153c19.789-6.016,20.919-19.365,15.077-26.322c17.716-3.008,21.861-22.185,2.638-30.458
		c14.136-3.572,32.604-14.289,33.17-32.338c0.565-18.049-16.207-37.979-57.479-34.783c-40.264,3.118-56.162,30.082-52.958,49.448
		c2.932,17.72,13.757,23.878,21.484,27.638c7.297,3.551,16.02,5.64,13.192,12.784c-2.827,7.145-22.804,15.229-33.923,18.426
		c-11.119,3.196-26.195,4.512-31.661,19.177c-5.351,14.357,2.428,27.628,14.073,33.59c-5.847,2.704-10.994,5.14-14.073,6.646
		c-6.408,3.134-10.177,6.267-6.784,7.02c-1.509,0.25-1.885,1.378-0.252,4.261c1.572,2.773,14.764,26.649,18.338,32.812
		c0.976,11.355,4.913,27.221,11.188,36.502c7.286,10.779,21.986,13.537,35.304,13.036c0,0,2.514,12.785,7.664,27.074
		c5.151,14.289,17.087,41.237,23.244,53.27c3.451,6.746,9.312,17.746,14.569,27.215c-2.834-1.76-7.374-4.147-15.826-8.664
		c-14.072-7.521-53.774-27.952-78.776-40.611c-23.184-11.739-69.59-33.283-76.215-36.354c19.81-9.414,52.7-17.319,66.415-20.739
		c14.323-3.573,14.323-18.614,2.827-25.382c-11.103-6.537-38.202-14.652-59.566-20.62c-0.387-6.734-0.736-15.316,1.333-20.555
		c16.395,11.469,39.575,15.041,42.214,5.828c2.638-9.212-9.234-15.229-23.369-18.613c11.308-2.256,19.977-9.965,18.092-16.733
		c-1.885-6.769-9.988-7.897-16.207-6.581c-6.22,1.316-17.527,5.077-21.108,6.393c-3.581,1.316-4.9,1.88-6.03-0.189
		c-1.131-2.067-4.335-6.956-8.67-14.101c-0.984-1.622-2.003-2.775-2.946-3.55c2.716,0.07,5.599,0.15,8.6,0.355
		c13.758,0.94,28.081,2.256,34.299,2.444c6.219,0.187,6.031-4.513,0.944-6.957c-5.089-2.443-15.643-7.896-25.632-14.853
		c-9.988-6.957-18.657-13.725-23.369-18.613c-4.711-4.888-4.145-8.085-2.637-12.785c1.506-4.7,2.449-15.041,2.637-21.433
		c0.049-1.675-0.256-2.97-0.745-3.833c7.047-4.509,32.919-25.736,39.945-31.89c7.726-6.768,34.865-31.21,26.95-41.74
		c-8.978-11.942-36.562,4.138-50.507,13.914c-4.159,2.915-10.467,7.992-17.489,13.894c-2.298-22.734-20.849-52.269-46.399-60.521
		c-26.197-8.461-58.045-1.692-90.461,17.297c-32.414,18.989-55.972,53.584-51.26,94.571c4.558,39.657,23.142,77.113,36.122,100.789
		c-4.482,0.006-8.677,0.191-12.566,0.55c-17.839,1.648-22.357,10.085-16.982,19.74c-6.963-3.596-13.885-7.094-19.767-9.964
		c-17.338-8.46-38.634-18.237-55.972-8.46c-17.339,9.776-20.92,34.406-21.108,75.769s7.161,119.576,12.438,158.684
		c5.277,39.106,18.658,111.679,24.689,143.453c6.03,31.774,18.28,88.93,21.484,116.944c3.204,28.014-2.073,27.263-16.584,30.459
		c-14.512,3.195-73.688,11.468-89.33,15.041c-15.642,3.571-25.442,13.159-26.762,26.133c-1.192,11.729,4.077,20.214,7.05,23.82
		c-4.887,5.454-9.375,11.83-11.94,19.791c-32.997,26.572-91.192,82.676-135.511,158.315c-45.608,77.837-56.162,124.089-58.8,158.683
		c-2.638,34.595,0.754,63.549,10.554,78.966c9.8,15.416,14.322,34.971,37.315,44.371c22.992,9.4,64.076,15.793,134.936-24.441
		c70.862-40.235,159.814-119.577,214.09-210.575c54.277-90.998,59.177-166.955,54.654-202.678
		c-4.471-35.306-31.777-71.689-74.986-76.166c0.046-4.128-0.132-8.74-0.523-13.955c-1.93-25.753-15.441-114.579-20.518-145.588
		c1.569,0.77,3.686,1.796,6.509,3.137c3.958,19.741,19.034,64.676,33.357,95.886c14.323,31.21,27.515,56.028,36.562,60.54
		c59.742,85.547,138.33,57.908,178.471,44.184c40.142-13.726,76.326-32.902,113.641-54.147
		c37.316-21.246,60.873-35.347,79.153-46.251c-10.176,12.22-25.63,56.403-33.734,80.845c-8.103,24.442-24.688,95.511-35.241,145.146
		c-10.555,49.636-14.889,103.972-15.266,110.552c-0.377,6.581-10.742,11.093-19.412,18.238c-8.669,7.144-11.307,14.288-9.045,20.305
		c2.262,6.018,7.914,14.289,13.758,21.811c5.842,7.52,9.234,15.417,21.106,35.157c11.873,19.741,22.051,44.747,26.385,59.412
		s3.393,24.442,9.234,31.963c5.843,7.521,17.904,9.776,33.358,10.34c15.453,0.564,49.564-0.563,57.103-0.939
		c7.539-0.376,10.176-4.324,7.727-10.153c-2.449-5.828-10.177-11.092-23.745-17.86c-13.57-6.769-32.228-9.589-33.358-11.094
		c-1.13-1.504-16.773-37.602-25.63-64.112c-8.858-26.51-12.815-39.106-14.889-55.463c-2.073-16.357,0.755-32.151,3.016-44.372
		c2.262-12.221,6.784-27.638,18.469-65.24c11.684-37.604,29.777-97.578,42.027-134.429c12.249-36.852,31.283-79.719,47.302-119.014
		c16.021-39.295,16.585-55.651,9.048-70.316c-7.539-14.666-29.966-17.861-55.219-12.972c-25.254,4.888-71.803,16.92-102.9,25.004
		c7.728-6.956,50.886-45.687,77.457-71.257c26.574-25.57,52.77-50.199,71.428-69.001c3.392,6.205,19.787,42.868,31.472,69.941
		c11.685,27.074,26.008,53.96,42.215,84.795c16.207,30.833,41.084,66.932,43.345,70.504c2.262,3.572,1.32,6.205,3.204,16.545
		c1.885,10.341,1.697,32.151,2.263,41.739c0.248,4.213,0.302,8.989,0.682,13.465c-29.32,0.027-56.007,0.086-63.069,0.271
		c-4.822,0.127-6.23,1.827-6.23,6.904c0,5.078,0,14.825-0.201,17.668c-0.201,2.844,1.005,4.266,6.432,4.266
		c1.868,0,13.702,0.096,29.669,0.229c-12.254,6.501-25.458,23.563-32.684,47.9c-7.839,26.4-14.473,59.706-18.291,106.009
		c-3.819,46.302-10.251,130.378-12.864,155.56c-2.613,25.183-5.427,70.267-5.829,85.092c-0.402,14.824-0.201,19.698-0.201,22.947
		s0.805,4.671,5.227,4.874s5.829,0,9.045-0.203c3.216-0.202,4.623-1.015,4.824-7.92c0.201-6.904,2.612-68.031,9.246-127.129
		c6.632-59.097,14.069-140.532,28.742-188.256c14.674-47.725,30.352-65.393,43.818-72.095c13.467-6.701,25.729-5.888,34.974-6.092
		c9.246-0.203,12.06-0.813,14.07-2.438c2.01-1.625,2.612-4.467,2.411-9.544c-0.117-2.975-0.372-6.012-0.564-8.021
		c3.886,0.028,7.432,0.055,10.553,0.076c-2.688,5.647-5.028,18.167-3.756,41.656c1.405,25.995,3.015,77.983,4.422,122.864
		c1.405,44.881,5.226,126.52,6.029,154.545c0.805,28.025,5.025,104.79,5.025,110.679c0,5.891,1.005,7.718,4.824,7.718h9.446
		c1.608,0,3.217-3.047,3.217-9.139s1.607-64.783,2.813-95.448c1.207-30.665,5.428-117.179,6.232-147.031
		c0.803-29.853,4.02-107.836,4.623-124.896c0.603-17.058,1.406-36.96,0.603-45.896c-0.613-6.812-1.696-12.081-3.688-15.105
		c4.919-0.034,9.81-0.074,14.593-0.109c-0.167,1.756,0.149,4.423,0.149,7.497c0,4.874,0,11.373,3.818,11.779
		c3.819,0.406,27.337-1.015,45.426,6.093c18.09,7.107,31.559,27.213,42.813,63.768c11.256,36.555,19.296,87.73,23.114,121.442
		c3.819,33.711,9.649,100.322,11.859,125.707c2.211,25.386,4.223,53.41,4.623,63.564c0.402,10.154,0.604,14.825,0.804,17.262
		c0.201,2.438,2.011,4.671,5.227,4.671s7.638,0.203,10.251,0S1274.527,1267.204,1274.327,1261.518 M765.369,218.215
		c2.764,2.883-2.512,15.919-13.443,26.698c-10.931,10.779-21.862,19.428-24.248,17.422c-1.364-1.145-1.077-3.661,0.387-6.862
		c2.825-2.607,6.088-1.542,6.523,0.846c0.502,2.758,3.895-1.379,2.889-4.888c-0.568-1.985-3.024-2.775-5.994-1.761
		c1.164-1.671,2.5-3.4,3.985-5.134c6.658-7.77,16.709-19.552,20.354-23.563C759.463,216.962,762.605,215.332,765.369,218.215
		 M765.62,195.027c2.764,3.76-4.774,13.537-14.071,21.057c-3.333,2.697-7.441,5.487-11.423,7.817
		c0.997-5.18-2.124-10.145-8.001-7.96c3.141-4.005,7.111-8.371,11.509-12.266C754.816,193.774,762.857,191.266,765.62,195.027
		 M735.657,226.344c-5.271,2.659-9.606,3.979-10.492,2.399c-0.459-0.816,0.463-3.17,2.385-6.313
		C733.238,218.369,736.203,219.906,735.657,226.344 M736.597,192.144c7.287-4.638,10.681-3.134,11.308-0.752
		c0.628,2.382-5.779,7.02-15.705,14.79c-3.016,2.361-6.272,4.512-9.335,6.305c0.22-2.778-1.498-5.124-4.036-5.652
		C724.826,201.052,732.446,194.786,736.597,192.144 M719.194,214.52c-5.303,2.76-9.27,4.034-8.981,2.817
		c0.334-1.406,2.143-3.778,4.705-6.537C718.058,210.133,719.288,211.522,719.194,214.52 M660.846,199.196
		c-6.328-3.265-11.376-7.48-9.495-17.33c2.262-11.845,15.076-15.793,26.385-18.802c14.513-3.86,34.816-9.33,40.707-21.245
		c6.783-13.725-0.943-18.425-12.627-24.818c-11.685-6.392-21.484-12.784-20.354-27.262c1.131-14.477,16.986-29.667,44.854-33.278
		c29.022-3.761,51.448,9.401,50.507,25.382c-0.942,15.981-24.5,24.817-32.98,26.886c-8.48,2.068-7.916,7.708-0.377,8.272
		c7.538,0.564,15.453,6.017,14.7,13.537c-0.755,7.521-16.02,8.272-23.936,9.589c-7.914,1.316-9.987,1.504-11.118,5.64
		c-1.132,4.137,3.016,3.009,9.046,1.881s7.35-1.881,10.931,3.196c3.581,5.076,0.565,7.708-12.25,12.033
		c-12.815,4.323-42.781,1.128-61.249,12.408C661.575,182.624,659.613,191.869,660.846,199.196 M658.351,249.161
		c-3.165-6.342-11.072-21.09-14.853-28.188c2.136-0.377,14.825-6.644,25.881-11.782c11.057-5.139,36.813-15.543,42.216-17.423
		c5.402-1.881,6.659,0.501,9.423,3.76c0.404,0.477,0.821,0.764,1.231,0.922c-1.552,1.45-3.134,2.982-4.75,4.593
		c-9.045,9.025-13.82,18.3-10.804,21.685c3.015,3.384,10.679,1.128,16.333-3.134c-2.137,2.882-4.774,10.027-1.383,13.411
		c3.393,3.385,11.685,2.507,18.972-2.256c-17.714,17.924-21.861,32.715-16.333,36.976c5.527,4.262,12.94-2.381,20.855-9.149
		c-6.91,12.032-21.358,23.313-35.807,24.942c-14.448,1.63-20.981-4.888-23.62-9.651s-2.639-6.769-5.277-8.398
		s-2.513-6.768-2.639-13.788c-0.125-7.019-2.764-14.038-8.92-14.665C663.59,236.478,659.424,240.852,658.351,249.161
		 M669.003,248.297c0.125,4.011-1.634,7.395-3.644,8.524c-2.011,1.128-2.883-0.525-2.011-4.638
		C664.732,245.665,668.877,244.286,669.003,248.297 M749.52,401.074c-1.057-2.017-2.14-4.099-3.249-6.252
		c-9.423-18.3-14.824-30.333-21.609-47.003c-6.784-16.671-13.318-38.229-13.946-43.368s-2.387-4.513-7.79-3.009
		c-5.402,1.504-15.579,1.379-24.876-6.642c-9.297-8.023-12.689-21.058-15.203-30.835c5.277-0.627,8.544-4.011,10.052-8.398
		c0.754,16.546,7.538,25.444,19.223,30.583s29.525,0,40.205-5.765c10.68-5.766,16.584-16.169,17.715-18.3s1.885-3.635,4.396-5.39
		c2.514-1.755,31.788-26.196,39.578-32.213c7.788-6.016,19.349-16.294,20.479-15.166c1.131,1.128-7.663,10.779-13.694,16.796
		c-6.031,6.016-29.902,27.199-33.42,29.956c-3.518,2.758-4.9,5.139-6.031,8.148c-1.131,3.008-3.141,5.766-7.664,10.403
		c-4.522,4.638-10.931,12.785-14.071,15.292c-3.142,2.506-3.644,3.259-2.388,6.643c1.257,3.384,16.082,41.739,28.897,69.941
		c4.516,9.937,8.857,20.043,12.815,29.572C771.63,403.545,756.766,404.86,749.52,401.074 M680.059,385.672
		c21.484,10.78,68.474,35.221,72.117,36.976c0.941,0.453,1.703,0.593,2.276,0.512c2.379,4.143,4.39,7.484,5.639,9.265
		c4.398,6.267,7.414,2.632,5.403-1.504c-1.554-3.2-6.576-12.117-13.13-24.457c8.449,3.811,20.43-0.08,28.457-5.839
		c6.418,15.632,11.656,29.294,14.699,37.441c5.152,13.787,5.152,21.934,3.896,24.817c-1.634-2.507-8.543-4.011-15.203-6.267
		c-6.659-2.256-31.284-11.281-61.438-22.687c-29.867-11.298-72.313-29.362-118.538-48.339c4.528-2.928,7.603-6.621,7.724-11.324
		c0.376-14.665-30.531-23.877-44.288-26.322c-13.427-2.385-10.331-6.385,7.87-15.839
		C584.571,339.416,659.048,375.13,680.059,385.672 M566.921,164.631c5.277,5.828,23.369,17.673,40.707,27.826
		c-9.235-1.88-27.139-1.88-34.3-1.692c-7.162,0.188-12.815-0.376-13.757-3.196c-0.942-2.821,4.146-4.888,7.726-4.888
		c3.581,0,9.8-0.189,9.423-2.821c-0.376-2.632-4.522-3.76-10.742-2.82c-6.218,0.94-15.077,5.828-12.627,12.597
		c1.658,4.577,7.46,5.283,15.293,5.553c-0.169,0.905,0.226,2.346,1.481,4.223c1.884,2.821,6.595,10.718,8.668,13.726
		c2.074,3.008,2.639,5.64,6.974,6.581c4.334,0.939,12.249-2.633,18.28-4.137c6.031-1.505,15.454-4.136,15.265,0.376
		c-0.189,4.512-12.25,7.708-21.107,8.648c-8.857,0.941-8.104,6.017-5.465,7.521c2.637,1.504,10.554,2.821,20.73,6.204
		c10.176,3.385,17.715,8.085,11.12,8.837c-6.597,0.752-20.732-5.264-31.097-10.153c-9.506-4.483-10.293,13.014-9.049,25.082
		c-22.44-6.156-64.98-16.948-99.126-25.646c-25.776-6.565-47.94-9.833-65.954-10.41c-0.859-1.586-2.206-3.993-4.154-7.263
		c5.937-2.914,14.607-8.366,22.427-14.007c7.821-5.64,15.737-14.477,17.339-16.169c1.602-1.691,3.015-3.196,1.131-3.76
		c-1.886-0.564-5.371-1.128-12.533-5.265c-7.162-4.136-16.207-10.058-24.311-22.373c-8.55-12.992-6.075-19.042-1.319-22.091
		c5.276-3.385,13.191-2.069,22.143,5.264c8.952,7.332,18.375,23.595,20.825,27.355c2.45,3.761,3.769,3.103,4.807,5.171
		c1.035,2.068,3.674,1.128,5.275-2.821c1.634-4.023,8.482-24.629,12.438-35.534c11.579-3.737,66.223-11.463,79.03-13.613
		c-0.363,0.937-0.656,2.135-0.818,3.649c-0.565,5.264-1.32,20.116-2.639,24.065C557.686,152.598,561.645,158.803,566.921,164.631
		 M584.259,66.301c22.803-16.546,41.272-20.118,42.968-16.169c1.697,3.948-6.218,15.04-20.353,28.765
		c-14.134,13.725-40.519,35.159-44.664,36.099c-1.899,0.43-20.702,3.698-43.316,7.582
		C528.637,112.674,562.998,81.727,584.259,66.301 M407.107,142.822c0,0-3.392,0.564-17.338,4.136
		c-17.716-56.78,12.25-88.93,40.519-108.86c28.269-19.929,64.83-26.885,86.502-18.049c21.177,8.634,35.137,28.963,42.271,59.178
		c-15.075,12.917-31.414,27.686-36.617,32.761c-5.412,5.279-8.506,9.475-8.481,11.438c-25.697,4.408-54.947,9.385-69.729,11.875
		C425.764,121.2,408.993,127.593,407.107,142.822 M406.542,231.188c14.887,0,41.084,5.076,67.468,11.657
		c26.384,6.58,63.699,16.545,115.714,30.458c52.015,13.913,58.045,21.058,57.292,24.253c-0.754,3.197-10.365,5.641-33.922,11.846
		c-23.558,6.204-45.231,15.793-55.785,24.065c-10.554,8.273-8.669,19.177,11.685,23.502c20.353,4.324,33.357,12.597,33.734,16.733
		c0.377,4.136-4.712,7.521-23.369,12.221c-18.658,4.7-32.415,7.708-42.404,12.408c-9.988,4.701-7.726,11.846,2.262,17.298
		c9.988,5.452,11.684,13.537,0.565,20.681c-11.119,7.146-17.715,20.494-20.73,33.091c-15.266-25.194-24.876-46.063-33.923-66.745
		c-9.046-20.682-38.634-87.99-46.926-107.919c-8.293-19.93-10.742-24.443-20.542-30.271c-5.385-3.202-15.778-8.846-26.924-14.684
		C378.645,233.829,392.592,231.188,406.542,231.188 M221.852,825.309c1.366,1.534-0.529,7.835-6.08,9.989
		C214.324,834.205,217.572,830.268,221.852,825.309 M214.313,864.98c10.006-7.71,20.033-14.944,29.619-21.522
		c7.36,5.226,16.089,6.046,18.815-1.604c8.842,3.595,16.107-5.021,10.2-17.206c2.418-1.47,4.751-2.861,6.984-4.168
		c-1.254,18.351-7.532,86.24-10.713,109.678c-2.661,19.599-6.153,38.86-7.359,45.338c-5.811,0.202-11.88,2.597-18.021,8.058
		c-0.538,0.479-1.056,0.965-1.575,1.451c-4.733-10.945-20.955-48.387-27.573-62.869c-6.466-14.149-14.831-33.468-18.208-41.924
		C202.449,874.652,208.409,869.531,214.313,864.98 M248.562,840.308c1.817-1.225,3.616-2.427,5.39-3.6
		C260.768,842.348,256.921,846.324,248.562,840.308 M258.439,833.773c2.221-1.441,4.403-2.837,6.533-4.181
		C272.507,836.346,267.861,840.976,258.439,833.773 M304.648,811.585c11.056,0,22.112-2.508,33.672-3.009
		c4.642-0.201,9.896-0.373,15.267-1.126c-8.894,17.858-40.407,83.395-52.206,107.918c-10.685,22.209-27.67,54.233-31.409,61.256
		c-0.673-0.21-1.353-0.393-2.037-0.546c4.216-28.949,9.667-81.762,12.088-101.321c2.082-16.828,3.645-46.894,4.12-56.704
		c5.556-3.159,10.348-5.691,14.167-7.517C300.126,811.173,302.239,811.585,304.648,811.585 M299.541,802.957
		c-0.143-2.896,2.65-5.33,5.233-5.474c3.077-0.171,6.281,1.694,7.138,5.824C307.365,803.233,303.067,803.081,299.541,802.957
		 M246.854,1030.181c11.308-1.002,14.574-11.28,8.293-17.297c12.061-5.264,11.558-18.801,2.764-21.058
		c5.779-3.76,13.066,0.502,13.066,12.785s-15.83,37.603-32.164,36.852C243.085,1040.46,248.362,1034.943,246.854,1030.181
		 M192.688,883.804c4.411,13.573,12.578,34.236,19.489,49.864c6.451,14.589,20.99,47.331,25.052,56.477
		c-5.936,6.584-10.272,13.329-13.221,18.533c-6.256-3.271-20.308-10.612-30.928-16.099c-13.795-7.127-45.451-24.368-63.736-34.963
		C148.739,931.775,170.675,904.988,192.688,883.804 M106.514,989.068c6.039-8.573,12.546-17.627,19.395-26.85
		c7.137,5.369,30.764,18.305,44.054,25.597c12.628,6.93,41.812,21.94,50.965,26.638c-2.201,4.409-3.871,8.562-4.903,12.424
		c-8.74,1.977-42.987,9.274-60.385,13.332c-18.851,4.396-67.03,16.643-91.106,23.298C76.73,1036.382,91.62,1010.215,106.514,989.068
		 M39.046,1141.735c3.925-22.474,12.109-47.337,22.611-71.694c9.145-1.656,44.671-11.055,55.536-13.538
		c12.062-2.758,49.754-10.529,67.594-14.038c14.249-2.803,25.926-5.924,30.053-7.067c0.057,3.705,1.003,7.018,3,9.88
		c-19.419,15.644-65.594,52.603-87.329,70.388c-22.363,18.3-55.281,48.633-67.594,60.164c-9.329,8.736-20.959,19.341-25.396,24.514
		C34.035,1183.797,35.061,1164.559,39.046,1141.735 M71.084,1248.903c-18.216-12.76-28.446-27.615-32.923-45.776
		c3.903-1.671,12.756-8.134,30.787-24.039c23.871-21.057,43.22-38.606,76.137-64.928c29.416-23.521,68.036-55.029,78.437-63.618
		c0.237,0.149,0.47,0.301,0.717,0.446c2.928,1.719,5.924,2.826,9.056,3.235c-8.153,16.412-31.804,67.931-46.246,95.784
		c-14.785,28.516-47.929,92.7-53.947,102.507C108.508,1259.966,87.042,1260.082,71.084,1248.903 M232.783,1199.644
		c-31.449,21.35-62.62,39.669-90.388,49.766c17.905-31.21,39.892-74.364,52.947-100.905c12.08-24.557,39.045-81.495,45.641-94.673
		c5.758-1.305,12.081-4.894,19.31-11.256c1.875,5.027,6.478,17.16,10.936,27.215c5.626,12.689,21.489,52.216,30.672,72.575
		C280.995,1163.386,258.451,1182.219,232.783,1199.644 M306.225,1137.955c-3.185-8.858-11.275-29.023-17.909-46.105
		c-6.935-17.854-20.234-47.608-23.071-53.927c0.189-0.188,0.379-0.381,0.567-0.572c7.908,4.62,56.17,32.881,83.477,50.461
		C335.367,1105.901,321.197,1122.517,306.225,1137.955 M388.827,1031.937c-11.911,18.059-23.613,34.834-35.452,50.518
		c-14.36-9.076-65.287-39.894-82.748-50.19c0.613-0.678,1.233-1.37,1.858-2.083c3.213-3.657,5.76-7.227,7.756-10.677
		c6.966-1.535,24.568-5.517,35.464-8.876c13.6-4.194,68.795-18.823,99.285-27.888
		C407.976,999.323,399.349,1015.983,388.827,1031.937 M419.088,972.595c-18.085,5.441-108.597,30.998-134.533,37.195
		c1.082-3.497,1.597-6.803,1.649-9.862c11.016-8.92,56.184-46.004,74.73-60.494c20.304-15.863,60.365-48.588,80.788-67.426
		C440.136,897.898,433.729,934.611,419.088,972.595 M441.219,844.299c0.601,4.036,0.93,9.33,0.912,15.64
		c-7.217,7.191-47.463,41.984-66.371,56.683c-18.991,14.764-68.464,55.834-90.72,74.651c-1.677-5.526-4.951-9.621-8.536-11.729
		c-0.103-0.062-0.209-0.112-0.313-0.172c11.74-21.899,36.177-70.926,46.298-92.08c9.404-19.658,32.975-70.368,37.997-81.18
		c5.722-1.462,11.344-3.891,16.279-8.063c3.247-2.747,5.86-5.594,7.894-8.861C409.797,791.794,437.172,817.145,441.219,844.299
		 M367.667,594.864c-4.733-28.885-12.645-80.873-17.536-132.232c-5.277-55.401-5.528-73.701-6.283-89.243
		c-0.113-2.338-0.203-4.795-0.283-7.285c2.95-1.103,7.957-6.482,11.214-12.143c3.895-6.768,7.287-16.044,7.413-18.3
		c0.125-2.257-5.905,7.771-9.926,14.164c-3.497,5.56-6.423,9.125-8.862,10.867c-0.348-12.279-0.644-23.847-2.32-24.405
		c-2.633-0.875-4.271,30.583-3.517,52.393s5.277,91.751,12.061,139.13c6.784,47.38,16.584,105.037,21.61,137.124
		c5.025,32.088,11.559,78.966,11.81,87.489c0.251,8.524-0.251,11.281,0.754,15.042c1.005,3.759,0.754,20.555-9.298,27.324
		c-10.051,6.768-39.953,8.272-53.02,8.522c-1.668,0.032-3.356,0.043-5.039,0.04c0.093-7.021-4.976-10.738-9.598-10.568
		c-5.087,0.188-9.046,2.257-10.176,9.024c-3.204-1.691-2.451-3.948-0.189-6.204c2.262-2.257,8.292-5.076,16.019-5.64
		c7.727-0.565,15.077-4.513,19.034-8.461c3.958-3.949,12.062-8.649,16.02-11.093c3.957-2.444,2.827-5.265-3.016-3.385
		c-5.842,1.881-13.192,7.521-18.657,12.032c-5.465,4.513-9.235,4.701-18.281,6.205c-9.046,1.504-12.25,4.512-15.642,8.084
		c-3.392,3.573-6.973,3.009-16.961,5.642c-9.988,2.632-21.862,13.725-30.154,20.869c-6.58,5.67-14.107,10.975-20.609,13.773
		c2.785-4.383,3.384-10.029,0.176-11.257c5.922-6.737,14.447-16.023,23.261-24.326c10.176-9.589,28.833-14.478,34.676-15.793
		c5.842-1.316,11.684-2.069,15.642-4.701s2.073-4.324-3.581-3.384c-5.653,0.939-12.438,3.572-20.354,5.076
		c-7.916,1.504-14.135,3.009-21.485,7.521c-4.866,2.988-11.629,9.847-17.725,16.162c-5.758-7.627-2.222-14.937,4.345-17.666
		c6.784-2.82,33.357-8.46,42.403-9.964c9.046-1.505,6.973-4.889-1.319-3.761c-8.293,1.128-28.269,4.512-43.157,10.528
		c-14.798,5.979-12.652,20.685-7.63,26.401c-1.103,1.128-2.151,2.183-3.113,3.117c-0.69,0.67-1.386,1.357-2.083,2.055
		c-2.075-2.659-5.715-7.659-6.021-17.097c-0.376-11.656,6.597-16.168,19.6-19.93c13.004-3.76,65.207-11.279,93.099-15.793
		c27.893-4.512,24.688-20.116,22.992-37.789c-1.696-17.674-11.307-65.806-17.338-98.52c-0.106-0.574-0.214-1.164-0.321-1.742
		c5.149,3.048,13.39,3.433,19.732,3.433c7.727,0,6.785-7.144,0.565-6.768c-5.56,0.336-16.827-2.187-21.984-5.815
		c-5.563-30.2-11.779-64.176-16.649-93.832c-5.466-33.278-13.381-86.486-17.904-135.745c-4.523-49.259-5.843-106.98-0.943-130.482
		c4.901-23.501,27.704-25.569,42.781-18.989c15.077,6.581,66.526,33.09,74.63,37.979c0.809,0.487,1.536,1.01,2.223,1.553
		c-1.998,12.499-10.54,63.348-9.197,141.149c1.47,84.969,21.297,164.323,24.689,175.605c3.392,11.28,3.58,11.844,3.769,14.476
		c0.189,2.633,1.885,9.213,6.408,22.186C420.421,619.779,381.061,602.735,367.667,594.864 M444.987,601.198
		c-17.15-61.668-25.441-126.157-27.326-185.381c-1.774-55.746,5.132-114.809,7.207-133.943c2.124,4.144,3.842,9.31,6.55,15.871
		c5.277,12.785,28.458,68.249,41.65,100.775c3.588,8.846,7.272,17.423,10.839,25.408c-2.949,38.343,0.073,92.214,24.591,171.253
		C496.061,602.702,464.022,607.779,444.987,601.198 M488.642,434.338c7.604,16.422,14.139,29.15,17.219,34.498
		c4.014,6.972,8.845,13.342,12.651,16.004c1.259,13.281,5.017,37.316,10.906,62.774c6.441,27.844,17.15,55.84,19.034,60.165
		c1.885,4.323-0.753,5.828,2.828,12.409c-10.743-2.069-20.165-5.641-32.604-12.033C494.009,532.702,489.767,477.281,488.642,434.338
		 M730.819,1059.125c1.214,9.681,3.335,27.129,4.315,35.146c-6.572-9.421-12.663-17.478-17.708-23.842
		C721.528,1067.171,726.49,1063.2,730.819,1059.125 M863.744,1234.238c-6.217-0.188-31.473,0.188-43.346,0.375
		c-11.873,0.189-27.702,0.753-34.486-3.195c-6.786-3.948-6.598-6.017-9.235-19.741s-11.685-42.491-24.688-63.925
		c-13.004-21.434-20.542-29.895-21.485-34.406c-0.942-4.512-5.842-12.221-9.611-17.485c-3.521-4.918-12.797-15.416-7.083-22.295
		c6.663,9.771,23.103,35.086,34.096,52.251c11.559,18.051,21.735,40.611,27.014,60.666c5.276,20.056,8.919,30.207,23.117,37.604
		c13.737,7.156,48.296,7.974,67.252,8.246C866.091,1233.563,865.714,1234.298,863.744,1234.238 M775.922,1122.371
		c8.67,25.944,21.296,59.036,26.385,68.812c5.087,9.777,4.146,12.974,8.292,15.606c4.146,2.632,24.122,7.144,36.938,13.536
		c3.515,1.754,6.785,3.604,9.556,5.365c-18.721-0.264-45.932-2.303-56.795-7.12c-11.308-5.014-12.313-12.408-17.716-31.962
		c-5.402-19.554-14.449-39.482-28.27-62.671c-4.496-7.544-9.016-14.64-13.408-21.217c-1.832-17.951-4.985-41.455-5.938-47.788
		c0.334-0.367,0.653-0.731,0.966-1.097c0.64,5.412,4.956,11.258,9.711,15.076c4.66,3.741,13.427,6.241,20.358,5.666
		C767.247,1089.744,770.579,1106.377,775.922,1122.371 M791.753,954.475c-12.439,43.995-23.37,73.701-25.631,94.006
		c-0.601,5.381-0.79,11.286-0.604,17.528c-4.732,1.257-11.362,1.281-15.98-2.361c-5.403-4.261-6.031-7.521-6.785-11.531
		c-0.503-2.677-1.267-4.376-2.442-4.933c0.13-0.321,0.274-0.646,0.369-0.959c2.45-8.084,5.654-56.968,13.004-92.69
		c7.351-35.723,24.688-118.261,33.545-143.83c6.974,6.393,27.704,15.418,45.421,15.794
		C823.226,855.203,804.191,910.479,791.753,954.475 M1248.411,801.514c1.607,0.894,2.609,1.98,2.807,3.302
		c0.754,5.077-8.479,6.957-19.6,7.897c-9.139,0.771-39.014,4.083-57.322,5.447c-30.424-0.347-64.716-0.685-77.853-0.578
		c-12.744,0.103-47.258,0.102-80.199,0.128c0.025-2.192,0.092-4.267,0.145-6.244c5.308,3.041,17.678,0.421,26.205-0.069
		c9.799-0.563,45.418-1.316,72.179-2.82c26.762-1.504,87.635-5.641,102.712-6.479
		C1232.511,801.262,1245.695,800.394,1248.411,801.514 M1046.172,761.762c2.263-3.009,3.959-3.385,5.515-1.909
		c0.041,0.04,0.082,0.063,0.123,0.095c6.813,5.836,20.4,11.489,33.374,16.666c14.134,5.642,58.423,15.794,75.95,16.17
		c17.526,0.376,23.368,1.504,29.399,3.009c3.339,0.833,8.763,1.434,15.366,1.805c-20.046,1.668-64.216,4.888-89.619,6.188
		c-31.285,1.602-84.618,3.852-92.157,3.852c-7.538,0-7.73-3-8.058-7.702c-0.202-4.123-0.115-10.421-0.272-17.167
		c4.061,0.746,9,2.328,12.853,5.691c4.524,3.948,9.424,8.648,12.629,12.785c3.202,4.136,6.028,0.376,5.086-2.068
		c-0.941-2.444-3.202-6.769-11.118-13.913c-6.973-6.293-14.817-8.791-19.68-8.783c-0.196-3.744-0.517-7.457-1.045-10.86
		c4.632,5.035,10.732,4.415,15.825,4.415C1036.562,770.034,1043.912,764.769,1046.172,761.762 M1008.115,746.381
		c-0.159-0.349-0.33-0.712-0.494-1.065c-0.066-0.147-0.133-0.298-0.195-0.438c0,0-0.001,0.013-0.001,0.015
		c-5.536-11.94-13.371-26.145-19.485-38.22c-9.233-18.237-32.227-57.532-40.519-75.581c-8.293-18.049-26.573-55.088-28.646-61.668
		c11.496-3.196,29.776-13.537,36.372-21.058c7.915,25.006,25.253,75.958,31.474,94.571c6.219,18.613,8.857,28.578,13.757,37.038
		c4.899,8.461,16.208,30.834,24.688,43.433c6.012,8.93,13.06,19.546,18.805,27.255c0.283,4.557-1.256,10.155-10.7,12.603
		C1019.668,766.763,1011.525,753.553,1008.115,746.381 M962.577,933.948c-10.05,28.431-15.879,60.924-21.105,91.995
		c1.608-22.542,6.633-57.878,14.07-89.355c7.437-31.479,23.919-54.629,38.391-61.534
		C982.074,885.615,972.626,905.516,962.577,933.948 M1051.016,861.244c-2.412,0-28.543,0-46.229,5.078
		c-17.688,5.076-33.366,15.637-45.426,48.332c-12.061,32.696-18.693,72.906-21.508,105.806
		c-2.813,32.898-8.844,99.51-10.652,127.739c-1.81,28.228-5.628,73.312-6.433,86.309c-0.804,12.997-1.005,19.09-1.206,23.354
		s0.402,6.499-3.216,6.499h-5.427c-1.005,0-2.814-0.406-1.608-11.576c1.206-11.169,3.216-44.271,4.021-59.909
		c0.804-15.638,7.437-83.669,9.246-106.617c1.809-22.948,7.035-94.027,11.658-122.458c4.623-28.432,9.647-55.848,15.074-71.688
		c5.106-14.903,14.487-36.994,37.006-44.968c21.701,0.186,47.902,0.409,67.4,0.563c-0.889,0.852-1.568,1.92-1.495,3.18
		C1052.423,854.34,1053.428,861.244,1051.016,861.244 M1105.889,895.564c-1.206,18.481-1.407,27.213-1.005,34.118
		c0.401,6.905-1.607,49.552-3.016,80.217c-1.407,30.666-3.417,96.058-5.227,130.582c-1.809,34.524-3.416,73.313-4.22,90.168
		c-0.805,16.855-1.206,34.32-1.005,40.616c0.2,6.295,1.206,9.342-1.809,9.342c-3.016,0-3.418-2.437-3.418-9.545
		c0-7.107-3.418-74.937-4.021-92.401c-0.603-17.466-5.225-115.96-6.231-142.563c-1.004-26.604-4.019-120.428-4.822-132.612
		c-0.763-11.546-2.962-44.589,3.478-55.629c8.927,0.041,18.551,0.005,28.204-0.057c0.089,1.081,0.389,2.413,0.88,3.9
		C1105.286,856.574,1107.095,877.085,1105.889,895.564 M1054.835,842.357c-30.552,0.609-102.51,0-106.932,0.203
		s-4.021-0.812-3.016-2.64c1.005-1.827,0-8.123-0.603-10.561c-0.604-2.437-0.208-4.618,2.612-4.671
		c10.854-0.203,113.968-0.203,152.761,0c38.792,0.203,104.52-0.608,131.252-0.608c0,0-1.005,8.528-2.009,12.794
		c-1.007,4.264-1.811,5.686-5.429,5.889s-17.688-0.406-30.35-0.406C1180.46,842.357,1085.387,841.749,1054.835,842.357
		 M1216.037,925.824c-9.246-24.572-18.291-42.444-30.15-52.191c11.458,6.092,29.146,23.963,37.187,53.004
		c8.038,29.04,14.471,73.922,15.677,97.276C1232.72,989.592,1225.283,950.397,1216.037,925.824 M1267.493,1264.158h-5.227
		c-1.809,0-2.412-1.625-2.611-8.326c-0.202-6.702-4.021-67.83-5.829-93.012c-1.811-25.183-8.443-120.225-11.056-146.422
		s-9.648-83.873-22.915-109.258c-13.266-25.385-21.507-33.915-44.22-40.818c-22.712-6.905-39.395-5.078-43.215-5.078
		c-3.819,0-3.617-1.827-3.617-4.873c0-2.078,0.373-6.136,0.419-8.767c13.43-0.093,25.59-0.137,34.354,0.033
		c10.049,0.195,23.528,0.344,35.25,0.445c7.387,4.401,17.454,11.036,26.055,26.159c10.05,17.668,20.502,62.549,24.12,99.104
		c3.618,36.554,7.638,97.275,10.051,132.409c2.411,35.132,6.029,61.736,7.034,82.653c1.005,20.918,2.01,52.396,3.015,56.659
		c1.005,4.266,1.005,9.952,1.005,14.014S1269.301,1264.158,1267.493,1264.158"/>
</g>
</svg>
