<?xml version="1.0" encoding="utf-8"?>
<!-- Generator: Adobe Illustrator 15.1.0, SVG Export Plug-In . SVG Version: 6.00 Build 0)  -->
<!DOCTYPE svg PUBLIC "-//W3C//DTD SVG 1.1//EN" "http://www.w3.org/Graphics/SVG/1.1/DTD/svg11.dtd">
<svg version="1.1" id="Layer_1" xmlns="http://www.w3.org/2000/svg" xmlns:xlink="http://www.w3.org/1999/xlink" x="0px" y="0px"
	 width="876px" height="1585.87px" viewBox="0 0 876 1585.87" enable-background="new 0 0 876 1585.87" xml:space="preserve">
<g>
	<path fill="#e5afcc" d="M488.268,572.812c3.504-0.28,5.605-6.592-0.981-6.451c-1.292,0.027-2.537,0.183-3.723,0.458
		c-8.848-15.441,0.761-29.788,5.965-30.61c5.326-0.842,6.587,2.664,7.289,5.75c0.7,3.085,2.381,3.926,3.643,1.683
		c1.261-2.244,0.562-8.836-3.083-12.482c-3.644-3.647-14.154-3.225-19.621,8.135c-4.752,9.876-3.652,23.201,0.251,30.096
		c-2.138,1.648-3.757,3.956-4.596,6.927c-1.822,6.451-1.401,13.183,4.065,19.774c3.258,3.928,7.61-0.198,4.063-4.488
		c-3.363-4.067-4.764-8.554-2.241-13.604C480.98,574.635,484.764,573.092,488.268,572.812 M547.55,393.723
		c-3.083-5.049-6.091-3.727-2.942,4.067c2.663,6.592,6.446,19.774,8.128,27.908s4.064,21.177,4.906,28.188
		c0.841,7.013,2.242,10.799,2.942,5.33c0.7-5.469,0.562-16.549-1.4-29.451C557.221,416.863,550.634,398.771,547.55,393.723
		 M625.753,398.912c-13.033-21.598-29.011-35.061-34.477-38.988c-5.465-3.926-9.573-0.916-3.644,4.208
		c9.25,7.994,22.984,24.262,31.113,36.744c8.128,12.481,18.779,34.218,22.143,42.914c3.364,8.695,8.27,6.871,6.308-1.403
		C645.233,434.113,638.787,420.509,625.753,398.912 M811.451,601.281c-9.123-22.13-17.018-49.694-23.821-46.547
		c3.831-14.874,6.957-31.697,8.664-47.817c4.42-8.601,11.832-19.054,18.661-28.207c7.428-9.957,22.984-22.86,37.84-38.146
		c14.855-15.286,15.978-24.683,13.034-30.854c-2.943-6.17-13.595-6.451-22.985,0.562c-9.39,7.012-22.563,20.757-36.578,39.268
		c0,0,5.325-22.579,6.727-49.085c1.322-24.981-6.196-40.614-12.345-44.561c-0.605-14.03-2.632-27.258-6.154-34.395
		c-4.681-9.487-9.948-12.221-12.619-11.069c-3.585-24.071-11.849-42.727-17.934-48.954c-5.288-5.412-11.593-5.866-14.17-4.031
		c-3.018-10.768-7.101-22.84-12.786-36.219c-10.089-23.748-32.701-68.812-69.7-102.844c-37-34.032-82.034-60.584-139.589-79.471
		c-57.554-18.885-106.886-27.487-169.113-22.625c-62.225,4.861-137.533,22.625-195.461,54.974
		c-57.928,32.35-95.862,82.837-117.165,116.682c-21.303,33.845-31.954,70.869-31.954,79.844c0,8.976-8.222,34.033-2.056,84.145
		c6.167,50.114,9.531,56.098,12.147,70.683c2.616,14.585,13.267,65.072,28.777,111.632c15.51,46.561,36.439,111.633,58.489,154.64
		c22.05,43.008,51.202,92.56,87.827,130.893c36.626,38.333,72.131,62.081,119.407,74.048c45.043,11.402,79.891,8.377,92.62,6.287
		c5.004,5.012,10.187,10.198,15.015,15.03c15.697,15.707,32.514,29.356,42.792,34.779c10.277,5.422,19.995,2.618,23.919,0.374
		c3.923-2.243,4.484,0,0.934,4.487c-3.551,4.488-9.53,15.147-14.202,28.984s-6.166,33.471-4.672,43.756
		c0.777,5.336,1.604,9.452,2.531,12.241c-1.678-0.538-3.499-1.049-5.521-1.49c-13.453-2.945-27.608,0.561-33.496,14.305
		c-5.886,13.743-4.625,31.835-2.382,45.438c-1.682,1.822-3.223,4.769-3.924,8.694c-0.7,3.928-2.101,9.397-3.783,13.744
		c-1.683,4.349-3.645,9.537-1.683,11.78c1.611,1.842,5.392,0.949,10.335,1.728c-0.231,0.753-0.035,2.213,0.924,4.817
		c1.962,5.329,2.523,14.771,1.682,21.223c-0.841,6.452-1.308,16.549,2.243,22.626s9.177,10.071,19.435,12.529
		c1.54,0.368,3.02,0.628,4.447,0.807c0.3,1.186,0.479,2.327,0.595,3.412c-2.811-1.575-6.614-1.304-8.546,5.225
		c-2.243,7.571,0,15.005,7.288,19.773c4.337,2.837,11.413,5.022,19.437,6.302c1.646,6.9,7.643,33.349,11.088,48.396
		c-2.187,0.856-5.707,4.688-8.941,12.478c-4.486,10.8-8.27,33.379,1.962,43.896c-12.755,10.842-12.078,39.8,6.343,48.001
		c-2.682,0.731-5.695,1.237-9.847,1.785c-7.429,0.981-17.8,4.066-21.163,14.305c-3.364,10.237,1.261,15.426,4.484,21.317
		c3.225,5.89,6.587,11.779,6.729,17.25c0.024,1.022,0.091,1.924,0.187,2.743c-4.782,3.598-9.465,8.036-13.082,13.104
		c-5.876,8.232-9.064,16.881-9.648,26.366c-9.595,2.191-19.176,7.786-26.929,15.426c-9.11,8.975-12.895,17.11-13.454,25.664
		c-0.562,8.555,1.821,14.165-1.823,15.006c-3.644,0.841-7.848-2.523-15.136-4.628c-7.287-2.103-20.602-3.225-28.59,1.122
		c-3.303,1.798-5.462,4.052-6.532,6.404c-7.835-0.991-14.66-2.702-16.593,0.888c-1.962,3.647-2.943,9.958,0.701,10.518
		c3.191,0.492,14.33-0.198,18.559-1.319c5.499,3.962,20.419,1.99,27.83,1.181c7.709-0.842,14.155-0.141,20.462,0
		c6.307,0.139,13.034,1.683,15.697-6.592c2.662-8.274-0.841-21.737,6.727-32.676c5.749-8.31,14.563-11.599,20.928-13.438
		c3.589,11.438,12.085,17.065,14.811,19.048c3.082,2.244,3.504,6.591,3.783,11.641c0.28,5.048,0.701,12.061,0.842,15.986
		c0.14,3.928,1.12,7.714,8.829,11.641c7.708,3.927,49.893,18.091,105.111,17.811c55.219-0.281,73.998-0.842,82.828-0.981
		c8.829-0.141,63.348,2.524,96.843-5.188c33.496-7.714,39.242-16.129,40.924-21.879c1.683-5.75,4.204-26.085,2.943-30.292
		s-16.258-21.036-38.121-25.804c-18.276-3.986-26.657-5.129-30.473-5.315c-4.459-5.184-4.771-23.469-5.826-32.831
		c-1.121-9.957-9.249-21.878-11.212-33.518c-1.962-11.641-4.904-51.048-4.904-59.183c0-8.134-0.281-17.25-0.981-21.597
		c-0.7-4.348,1.682-14.585,2.242-23.701s-3.083-34.5-19.199-52.872c-15.19-17.313-34.73-21.298-43.617-21.465
		c0.055-5.176,0.109-10.228,0.149-14.892c4.864-1.397,8.916-2.896,11.652-4.033c7.428-3.084,8.97-7.152,9.391-11.359
		c0.358-3.584,0.005-8.888-0.107-11.771c44.578-5.208,70.977-18.072,79.571-22.168c8.83-4.207,12.054-8.835,12.193-13.042
		c0.128-3.827-0.093-18.913,0.077-29.313c1.69-1.697,3.249-3.316,4.407-4.625c4.345-4.908,6.868-6.171,15.137-12.902
		c8.27-6.731,9.67-20.195,9.811-23.42c0.14-3.226,3.084-7.434,9.39-22.579c6.307-15.146,15.698-53.854,15.698-83.163
		c0-29.312-5.607-79.238-10.092-108.548c-1.824-11.926-4.392-25.289-7.162-38.165c7.535,8.406,17.334,12.121,26.643,10.677
		c9.95-1.542,17.519-16.408,17.939-42.072s-3.925-64.512-10.651-94.804C836.678,682.902,820.701,623.72,811.451,601.281
		 M345.315,1547.354c-1.682-0.421-0.84-4.349,1.401-4.909c1.899-0.476,10.031,0.056,12.73,0.144
		c-0.028,1.21,0.217,2.402,0.759,3.529C356.54,1546.558,346.68,1547.696,345.315,1547.354 M791.372,500.452
		c-0.938,1.895-1.748,3.734-2.345,5.465c-2.169,6.278-1.338,9.337,0.545,9.307c-0.655,4.201-1.408,8.294-2.227,12.289
		c-6.728,32.818-16.258,57.78-27.33,76.012c-11.071,18.231-24.105,25.243-33.355,33.237c-9.249,7.994-33.215,24.402-57.04,33.518
		s-45.829,12.341-61.805,13.464c-15.979,1.121-17.379,2.664-13.035,4.768c4.345,2.103,12.754,4.768,28.73,3.786
		c15.978-0.982,37.98-7.152,54.938-14.164c5.376-2.223,11.131-5.025,16.852-8.113c19.061,2.285,26.669,13.796,19.447,23.913
		c-1.539,2.157-3.439,4.029-5.761,5.633c-3.088-3.249-6.685-5.957-9.936-5.866c-5.046,0.14-15.978,1.402-16.959,3.085
		c-6.866,0.982-11.07,2.665-14.436,7.292c-0.593,0.818-0.904,1.7-1.005,2.462c-2.706-0.101-5.543-0.251-8.524-0.451
		c-33.449-2.244-72.878-10.659-88.388-15.708c-14.169-4.612-24.271-7.183-30.9-6.17c-2.924-3.972-6.089-7.804-9.463-11.22
		c-15.695-15.893-47.275-37.771-68.393-24.682c-1.643,1.018-3.172,2.149-4.62,3.362c-0.234-0.352-0.52-0.697-0.892-1.025
		c-3.504-3.085-29.151-28.188-42.325-51.889c15.786-9.731,42.257-24.58,47.341-27.422c0.274,1.688,0.572,3.344,0.87,4.983
		c0.927,5.105,6.586,5.609,5.605-1.262c-0.98-6.872-2.663-27.067,4.345-41.372c7.008-14.304,16.538-21.878,26.348-16.689
		c9.81,5.19,14.295,25.805,11.492,41.232c-2.802,15.426-6.026,25.243-8.27,30.713c-2.241,5.469-0.42,4.207,2.663-0.281
		c0.02-0.026,0.04-0.058,0.061-0.086c7.292,0.495,9.548,4.743,8.209,8.361c-1.402,3.786-9.391,6.871-16.537,6.311
		c-8.534-0.67-7.572,7.393,0.419,7.573c12.474,0.28,19.341-4.488,22.285-13.043c2.789-8.108-3.361-16.461-10.214-15.88
		c3.894-6.866,8.725-17.353,9.793-28.717c1.542-16.408-1.963-35.902-14.716-43.335c-12.754-7.432-29.991,0.421-37.98,20.616
		c-4.286,10.834-5.625,19.689-5.602,27.478c-14.716,8.322-51.159,30.443-51.159,30.443c-15.277-31.274-24.807-64.091-24.947-103.078
		c-0.139-38.987,11.352-82.322,41.064-120.608c29.712-38.286,88.014-72.225,144.774-79.237c56.76-7.012,93.199,8.274,115.763,19.634
		c22.564,11.359,69.654,44.036,90.678,97.188C790.985,441.6,793.723,473.318,791.372,500.452 M768.565,617.269
		c-0.141,2.665,4.345,21.457,11.772,48.663c-10.646-21.523-25.079-29.728-34.753-30.242c4.38-3.315,8.298-6.732,11.488-10.988
		c2.708-3.614,6-9.041,9.417-15.486C767.25,612.466,768.687,614.974,768.565,617.269 M709.563,717.401
		c-2.524-0.14-8.13,0.141-9.671,1.122c-1.541,0.982-2.522,1.403-3.925,0.562c-1.401-0.842-2.803-0.562-3.503-0.281
		c-0.281-5.89-2.103-15.567-4.766-18.232c4.625-0.56,7.849-1.262,10.23-1.822c2.384-0.561,5.047,1.121,7.708,4.908
		c2.663,3.786,5.187,7.713,6.447,10.378C713.348,716.7,712.085,717.542,709.563,717.401 M687.206,706.151
		c-5.166,0.499-11.114,0.655-17.968,0.473c2.116-2.987,6.09-6.593,11.034-6.332C684.103,700.493,686.114,703.091,687.206,706.151
		 M429.03,808.185c1.012,17.633,3.362,37.495,4.722,52.171c-3.354-2.28-8.497-5.948-13.317-10.1
		c-7.89-6.793-53.435-46.58-71.355-64.479c0.002-3.957-0.318-7.835-1.102-11.438c-3.785-17.39-21.864-26.506-23.966-20.476
		c-5.886-9.676-7.708-36.883-1.401-64.932c3.165-14.073,7.035-25.567,10.832-34.008c26.713,4.91,55.648,3.092,69.24,2.174
		c13.828-0.936,31.206-3.927,39.428-5.05c2.119-0.289,3.538-0.677,4.417-1.085c2.382,2.315,4.169,3.93,5.491,4.914
		c-13.521,15.134-17.081,40.167-20.373,65.732C427.723,752.088,427.723,785.372,429.03,808.185 M335.645,810.943
		c0.14,3.787-1.261,9.116-5.887,9.816c-4.624,0.701-5.325,2.244-7.708,6.732c-2.383,4.487-6.166,7.292-10.791,7.993
		c-4.625,0.702-3.084-1.402-0.28-3.366c2.802-1.963,5.605-4.488,5.465-10.658c-0.14-6.17,0.841-5.329,2.243-2.944
		c1.401,2.384,5.045,2.665,6.727-1.543c1.682-4.207,1.962-8.695,1.261-12.622c-0.7-3.928,0.841-3.085,3.083-2.805
		c2.243,0.28,4.766-2.243,4.485-7.433c-0.28-5.189,0.141-7.994,0.841-10.939c0.701-2.945,2.102-4.628,2.803-6.591
		c1.387-3.885,1.822-2.665,1.681,0.982c-0.139,3.646,0,4.487,1.262,8.975c1.262,4.487,0.561,8.274-2.522,12.763
		C335.225,803.791,335.504,807.156,335.645,810.943 M300.748,816.693c-3.572-4.467-4.937-19.5-4.626-27.772
		c6.056,5.519,12.441,11.351,18.284,16.524c-0.56,1.163-1.1,2.258-1.606,3.254C308.316,817.534,304.671,821.601,300.748,816.693
		 M98.652,488.246c-19.761-23.28-48.771-62.968-59.283-103.218c-10.51-40.25-15.837-88.353,3.925-138.139
		c19.761-49.785,52.415-94.382,111.559-136.034c59.142-41.652,147.156-70.402,231.526-71.524
		c84.369-1.121,157.668,19.494,215.969,61.286c58.303,41.792,99.508,89.194,116.185,145.151
		c14.479,48.58,15.331,74.635,15.396,84.425c-19.334-17.534-45.615-33.708-82.246-45.438
		c-43.026-40.67-108.94-74.855-171.964-87.651c-58.021-11.781-133.001-2.525-192.004,17.109
		c-59.002,19.634-114.501,61.707-149.538,102.657C103.137,357.821,81.975,419.387,98.652,488.246 M386.519,608.714
		c-3.785,2.244-5.886-0.701,0.981-4.628c6.867-3.927,33.495-18.232,43.866-23.982c9.014-4.997,24.267-14.545,28.106-16.961
		c0.102,1.308,0.234,2.588,0.39,3.846C443.005,576.813,390.221,606.519,386.519,608.714 M407.123,602.689
		c5.885,11.354,9.108,15.001,10.089,16.402c0.981,1.403,0.42,3.647-2.663,5.611c-3.083,1.963-12.474,2.384-22.424-13.043
		c-0.2-0.31-0.395-0.624-0.592-0.938C395.943,608.359,403.913,604.313,407.123,602.689 M386.268,600.875
		c-5.759-12.978-7.025-26.487,3.334-32.27c1.433-0.8,2.382-0.982,3.364,2.524c0.693,2.478,4.535,11.536,8.807,20.647
		C398.239,593.859,390.136,598.608,386.268,600.875 M346.156,612.641c3.364-1.122,4.906-0.561,6.306,1.122
		c1.402,1.683,2.104,4.207-0.841,6.591c-1.84,1.491-6.857,5.942-11.97,11.469c-3.177-1.228-7.234-5.289-4.567-10.628
		C337.887,615.586,342.792,613.763,346.156,612.641 M343.774,639.287c15.416,2.524,55.218,4.768,88.854-2.384
		c4.856,4.973,8.696,8.905,11.748,11.942c-0.069,0.008-0.139,0.014-0.21,0.025c-3.923,0.561-7.1,1.122-9.343,0
		c-2.242-1.122-12.707,1.496-27.656,2.992c-14.707,1.472-42.436,2.938-71.266-2C338.792,644.365,341.537,640.76,343.774,639.287
		 M857.99,412.315c0.822,0.208,1.488,0.634,1.952,1.322c3.224,4.769-4.625,13.464-9.95,19.353c-0.21,0.232-0.455,0.495-0.716,0.769
		c-5.008-1.136-4.743-8.765-1.667-12.829C850.361,417.295,854.835,412.986,857.99,412.315 M807.387,455.709
		c4.905-6.591,15.416-18.932,26.067-29.17c4.134-3.974,8.562-7.519,12.622-10.099c-5.115,6.374-6.9,15.216-0.013,20.567
		c-8.464,8.337-25.239,23.837-32.37,32.025c-4.938,5.669-11.082,13.302-16.155,20.928c0.231-6.233,0.231-13.046-0.119-20.267
		C800.773,469.678,802.785,461.892,807.387,455.709 M800.238,380.54c0.377-4.678,0.577-9.653,0.599-14.682
		c2.552,5.124,6.304,16.14,5.568,33.895c-0.84,20.336-6.167,46.421-7.988,52.871c-0.521,1.851-1.192,3.943-1.797,6.012
		c-0.883-9.171-2.368-18.804-4.676-28.593C797.207,428.869,798.661,400.14,800.238,380.54 M783.842,378.998
		c0.646-8.137,1.525-37.796-1.076-61.605c5.975,2.321,11.192,21.171,11.588,44.355c0.403,23.74-1.526,36.718-4.916,58.762
		c-2.137-7.353-4.76-14.736-7.979-22.019c-0.714-1.614-1.465-3.265-2.234-4.931C782.091,393.19,783.232,386.68,783.842,378.998
		 M764.076,278.182c4.441,9.656,8.028,22.276,9.675,32.377c3.224,19.775,3.363,40.671,3.083,57.78
		c-0.165,10.067-0.476,15.761-0.703,18.746c-4.72-9.536-10.513-19.677-17.954-29.88c0.705-1.986,1.306-6.511,1.419-13.689
		c0.188-11.78,0.934-23.186-0.561-28.422c-1.479-5.183-0.951-19.162-3.84-34.498C759.152,281.289,762.32,280.232,764.076,278.182
		 M762.266,274.508c-2.189,1.506-5.649,2.025-8.021,1.311c-0.814-3.912-1.764-8.061-2.889-12.449
		C755.09,263.674,758.866,268.095,762.266,274.508 M27.644,242.167C46.33,196.542,76.603,144.559,130.233,102.3
		c53.629-42.26,137.159-72.365,229.47-78.723c92.313-6.358,184.811,19.822,257.127,65.821
		c72.318,45.999,106.326,110.136,122.024,153.518c15.696,43.382,13.641,68.999,15.509,74.983c1.869,5.983-0.747,16.081-0.747,20.755
		c0,4.675,1.308,4.114,1.495,8.976c0.092,2.399,0.23,4.431,0.481,6.125c-4.641-6.055-9.865-12.108-15.85-18.044
		c-0.78-26.702-4.357-62.024-15.886-92.607c-12.053-31.976-31.674-88.633-119.688-147.114S450.567,35.404,386.098,34.423
		c-64.468-0.982-162.012,18.792-234.61,70.962c-72.597,52.17-100.627,102.237-113.94,138.98
		c-13.314,36.744-23.686,76.292-4.065,143.468c19.621,67.175,59.984,106.163,78.624,124.535
		c18.639,18.371,83.388,70.822,119.407,89.334c36.018,18.512,67.271,27.066,73.298,29.03c-2.285,4.104-4.509,7.994-6.621,11.745
		c-24.339-5.401-67.955-23.29-109.096-49.704c-42.232-27.114-80.165-60.21-96.61-78.161c-16.444-17.951-6.914-10.098-17.938-22.813
		c-11.025-12.716-36.999-46.935-48.771-89.381C14.002,359.971,8.957,287.793,27.644,242.167 M75.984,586.839
		c-4.495-12.579-8.817-25.188-12.835-37.448c-15.51-47.308-35.505-122.477-32.329-116.307c3.177,6.171,22.238,40.764,48.398,71.617
		c26.162,30.853,70.075,71.056,108.943,93.682c37.569,21.869,83.163,42.512,107.432,48.765c-2.563,4.66-4.907,9.147-6.899,13.596
		c-0.34,0.761-0.58,1.493-0.74,2.189c-5.128-4.241-34.755-28.376-50.647-37.437c-16.071-9.162-38.868-4.675-51.389-5.048
		c-12.519-0.375-22.424-9.537-30.459-18.512c-8.035-8.977-21.489-27.488-34.756-45.065c-13.268-17.576-25.601-23.187-31.581-21.317
		c-5.979,1.87-7.474,9.537-2.616,18.138c-4.298-3.179-9.53-1.122-11.772,2.618c-2.243,3.74-3.177,12.155,6.914,27.114
		C78.476,583.505,76.687,584.722,75.984,586.839 M96.942,569.331c5.541,6.774,10.49,16.002,15.725,26.808
		c3.461,7.142,8.058,16.221,14.097,24.636c-11.174-9.757-23.891-21.462-32.409-31.742c-1.496-1.805-2.849-3.528-4.087-5.181
		C96.073,585.001,98.829,577.517,96.942,569.331 M86.251,578.087c-5.857-9.139-7.092-15.183-5.164-17.663
		c2.157-2.775,5.462-1.474,10.221,2.944c1.192,3.312,2.61,8.018,2.86,10.893C94.494,578.014,91.689,582.476,86.251,578.087
		 M98.735,560.756c-1.766-2.682-3.226-5.019-4.194-6.877c-4.671-8.975-2.242-14.024,6.167-6.731
		c1.067,0.924,2.149,1.899,3.242,2.919c1.483,4.006,1.383,8.212,0.308,9.422C103.193,560.689,101.55,562.251,98.735,560.756
		 M89.989,593.209c0.147,1.797,1.831,5.396,4.74,9.099c3.027,3.857,1.895,7.403-0.104,9.006c-5.348-5.976-9.087-11.15-10.175-14.802
		C82.031,588.387,84.571,587.788,89.989,593.209 M92.674,631.258c-2.478-6.258-4.948-12.649-7.396-19.123
		c2.957,4.037,6.808,8.388,12.253,14.109C94.64,627.026,93.105,628.831,92.674,631.258 M99.742,603.69
		c7.415,7.922,17.27,18.19,25.82,26.107c12.519,11.593,49.892,40.016,69.513,54.04c19.62,14.024,41.858,21.691,51.201,23.561
		c9.343,1.87,9.531-6.545,1.308-8.228c-8.222-1.683-23.545-5.797-47.276-21.317c-17.124-11.198-33.759-23.952-46.329-34.121
		c15.737,7.408,38.127,13.444,57.914,17.666c25.414,5.423,40.924,17.016,48.398,24.309c7.475,7.293,9.53,2.43,2.43-5.984
		c-7.102-8.414-28.778-21.504-49.52-26.552c-20.742-5.049-44.287-10.659-59.05-17.391c-14.761-6.731-23.918-18.137-31.393-35.527
		c-4.867-11.325-13.378-23.756-20.014-33.531c5.659-1.052,8.214-5.116,7.758-10.139c5.595,5.911,11.392,12.909,17.114,20.857
		c9.157,12.715,22.238,30.48,33.824,40.951c11.586,10.471,25.6,12.715,42.792,11.406c17.191-1.309,27.282,1.122,39.428,9.162
		c12.147,8.041,40.176,29.919,45.034,32.537c4.859,2.617,4.298,0,2.243-0.748c-0.832-0.304-0.692-0.995-0.536-1.959
		c0.752-0.121,1.578-0.703,2.358-1.875c3.083-4.627,13.734-24.402,19.341-32.676c5.605-8.274,13.174-18.512,24.245-22.018
		c-6.89,6.895-9.138,18.173,0.23,23.057c-2,2.342-3.917,4.792-5.555,7.235c-6.587,9.817-12.473,25.945-15.557,42.493
		c-3.083,16.549-5.746,42.774-2.942,57.079c2.802,14.305,7.146,18.372,10.65,22.859c3.504,4.488,3.784,6.171,2.522,12.342
		c-0.891,4.362-4.724,13.84-8.479,22.144c-5.497-5.085-26.26-24.227-37.862-34.064c-13.454-11.406-41.859-29.17-64.843-42.446
		c-22.984-13.277-56.994-34.781-83.902-56.097c-7.652-6.062-13.365-11.138-17.582-15.35c3.87-0.239,5.124-3.393,4.342-7.085
		c3.301,2.94,6.703,6.037,9.689,8.598c9.156,7.853,36.999,27.113,53.63,42.259c16.632,15.146,32.515,24.683,38.495,28.423
		c5.979,3.739,18.5,6.544,17.752,1.496c-0.747-5.049-9.531-6.358-19.62-12.342c-10.092-5.983-13.829-9.723-28.779-22.626
		c-14.949-12.902-45.781-34.405-64.655-50.86c-9.516-8.297-18.792-16.878-25.988-24.475
		C100.959,612.756,100.948,607.738,99.742,603.69 M108.804,646.991c-6.667-7.594-7.286-11.459-6.041-12.706
		c0.94-0.941,4.186,1.249,8.305,4.649C114.454,643.655,112.019,647.272,108.804,646.991 M318.406,885.038
		c-33.262-9.35-80.913-29.357-117.725-72.927c-36.813-43.567-67.646-91.437-84.837-127.152c-5.415-11.249-11.108-24.17-16.852-38.07
		c7.749,9.15,26.978,25.228,40.21,35.452c14.763,11.407,47.09,33.284,65.03,44.503c17.938,11.22,45.034,27.488,52.508,33.659
		c7.475,6.17,10.091,3.178,18.687,10.097c3.353,2.699,8.074,6.88,13.414,11.706c-3.28,12.728-5.024,29.985,0.414,42.942
		c5.887,14.024,20.603,22.999,31.814,21.737c8.268-0.93,14.779-9.563,18.867-18.193c6.458,5.656,27.898,24.402,33.969,30.815
		c6.728,7.105,7.475,10.285,12.333,15.333c2.442,2.537,8.565,8.711,16.043,16.217C382.103,893.681,350.344,894.015,318.406,885.038
		 M481.166,943.751c-8.782,1.684-18.686-5.048-28.402-14.023c-9.719-8.976-50.829-49.365-57.182-55.724
		c-6.353-6.356-6.914-9.163-12.334-14.771c-5.305-5.492-27.259-25.494-40.277-38.087c0.134-0.416,0.263-0.826,0.382-1.228
		c1.715-5.772,3.972-14.53,5.072-23.777c3.928,3.892,14.255,14.043,22.117,21.019c9.513,8.442,38.851,33.272,64.17,55.933
		c0.546,9.244,1.496,14.357,3.102,17.929c1.681,3.739,2.616,3.927,2.989-1.122c0.374-5.048,2.617-37.023,1.122-53.479
		c-0.384-4.219-0.804-10.66-1.163-18.472c13.786,14.137,35.722,23.965,40.592,25.951c5.046,2.057,7.1,1.87,5.793,0.187
		c-1.157-1.487,4.843-0.785,11.285-0.601c1.103,22.588,1.506,49.459,0.675,63.055C497.984,924.866,489.948,942.069,481.166,943.751
		 M452.109,1182.537c-6.448-3.833-8.129-10.377-7.85-16.174c0.28-5.797,0.843-11.406,0-19.54
		c-0.623-6.029-2.426-10.151-3.964-12.113c0.061,0.02,0.119,0.032,0.181,0.052c6.587,2.104,17.518,11.359,22.703,15.146
		c5.187,3.786,10.793,1.122,13.314-2.384c1.511-2.101,2.866-4.906,3.174-7.12c0.259,2.127,0.51,4.251,0.751,6.326
		c0.747,6.45,1.774,20.941,2.429,27.486c0.654,6.544-2.336,14.305-8.969,14.398C467.244,1188.708,458.557,1186.371,452.109,1182.537
		 M488.547,1305.296c1.938-8.825,5.934-17.395,8.387-20.718c0.451,1.961,0.8,3.454,1.005,4.309
		c1.681,7.013-3.225,14.306-3.504,25.385c-0.096,3.747,0.307,9.937,0.931,16.973C489.086,1327.94,486.242,1315.8,488.547,1305.296
		 M485.043,1352.558c1.251-8.76,6.849-13.038,11.126-12.867c1.182,11.7,2.641,23.976,3.312,30.677
		c0.194,1.96,0.424,4.21,0.676,6.693C488.341,1373.458,483.729,1361.773,485.043,1352.558 M477.778,1450.264
		c1.116,4.667,2.339,14.529-0.863,20.938c-1.583,3.167-3.542,4.944-6.448,6.07C469.067,1466.647,474.271,1455.101,477.778,1450.264
		 M467.569,1456.655c-2.642,7.129-3.538,15.269-2.897,22.008c-1.755,0.265-3.748,0.487-6.006,0.717
		C459.351,1470.765,462.87,1462.313,467.569,1456.655 M448.465,1493.08c-6.587,3.507-14.295,8.555-19.061,18.092
		c-4.765,9.536-5.185,16.127-5.606,21.737c-0.42,5.61,0,14.304-6.306,14.164c-6.307-0.14-22.424-1.542-31.254-0.561
		c-8.829,0.981-21.302,0.28-22.984-2.524c-1.682-2.805,2.383-8.134,16.678-8.134s22.984,7.012,29.431,6.872
		c6.447-0.141,9.11-6.872,8.83-12.902c-0.281-6.031-0.14-17.25,9.25-25.384c9.389-8.134,17.097-13.323,33.635-17.812
		c16.538-4.487,20.041-9.396,22.424-19.494c2.383-10.097-3.504-27.628-3.784-33.236c-0.279-5.609-5.745-14.164-8.689-19.494
		c-2.943-5.329-5.186-12.481-3.083-17.109s7.989-8.134,17.239-9.677c7.774-1.297,12.966-2.494,15.675-3.592
		c0.238,2.393,0.485,4.916,0.736,7.536c-4.645,0.571-12.676,2.118-18.094,5.732c-5.466,3.646-8.549,9.396-3.644,19.494
		c4.905,10.097,9.81,17.67,9.81,28.048s-0.279,21.457-1.121,26.366c-0.841,4.908-3.924,12.761-8.688,15.426
		c-4.766,2.665-11.353,4.628-14.016,4.067C463.18,1490.134,455.052,1489.574,448.465,1493.08 M500.48,1381.48
		c0.038-0.039,0.074-0.078,0.111-0.117c0.002,0.021,0.004,0.041,0.006,0.062C500.56,1381.443,500.52,1381.461,500.48,1381.48
		 M505.785,1467.977c5.326-8.135,5.186-23.28,4.486-38.707c-0.434-9.531-1.616-21.792-2.721-33.709
		c0.58-0.499,0.934-1.08,1.038-1.772c0.202-1.35-0.315-2.046-1.417-2.347c-0.541-5.93-1.038-11.684-1.387-16.866
		c2.663,7.713,14.295,38.847,12.334,70.681c-1.963,31.836-16.258,41.934-22.284,45.3c-5.41,3.021-11.719,3.321-16.4,1.019
		c2.879-1.46,5.685-3.766,8.271-7.611c4.625-6.871,5.887-15.426,6.167-24.121c0.18-5.584,0.931-14.171,0.41-21.833
		c4.818-1.747,8.729-2.72,10.437-4.079c0.524,17.966-1.839,25.596-4.681,30.119c-3.083,4.909-4.764,7.715-5.185,12.062
		C494.435,1480.458,500.46,1476.111,505.785,1467.977 M493.385,1431.343c-0.369-1.683-0.844-3.245-1.474-4.598
		c-3.925-8.415-8.83-15.006-8.55-19.914c0.282-4.909,5.747-7.013,13.035-8.135c2.189-0.337,4.122-0.662,5.771-1.027
		c0.924,10.103,1.818,21.152,2.358,31.46c0.028,0.557,0.053,1.099,0.078,1.638C502.783,1429.783,498.709,1429.9,493.385,1431.343
		 M473.832,1510.891c-4.701-0.818-9.69-7.157-12.652-14.879c3.926-1.089,6.088-1.301,9.654-1.918
		c3.808,4.123,11.824,9.192,25.701,4.034c14.717-5.469,25.087-20.476,26.069-52.872c0.979-32.395-7.85-56.656-12.054-71.663
		c-4.203-15.006-7.708-20.054-9.95-39.828s1.261-30.714,2.383-36.183c1.121-5.47,0.98-8.555-0.141-9.957
		c-1.122-1.402-1.122-1.122-0.141-4.488c0.982-3.365-0.7-3.365-1.681-7.854c-0.929-4.241-8.739-32.028-11.486-43.944
		c3.991,0.432,8.115,0.65,12.186,0.609c4.183-0.04,8.066-0.295,11.594-0.853c2.446,8.063,8.257,27.461,9.941,33.086
		c-7.236,6.567-13.689,15.656-17.05,27.931c-6.026,22.018-0.841,46.701,7.569,78.255c8.409,31.555,14.434,56.238,14.854,76.573
		s-2.241,38.565-15.557,49.084C499.759,1506.543,480.278,1512.012,473.832,1510.891 M599.687,1218.066
		c5.045,5.188,15.976,8.554,17.098,9.115c1.121,0.561,5.745,12.762,6.166,16.408c0.42,3.646-0.421,5.189-2.662,6.731
		c-2.243,1.543-6.167,5.049-8.269,7.293c-2.104,2.244-3.645,0.701-7.708-6.03c-3.807-6.303-22.229-43.579-27.783-55.559
		c6.507,0.951,13.309,1.788,20.448,2.456c-0.648,0.829-0.958,2.36-1.215,4.158C595.341,1205.583,594.641,1212.876,599.687,1218.066
		 M515.805,1503.553l15.037-10.271l14.061,9.42c-7.323,4.841-12.846,8.48-15.073,9.93
		C523.494,1508.076,518.893,1505.167,515.805,1503.553 M525.216,1515.938c-10.8-0.287-22.689-0.979-35.784-2.194
		c5.191-1.139,13.785-3.962,22.051-9.779C513.187,1506.462,518.096,1510.994,525.216,1515.938 M618.635,1292.107
		c1.706,3.665,2.919,7.381,3.583,11.032l-6.818,4.44l-16.155-10.845l13.056-8.821L618.635,1292.107z M610.007,1268.851
		c1.277-0.535,2.749-1.606,4.395-2.683c1.299-0.85,2.648-1.751,3.851-2.562c-1.288,3.717-2.443,8.255-2.979,11.155
		C613.622,1272.706,611.888,1270.733,610.007,1268.851 M620.007,1272.338c0.687-1.479,1.514-2.64,2.275-3.513
		c0.04,1.91,0.081,4.003,0.118,6.082C619.302,1276.333,618.5,1275.587,620.007,1272.338 M609.392,1311.494l-15.284,9.955
		l-15.816-10.558l14.953-10.103L609.392,1311.494z M617.514,1395.923l-2.086,1.46c-4.146-2.754-9.896-6.604-17.051-11.479
		l17.937-12.602c0.431,0.31,0.856,0.616,1.288,0.924C616.623,1380.079,616.21,1387.34,617.514,1395.923 M555.735,1415.861
		l17.59-12.357c5.109,3.701,10.738,7.81,16.342,11.913l-17.383,12.169C566.894,1423.776,561.307,1419.814,555.735,1415.861
		 M587.129,1446.046l-14.752,9.905c-4.986-3.484-9.923-6.932-14.582-10.187l14.371-10.058L587.129,1446.046z M572.968,1395.358
		c-4.775-3.277-9.727-6.654-14.675-10.038c4.327-3.013,8.932-6.215,13.615-9.471c4.728,3.225,9.717,6.592,14.65,9.9
		L572.968,1395.358z M583.209,1402.426c-1.373-0.955-2.774-1.928-4.203-2.914l13.717-9.636c6.271,4.191,12.219,8.141,17.135,11.408
		l-14.165,9.915C591.696,1408.368,587.495,1405.411,583.209,1402.426 M592.258,1381.719c-3.903-2.678-8.889-6.094-14.49-9.941
		c6.234-4.331,12.462-8.652,18.227-12.651c4.769,3.263,9.55,6.572,14.249,9.878L592.258,1381.719z M571.691,1367.602
		c-5.436-3.739-11.242-7.743-17.087-11.794l18.513-12.064c5.418,3.586,11.089,7.377,16.848,11.279L571.691,1367.602z
		 M557.417,1324.993l15.459-10.444c4.606,3.205,9.928,6.921,15.36,10.725l-14.869,9.685
		C568.053,1331.619,562.68,1328.27,557.417,1324.993 M550.696,1320.81c-5.253-3.271-10.31-6.427-14.994-9.378l16.659-10.87
		c3.982,2.644,7.707,5.143,10.763,7.237c0.985,0.676,2.109,1.449,3.342,2.303L550.696,1320.81z M536.392,1319.963
		c2.101,1.328,4.819,3.055,8.029,5.106l-17.114,11.621c-5.601-3.985-10.531-7.554-14.353-10.415l16.472-10.748
		C531.682,1316.976,534.025,1318.469,536.392,1319.963 M551.025,1329.312c4.626,2.982,9.873,6.391,15.512,10.094l-18.345,11.95
		c-5.025-3.495-9.974-6.955-14.636-10.242L551.025,1329.312z M548.752,1359.621c2.961,2.119,5.936,4.24,8.856,6.313
		c2.489,1.766,5.251,3.694,8.189,5.723l-13.691,9.426c-6.093-4.181-12.058-8.307-17.563-12.203L548.752,1359.621z M552.97,1389.03
		c3.315,2.302,6.681,4.658,10.014,7.032c1.383,0.984,2.882,2.059,4.465,3.197l-17.587,12.434
		c-4.979-3.532-9.874-7.004-14.533-10.299C539.087,1398.729,545.394,1394.314,552.97,1389.03 M566.386,1431.713l-14.338,10.037
		c-6.695-4.679-12.512-8.743-16.627-11.619l14.22-9.988L566.386,1431.713z M545.816,1446.113l-11.521,8.063
		c0.067-5.423-0.188-10.966-0.695-16.565L545.816,1446.113z M551.572,1450.12l14.48,10.077l-14.4,9.668
		c-5.781-3.945-10.779-7.398-14.218-9.85L551.572,1450.12z M553.062,1478.103l14.608,9.518c-5.983,3.971-11.776,7.811-16.986,11.258
		c-4.917-3.388-9.804-6.766-13.926-9.639L553.062,1478.103z M558.402,1474.455l14.2-9.7l14.396,10.02
		c-4.642,3.091-9.426,6.271-14.164,9.418C567.964,1480.918,563.048,1477.604,558.402,1474.455 M578.859,1460.48l14.663-10.017
		l14.681,10.145c-4.405,2.957-9.48,6.35-14.898,9.963C588.688,1467.346,583.8,1463.931,578.859,1460.48 M592.992,1442.111
		c-4.541-3.148-9.616-6.704-14.988-10.488l17.276-12.091c5.35,3.926,10.501,7.718,14.956,11.002L592.992,1442.111z
		 M601.391,1415.255l14.36-10.049c1.416,0.944,2.647,1.768,3.667,2.453c0.798,5.166,1.478,10.206,2.011,15.36l-4.799,3.221
		C612.545,1423.27,607.304,1419.481,601.391,1415.255 M621.258,1359.993c-0.127,0.463-0.285,0.99-0.455,1.546l-3.601,2.546
		c-3.875-2.935-8.663-6.293-14.052-9.92c5.188-3.598,9.742-6.753,13.217-9.16c2.599,1.826,4.65,3.27,5.936,4.173
		C622.088,1354.26,621.763,1358.158,621.258,1359.993 M597.076,1350.127c-5.33-3.503-11.072-7.186-16.983-10.93l14.52-9.461
		c5.669,3.972,11.198,7.851,15.892,11.147L597.076,1350.127z M571.743,1306.52l-14.093-9.409l15.143-9.881l13.843,9.178
		L571.743,1306.52z M551.535,1293.029l-13.628-9.097l15.197-9.758l13.467,8.931L551.535,1293.029z M546.247,1296.52l-16.69,11.017
		c-5.574-3.558-10.377-6.703-14.019-9.243l16.866-10.83C536.698,1290.257,541.509,1293.4,546.247,1296.52 M512.421,1293.226
		c1.188-5.639,3.098-10.68,5.896-14.888c1.266,0.816,4.473,2.886,8.722,5.642L512.421,1293.226z M523.37,1311.62l-12.227,8.071
		c-0.383-5.599-0.45-11.029-0.104-16.158C512.834,1304.724,517.47,1307.791,523.37,1311.62 M521.99,1340.299l-7.381,5.013
		c-0.749-3.942-1.417-7.902-1.98-11.837C514.535,1334.869,517.818,1337.265,521.99,1340.299 M528.146,1344.77
		c4.353,3.154,9.233,6.684,14.302,10.328l-14.218,9.261c-4.333-3.141-8.227-6.059-11.473-8.644
		c-0.209-0.941-0.415-1.887-0.618-2.835L528.146,1344.77z M522.666,1367.982l-2.599,1.692c-0.38-1.539-0.75-3.052-1.113-4.545
		C519.952,1365.946,521.203,1366.903,522.666,1367.982 M528.99,1372.499c5.038,3.525,11.201,7.72,17.786,12.252l-17.733,12.206
		c-0.954-0.672-1.882-1.325-2.806-1.974c-1.418-6.135-2.896-12.12-4.325-17.871L528.99,1372.499z M543.707,1416.043l-11.723,8.288
		c-0.942-6.274-2.111-12.551-3.406-18.742L543.707,1416.043z M533.563,1466.218c0.028-0.255,0.049-0.514,0.076-0.769l12.479,8.131
		l-16.182,10.864c-0.428-0.303-0.819-0.584-1.19-0.851C531.077,1478.606,532.79,1472.858,533.563,1466.218 M550.334,1506.34
		l13.039,8.736c-8.154,0.663-17.389,1.038-27.779,1.013C538.461,1514.203,543.672,1510.765,550.334,1506.34 M556.026,1502.556
		c5.191-3.457,10.98-7.327,17.054-11.41l16.946,11.04l-16.916,11.916c-0.067,0.008-0.135,0.017-0.204,0.024
		C569.206,1511.596,562.879,1507.266,556.026,1502.556 M595.652,1505.851l4.241,2.763c-3.652,1.181-8.001,2.316-13.115,3.332
		L595.652,1505.851z M594.745,1498.862c-4.865-3.246-10.612-7.087-16.618-11.115c4.579-3.089,9.266-6.265,13.936-9.45l16.035,11.16
		L594.745,1498.862z M613.773,1493.407l3.813,2.654c-1.662,3.374-3.899,6.08-6.936,7.923c-1.27,0.771-2.833,1.564-4.671,2.36
		c-1.423-0.945-3.33-2.215-5.61-3.732L613.773,1493.407z M614.194,1485.162c-4.151-2.899-9.67-6.755-15.915-11.116
		c5.032-3.452,9.975-6.871,14.673-10.156l9.33,6.447c-0.142,3.346-0.354,6.563-0.683,9.609L614.194,1485.162z M618.521,1459.975
		c1.4-0.991,2.761-1.959,4.097-2.912c-0.036,2.027-0.071,4.033-0.114,6.012C621.504,1462.268,620.2,1461.244,618.521,1459.975
		 M614.05,1456.673c-3.133-2.266-7.041-5.008-11.887-8.276c-0.892-0.603-1.84-1.246-2.815-1.913l16.88-11.53
		c2.699,1.993,4.879,3.604,6.346,4.69c0.12,3.537,0.17,7.22,0.139,11.108C621.135,1451.87,618.098,1453.942,614.05,1456.673
		 M622.671,1332.509l-5.905,4.065l-16.127-10.765l15.304-9.973l6.812,4.517C622.733,1324.422,622.711,1328.537,622.671,1332.509
		 M610.726,1279.627l-12.938-8.706l2.395-1.563C604.139,1272.446,607.687,1275.917,610.726,1279.627 M605.639,1283.504
		l-12.978,8.813l-13.635-9.153l13.14-8.575L605.639,1283.504z M591.47,1266.669l-12.198-8.209c0.133,0.041,0.267,0.075,0.401,0.116
		c5.083,1.563,9.862,3.777,14.267,6.463L591.47,1266.669z M585.828,1270.394l-13.021,8.595l-13.298-8.926l13.105-8.414
		L585.828,1270.394z M554.43,1266.653l-11.498-7.718c6.383-2.359,13.386-3.485,20.797-3.168l3.866,2.559L554.43,1266.653z
		 M547.944,1270.754l-15.288,9.671l-10.537-7.033c3.824-4.401,8.294-8.098,13.286-10.95L547.944,1270.754z M806.266,1534.452
		c-0.7,3.225-0.981,9.677-8.129,14.725c-7.147,5.05-17.519,12.062-48.49,14.726c-30.975,2.665-77.363,1.824-94.881,1.964
		c-17.521,0.14-50.875,1.262-68.395,0.561c-17.518-0.7-49.052-3.226-68.532-7.433s-32.936-9.957-36.019-12.201
		c-3.084-2.244-3.223-3.366-2.103-4.768c1.121-1.402,0.701-5.189,0.842-7.994c0.036-0.75,0.015-2.215,0.033-3.982
		c2.542,3.792,6.876,7.335,13.421,9.872c11.212,4.349,26.207,8.835,53.396,9.256c27.189,0.422,64.328,4.207,93.199,4.067
		s91.377-3.927,114.221-6.451c22.845-2.523,37.28-6.311,41.345-9.116c4.063-2.804,6.446-5.328,8.55-7.012
		C806.826,1528.982,806.966,1531.226,806.266,1534.452 M789.307,1507.245c10.372,7.433,13.877,15.567,5.887,22.999
		c-7.988,7.433-29.432,9.537-62.505,10.519c-33.077,0.981-79.606,5.049-111.7,4.348s-88.574-2.805-104.271-5.609
		c-15.695-2.806-26.486-7.434-29.99-11.5c-1.783-2.068-2.941-4.021-3.804-5.779c30.729,7.658,92.929,1.227,102.607-1.093
		c9.951-2.384,22.704-7.012,26.067-9.256c2.987-1.993,7.301,0.321,11.956,0.474c0.208,1.713,0.378,3.016,0.378,5.416
		c0,3.086,4.625,6.451,9.811,7.714c5.186,1.262,19.34,0.981,22.985-1.402c3.643-2.384,2.102-6.732,2.102-10.238
		c0-0.316,0.005-0.79,0.016-1.394c41.036,0.93,59.849-4.818,65.854-16.558c0.358-0.7,0.69-1.422,0.997-2.157
		c1.382,2.948,4.253,6.234,6.852,8.608c1.332,1.217,3.527,2.571,5.742,3.473c-5.564-0.134-12.318-0.377-16.393,1.717
		c-1.806,0.927-2.662,2.3-2.931,3.839c-8.39,0.391-15.874,0.773-16.411,6.82c-0.532,6.007,12.391,4.517,21.735,3.513
		c4.734,1.577,14.055,1.231,21.711,1.676c9.671,0.562,23.125-1.122,26.909-8.415c2.746-5.292,0.909-10.503-2.122-14.2
		C774.493,1500.99,781.546,1501.682,789.307,1507.245 M630.098,1357.326c0.28-34.36-0.14-114.718-0.28-128.883
		c7.696,0.386,15.45-0.611,22.31-2.101c0.086,7.023,0.354,31.605,0.114,52.167c-0.28,24.263-0.28,90.737-0.841,111.634
		c-0.561,20.896,0.141,106.163,0.281,113.034c0.14,6.871,0.279,12.062-0.141,13.604c-0.421,1.543,1.121,2.385,2.523,3.366
		c1.4,0.981-6.308,1.683-10.792,1.543c-4.485-0.142-9.11-0.421-12.053-1.684c-2.944-1.262-4.626-3.787-3.224-5.049
		s1.962-3.085,2.102-9.957C630.238,1498.128,629.817,1391.686,630.098,1357.326 M672.857,1288.589
		c-5.125,2.884-9.866,5.574-13.346,7.602c0.012-5.208,0.017-10.288,0.02-15.083C662.344,1282.637,667.021,1285.244,672.857,1288.589
		 M663.326,1276.952c4.439-2.738,9.989-5.996,15.221-9.017l14.906,9.165c-4.371,2.426-9.507,5.28-14.617,8.138
		C673.641,1282.352,668.391,1279.548,663.326,1276.952 M678.66,1291.942c4.707,2.739,9.901,5.807,15.314,9.078l-14.885,10.133
		c-5.551-3.844-10.97-7.572-15.564-10.69C666.616,1298.715,672.251,1295.515,678.66,1291.942 M700.016,1378.806
		c-3.579-2.803-9.386-6.967-15.768-11.456c6.184-4.037,11.6-7.574,14.88-9.717c1.573,1.088,3.122,2.168,4.649,3.244
		C702.059,1366.626,700.696,1372.536,700.016,1378.806 M702.033,1407.651c-3.559-2.393-9.952-6.686-17.083-11.462
		c5.742-3.829,11.1-7.364,14.596-9.588C699.473,1393.12,700.195,1400.072,702.033,1407.651 M694.014,1381.471
		c-5.45,3.518-10.81,7.034-15.673,10.293c-5.439-3.639-10.911-7.291-15.573-10.39c5.113-3.339,10.741-7.013,16.115-10.521
		C684.124,1374.471,689.51,1378.232,694.014,1381.471 M678.86,1400.26l18.075,12.032l-18.554,13.104
		c-6.678-4.521-13.085-8.86-18.321-12.458C663.268,1410.764,670.877,1405.614,678.86,1400.26 M678.674,1432.51
		c4.434,2.986,9.243,6.233,14.112,9.529l-14.632,10.148c-5.096-3.626-9.856-7.024-13.742-9.826L678.674,1432.51z M698.788,1446.11
		c6.07,4.122,12.019,8.181,17.217,11.762l-15.067,10.508c-5.321-3.788-11.186-7.949-16.903-12.012L698.788,1446.11z
		 M678.468,1460.238l16.824,12.079l-17.105,11.93c-6.149-4.27-12.356-8.575-17.15-11.888L678.468,1460.238z M678.562,1492.203
		l13.043,9.063c-10.432,1.585-21.33,1.33-27.718,0.811C667.382,1499.756,672.63,1496.219,678.562,1492.203 M684.166,1488.401
		c5.72-3.885,11.731-7.979,17.211-11.715l14.565,10.457l-16.441,11.92C696.258,1496.806,690.539,1492.828,684.166,1488.401
		 M707.104,1472.78c5.849-3.993,10.54-7.199,12.758-8.717c0.877,6.651,0.791,12.627-0.425,17.684
		C717.311,1480.116,712.805,1476.858,707.104,1472.78 M703.727,1442.675l8.783-6.106c2.071,5.552,3.79,10.933,5.094,16.057
		C714.636,1450.321,709.676,1446.796,703.727,1442.675 M697.776,1438.579c-4.472-3.063-9.261-6.316-14.046-9.56l18.812-12.994
		l2.458,1.637c0.979,2.803,2.103,5.689,3.388,8.669c0.549,1.27,1.074,2.529,1.592,3.786L697.776,1438.579z M699.135,1349.58
		c-4.289-2.852-9.527-6.313-14.944-9.866l12.805-8.295c6.187,4.219,11.206,7.671,13.239,9.142c-0.166,0.595-0.333,1.188-0.503,1.777
		L699.135,1349.58z M702.782,1327.669l11.533-7.472c-0.514,4.712-1.366,9.358-2.417,13.871
		C710.005,1332.737,706.789,1330.477,702.782,1327.669 M696.948,1323.585c-3.771-2.637-7.904-5.52-12.101-8.438
		c5.307-3.498,10.735-7.075,15.516-10.234c4.295,2.642,8.654,5.373,12.955,8.134L696.948,1323.585z M691.061,1327.376l-12.97,8.349
		c-4.309-2.811-8.539-5.551-12.31-7.963c3.42-2.283,8.037-5.339,13.078-8.666C682.88,1321.822,687.073,1324.667,691.061,1327.376
		 M678.188,1343.604c4.715,3.083,9.88,6.502,15.051,10.004l-14.481,9.896c-5.249-3.666-10.553-7.342-15.074-10.504L678.188,1343.604
		z M673.46,1367.125l-14.487,9.9c0.045-7.675,0.096-14.396,0.157-19.638C661.82,1359.202,667.245,1362.868,673.46,1367.125
		 M672.271,1395.874c-6.333,4.339-11.226,7.881-13.415,9.818c0.018-6.48,0.041-12.775,0.066-18.703L672.271,1395.874z
		 M673.367,1428.939l-13.911,9.825c-0.233-0.172-0.452-0.333-0.672-0.494c0.01-6.308,0.022-12.727,0.036-19.097
		C661.201,1420.768,666.553,1424.355,673.367,1428.939 M672.609,1456.032l-13.855,9.61c0.004-6.149,0.012-12.734,0.021-19.543
		L672.609,1456.032z M672.658,1488.101l-13.917,9.706c0-4.63,0.001-11.327,0.005-19.373L672.658,1488.101z M720.535,1518.203
		c-4.048,0.307-13.155,0.834-13.916-0.58c-0.931-1.731,6.605-3.08,12.648-2.49C719.573,1516.201,720.027,1517.246,720.535,1518.203
		 M720.494,1416.928c0.561,8.556,9.811,25.524,11.773,32.817c1.962,7.292,0.56,16.127,2.521,28.889
		c1.963,12.764,8.69,15.146,17.94,17.952c9.25,2.805,15.416,5.891,16.677,9.816c1.262,3.927-0.561,8.555-7.288,9.957
		c-6.726,1.402-20.462,2.245-26.067,1.964c-5.606-0.28-9.109-1.543-11.772-2.945s-2.382-3.226,0-3.506
		c2.382-0.281,8.41-0.14,15.837-0.421c7.428-0.28,13.454-2.104,14.156-5.049c0.699-2.945-1.963-5.189-3.084-3.366
		c-0.932,1.513-2.256,2.349-6.043,2.67c0.114-0.17,0.22-0.352,0.296-0.565c1.401-3.928-7.007-6.031-11.352-9.536
		c-3.605-2.91-5.373-5.821-6.111-9.452c2.032-9.91,0.989-20.083-0.056-22.383c-1.4-3.086-2.522-5.329-1.4-6.171
		c1.121-0.843-2.243-5.75-7.85-19.914c-5.605-14.165-11.772-27.067-11.633-45.72c0.141-18.651,6.167-33.098,9.813-45.719
		C716.01,1366.442,719.934,1408.374,720.494,1416.928 M714.798,1307.776c-2.591-1.979-5.659-4.136-9.086-6.404
		c3.341-2.218,6.045-4.025,7.696-5.155C714.216,1300.046,714.656,1303.912,714.798,1307.776 M711.023,1287.901
		c0.148,0.406,0.291,0.813,0.43,1.22l-12.044,8.199c-4.576-2.863-9.545-5.822-14.663-8.751c4.984-2.744,10.087-5.507,14.594-7.851
		L711.023,1287.901z M691.768,1260.402c3.936,3.217,7.571,7.083,10.811,11.636c-0.622,0.345-1.341,0.744-2.14,1.188l-14.9-9.298
		C687.956,1262.551,690.103,1261.339,691.768,1260.402 M685.518,1255.987c-2.252,1.319-4.441,2.619-6.506,3.87l-18.5-11.544
		C669.342,1248.84,677.854,1251.353,685.518,1255.987 M672.221,1264.045c-5.611,3.522-10.009,6.435-12.688,8.241
		c-0.002-6.356-0.011-11.877-0.026-16.057L672.221,1264.045z M659.488,1305.959c2.594,1.771,7.656,5.197,13.639,9.252l-13.085,8.908
		c-0.215-0.135-0.413-0.259-0.622-0.389C659.449,1317.933,659.473,1311.932,659.488,1305.959 M659.377,1331.522
		c1.995,1.256,6.658,4.206,12.673,8.092l-12.804,8.243C659.298,1342.945,659.341,1337.409,659.377,1331.522 M674.807,1206.285
		c0,3.366-0.281,5.75-4.346,7.714c-4.063,1.963-21.021,8.134-31.674,8.694c-10.651,0.562-26.347-3.506-31.533-7.012
		c-5.186-3.507-5.747-8.135-5.887-12.061c-0.09-2.516-0.354-3.993-1.048-4.842c21.403,1.812,45.867,2.042,74.719-0.875
		C674.492,1200.153,674.807,1203.768,674.807,1206.285 M764.501,1163.792c-0.7,2.104-7.567,7.713-22.004,12.481
		c-14.435,4.769-58.44,17.671-100.065,17.951s-89.836-7.573-108.757-13.885c-18.92-6.311-29.291-15.146-29.852-17.67
		c-0.56-2.523-0.28-15.707-0.139-21.737c0.017-0.764-0.059-1.458-0.201-2.076c2.742,2.11,4.746,3.623,5.246,4.04
		c1.681,1.401,1.121,6.029,1.121,10.518c0,4.487,0.279,9.256,2.242,10.799c1.962,1.542,19.48,10.798,54.377,17.951
		c34.897,7.152,72.317,9.396,107.354,5.189s71.757-16.128,75.681-17.812c3.924-1.683,7.85-3.787,8.129-5.47
		c0.28-1.683,0.981-9.396,1.121-13.042c0.141-3.647,0.561-5.609,2.103-7.152c0.548-0.549,2.168-2.081,4.212-4.038
		C765.085,1145.606,765.077,1162.06,764.501,1163.792 M793.652,1097.457c-0.141,6.732-6.027,15.006-16.959,19.494
		s-29.15,7.993-41.483,6.171c-12.333-1.824-18.64-9.957-20.462-12.762s-1.789-4.813,0.421-5.61
		c8.549-3.085,26.628-6.031,42.044-10.097c15.417-4.067,29.291-8.415,31.534-9.817c2.242-1.402,4.064-1.543,2.663,0.141
		c-1.402,1.683,0,3.225,1.261,2.523C793.934,1086.798,793.792,1090.726,793.652,1097.457 M796.595,1074.738
		c-1.541,2.805-2.803,2.945-10.511,4.909c-7.709,1.963-41.344,12.341-59.143,15.986c-17.799,3.646-20.461,9.957-21.022,14.727
		c-0.562,4.768-1.401,14.584-2.663,20.755s1.962,7.293,4.484,4.769c2.523-2.524,3.084-10.237,4.205-19.634
		c11.912,15.567,29.15,13.604,47.229,12.341c-21.582,20.056-62.506,42.354-114.922,43.195s-95.44-18.793-123.331-36.042
		c-27.89-17.25-40.362-30.433-48.912-37.164c-8.549-6.731-8.83-5.33-6.307-0.421c2.523,4.908,8.969,14.445,15.836,22.018
		c3.973,4.381,11.88,10.822,18.169,15.748c-0.917,0.562-1.663,2.006-1.77,4.587c-0.142,3.366-0.281,15.286-0.702,19.774
		c-0.419,4.488,3.224,10.378,10.932,15.707c1.248,0.863,2.821,1.793,4.697,2.765c1.077,6.757,3.188,18.195,3.712,21.077
		c0.562,3.084,1.402,3.926,4.204,5.328c2.803,1.403,3.084-0.28,2.383-6.451c-0.527-4.641-1.45-12.534-1.876-16.162
		c10.324,4.112,25.189,8.461,43.921,11.675c1.332,0.229,2.68,0.451,4.036,0.673c4.053,8.403,20.63,43.784,22.031,46.589
		c1.542,3.086,5.046,5.89,6.167,9.537c0.834,2.714,4.387,8.537,6.843,12.782c-3.797-2.926-8.209-5.563-13.57-7.874
		c-17.237-7.434-37.278-8.275-49.893-2.945c-3.848,1.625-8.009,3.855-12.105,6.79l-10.338-29.774
		c5.988-1.726,10.482-4.795,12.913-9.973c4.346-9.256,2.663-19.354-1.4-22.719c-4.065-3.366-6.867,0.561-4.486,4.768
		c2.383,4.207,4.064,12.201-0.139,16.689c-4.205,4.487-12.895,6.311-24.106,6.029c-11.213-0.279-26.909-1.401-34.056-6.311
		c-7.148-4.908-5.326-14.726-3.364-14.585c0.958,0.068,2.085,0.94,3.313,1.979c0.272,1.177,0.732,2.208,1.594,3.07
		c2.941,2.945,9.25,6.171,21.722,7.152c12.474,0.981,19.061-1.402,19.481-4.348c0.421-2.944-2.384-3.086-5.746-2.665
		c-3.364,0.421-8.97,0.562-16.257-0.841c-7.288-1.402-14.717-3.787-15.418-6.311c-0.445-1.608-0.837-3.896-1.494-5.71
		c8.11-0.229,13.726-3.645,15.93-7.987c2.991-5.89,1.869-16.361,1.029-30.76c-0.842-14.398-2.991-25.244-5.326-30.854
		c-2.336-5.609-5.548-5.046-4.671,0.654c0.514,3.35,1,6.958,1.459,10.601c-0.184-0.305-0.431-0.557-0.759-0.736
		c-1.543-0.841-2.944,0.421-3.645,2.104c-0.701,1.683-1.822,6.03-5.886,5.75c-4.065-0.281-7.429-4.067-15.697-9.677
		c-8.268-5.61-16.818-6.732-20.462-6.872s-2.943-1.262-1.822-3.926c1.121-2.665,3.363-8.836,3.784-13.885
		c0.299-3.584,1.941-7.376,3.771-10.181c0.561,1.02,2.244,2.105,4.685,3.356c3.831,1.962,13.642,8.414,17.753,11.499
		s7.381,4.301,8.876,2.337c1.495-1.963-0.467-4.487-5.979-7.947c-5.514-3.459-14.669-9.162-17.94-10.563
		c-2.156-0.927-4.057-1.39-5.459-1.204c0.108-0.116,0.215-0.234,0.321-0.339c2.522-2.525,0.42-5.189-0.562-18.652
		c-0.98-13.464,3.645-25.945,13.174-30.994c9.53-5.049,23.266,0.561,29.433,3.646c6.166,3.086,13.173,8.414,19.9,9.256
		c6.727,0.842,3.505,8.134,43.727,21.457c40.223,13.322,84.79,17.951,136.084,14.726c50.065-3.149,89.979-19.392,121.576-39.598
		C800.865,1066.767,797.649,1072.82,796.595,1074.738 M843.965,831.138c-4.764,13.042-16.117,15.006-25.507,7.992
		c-4.888-3.649-8.587-6.797-11.042-9.044c-3.446-15.205-7-29.001-9.7-37.936c-5.465-18.092-15.275-44.037-27.048-70.262
		c-1.273-2.838-2.519-5.556-3.731-8.167c0.581-0.208,1.098-1.429,1.349-4.033c0.7-7.293-0.28-20.336-1.121-24.403
		s-4.345-2.524-3.784,2.244s0.7,15.286,0.98,19.494c0.037,0.541,0.09,1.06,0.157,1.555c-8.834-18.559-15.648-30.392-18.517-33.951
		c-3.504-4.348-6.327-3.457-3.784,1.402c3.084,5.891,12.193,22.439,23.686,50.908c11.493,28.469,21.723,61.706,30.833,96.767
		c9.109,35.061,16.397,87.792,19.201,131.126c2.802,43.335-2.663,69.841-7.148,87.652c-0.427,1.693-0.872,3.314-1.323,4.896
		c-34.188,23.657-76.096,35.564-124.531,40.121c-49.191,4.629-101.047-4.487-131.6-14.164s-47.932-21.597-51.014-24.122
		c-3.084-2.523-3.785-3.646-6.587-2.944c-1.94,0.484-5.16-2.118-11.414-4.744c0.05-1.589-0.374-3.907-1.339-6.896
		c-2.057-6.356-2.617-14.023,0.186-32.349s11.026-30.293,17.005-42.26c5.98-11.967,5.793-15.333,4.858-19.073
		c-0.935-3.739-0.747-5.796,0.747-10.658c1.496-4.862,4.298-33.845,3.365-69.186c-0.936-35.341-5.98-73.487-6.729-81.527
		c-0.747-8.041-0.374-11.594,0.188-22.814c0.561-11.218-0.747-37.584-3.177-37.023s-1.495,15.52-1.309,30.853
		c-2.242-8.414-9.156-36.462-11.025-35.341c-1.867,1.122,0,8.602,3.178,23.935c3.176,15.333,6.727,59.462,8.782,83.023
		c0.396,4.549,0.759,9.807,1.076,15.453c-7.873,0.572-19.715-1.44-30.227-7.786c-11.33-6.838-18.166-10.923-27.493-20.719
		c-0.773-22.113-0.928-51.255,1.145-73.711c3.178-34.406,11.024-66.942,23.731-74.609c12.707-7.666,35.131-2.805,59.05,21.878
		s29.525,37.959,31.207,41.324c1.682,3.366,7.102,2.432,3.924-3.926c-2.115-4.235-7.803-16.687-16.001-29.227
		c11.487,0.848,48.752,16.927,84.021,20.999c22.959,2.651,45.597,3.763,61.367,2.678c0.239,2.18,0.148,3.922-0.869,4.942
		c-1.683,1.683-2.804,4.628,0.98,4.348c3.783-0.281,10.512-1.122,15.836-1.403c5.326-0.28,9.25,0.14,11.633-2.804
		c2.109-2.608,0.92-8.183-1.812-12.833c5.458-4.064,8.279-8.804,8.165-11.196c-0.186-3.926,2.242-2.992,2.991-11.967
		c0.688-8.278-5.792-15.91-19.409-19.982c8.247-5.01,15.812-10.237,21.277-14.705c2.28-1.865,4.531-3.566,6.734-5.175
		c18.742-5.045,32.191,11.913,42.037,29.017c10.09,17.53,25.086,62.267,27.749,71.242c2.663,8.976-0.28,15.567-8.409,20.055
		c-8.129,4.488-5.466,10.518,1.121,7.433c6.587-3.086,11.072-10.799,11.492-13.744c0.421-2.945,3.784,5.61,4.906,10.098
		c1.121,4.488,4.765,6.871,6.727,10.939c1.962,4.067,5.045,1.402,3.225-4.348c-1.823-5.75-7.288-19.073-12.054-30.012
		s-13.313-40.529-15.978-49.085c-2.663-8.554-4.344-19.072-8.548-32.396c-4.055-12.846-11.236-39.644-16.771-60.404
		c4.526-9.216,9.012-19.735,12.425-29.771c1.322-3.889,2.607-8.079,3.835-12.482c0.479,3.153,1.917,7.328,3.873,11.921
		c3.645,8.555,21.443,51.609,29.571,81.34c8.129,29.732,18.36,63.53,22.845,100.133S848.731,818.094,843.965,831.138
		 M668.498,366.236c-12.332-15.427-27.749-27.909-34.336-30.994c-6.587-3.086-8.628,0.877-3.083,4.488
		c8.829,5.75,23.124,19.774,30.553,28.328c7.429,8.555,19.2,27.207,23.825,33.098c4.625,5.89,8.128,1.823,5.325-3.086
		C687.98,393.162,680.832,381.662,668.498,366.236 M706.199,336.364c-10.091-10.659-26.347-22.018-36.859-24.683
		c-6.188-1.568-7.429,3.506-0.842,5.75c6.588,2.244,22.145,10.238,34.057,24.262c11.913,14.024,21.584,26.365,25.088,30.853
		c3.504,4.488,3.363,0.421,0.84-4.768C725.96,362.589,716.289,347.022,706.199,336.364 M462.48,1132.892
		c-2.897-2.15-5.793-4.862-9.997-7.573c-4.206-2.711-10.091-5.143-15.51-3.927c-3.808,0.854-2.71,3.739,0.186,3.927
		c2.897,0.186,9.343,0.561,13.454,4.394c4.112,3.834,9.063,8.041,12.24,9.163c3.177,1.122,6.26,0.374,8.782-2.245
		c2.522-2.616,3.926-5.796,1.869-7.385c-2.056-1.59-3.271,0.935-4.298,2.617C468.179,1133.546,465.376,1135.042,462.48,1132.892
		 M756.652,1109.377c-3.994,4.627-1.121,8.977,6.026,7.994c7.147-0.981,9.53-7.433,7.429-11.5
		C768.005,1101.805,761.979,1103.207,756.652,1109.377 M762.959,1112.883c-3.223,1.403-4.484-0.7-2.521-2.665
		c1.821-1.822,4.625-2.804,5.185-1.401C766.184,1110.218,766.184,1111.482,762.959,1112.883 M473.552,1157.481
		c-3.084,0.28-3.363,4.908-3.224,8.273c0.14,3.366,0.841,9.116-2.803,10.378c-3.645,1.264-9.531-0.42-13.455-1.682
		c-3.923-1.263-4.49,0.286-0.561,2.384c2.103,1.122,9.53,3.646,14.297,3.226c4.764-0.421,6.865-7.433,7.566-11.359
		S476.635,1157.201,473.552,1157.481 M621.27,1121.158c-4.204-1.121-6.308,0.14-7.429,1.122s-3.644,0.842-5.887,2.525
		c-4.014,3.012-4.063,8.134,2.663,9.677c6.727,1.542,12.473-0.281,14.436-4.349C627.016,1126.067,625.473,1122.28,621.27,1121.158
		 M615.803,1130.274c-3.924-0.421-4.904-3.085-1.962-4.207c2.943-1.123,5.887-0.982,6.447,1.122
		C620.848,1129.292,619.728,1130.694,615.803,1130.274 M660.932,1108.255c-4.485-2.523-18.921-3.646-33.356-4.208
		c-14.435-0.56-31.813-6.449-43.726-8.133c-11.913-1.683-20.322-2.385-23.687,7.152c-3.363,9.537-7.146,20.616-8.97,28.47
		c-1.504,6.491-0.14,9.115,1.683,6.45c1.821-2.664,5.187-9.957,6.728-14.585c1.542-4.627,2.382-5.89,3.362-7.292
		c0.981-1.403,1.263-2.385,0.843-4.628c-0.422-2.245,0.56-3.086,2.521,0.28c1.962,3.365,11.773,16.549,20.321,24.121
		c8.55,7.573,20.462,12.481,35.318,9.396c14.855-3.086,25.646-11.219,30.412-15.286c4.766-4.068,8.971-8.275,9.109-6.311
		c0.141,1.963-3.083,12.341-4.625,17.529c-1.541,5.189,1.401,5.61,3.224,1.684c1.821-3.928,4.905-15.006,5.746-20.056
		c0.841-5.048,0.42-7.012-0.701-8.414C664.014,1113.025,665.415,1110.78,660.932,1108.255 M658.268,1117.512
		c-1.821,1.543-4.625,3.646-10.511,8.134c-5.887,4.487-17.939,13.884-34.195,13.463c-16.259-0.42-24.106-8.415-29.712-14.865
		c-5.606-6.451-14.156-17.951-15.838-19.634c-1.682-1.684-2.395-2.593,0.561-3.085c5.887-0.982,22.003,2.522,32.375,5.048
		c10.371,2.525,19.06,3.506,29.011,3.927c9.95,0.421,21.583,0.982,25.927,2.384C660.23,1114.287,660.09,1115.968,658.268,1117.512
		 M656.586,725.255c-5.325,0-13.174-3.226-28.59-4.207c-15.417-0.982-27.889-4.488-36.159-6.311
		c-7.112-1.568-6.587,2.244-0.979,4.488c5.604,2.244,23.964,6.591,37.839,7.993c13.875,1.403,24.246,0.982,29.291,0.281
		C663.033,726.798,661.911,725.255,656.586,725.255"/>
</g>
</svg>
