<?xml version="1.0" encoding="utf-8"?>
<!-- Generator: Adobe Illustrator 15.1.0, SVG Export Plug-In . SVG Version: 6.00 Build 0)  -->
<!DOCTYPE svg PUBLIC "-//W3C//DTD SVG 1.1//EN" "http://www.w3.org/Graphics/SVG/1.1/DTD/svg11.dtd">
<svg version="1.1" id="Layer_1" xmlns="http://www.w3.org/2000/svg" xmlns:xlink="http://www.w3.org/1999/xlink" x="0px" y="0px"
	 width="510.236px" height="510.236px" viewBox="0 0 510.236 510.236" enable-background="new 0 0 510.236 510.236"
	 xml:space="preserve">
<path d="M312.721,389.359c-1.541-8.542-11.012-14.42-21.658,4.563c-10.646,18.982-16.942,17.341-22.218,7.605
	c-5.274-9.736-5.376-32.553-2.637-52.835s8.928-57.298,18.362-91.169c5.401-19.391,12-42.636,18.805-65.266
	c22.427-2.985,45.746-5.526,66.136-6.552c37.238-1.873,71.459,0.488,85.312,12.381c-12.468,15.883-10.756,29.077-5.134,32.988
	c5.622,3.91,14.341,1.304,27.459-12.544c13.119-13.847,17.275-35.676,10.92-48.383c-6.355-12.706-25.016-23.865-57.038-26.064
	c-32.022-2.199-63.394-0.325-109.349,5.54c-1.691,0.215-3.391,0.437-5.094,0.661c0.659-1.979,1.318-3.929,1.969-5.834
	c11.463-33.567,18.361-53.241,21.709-63.281c3.348-10.04,1.116-19.572-6.087-21.093c-7.203-1.521-16.435,2.434-24.347,21.499
	c-6.709,16.165-21.366,51.862-30.68,74.096c-27.397,4.229-53.018,8.721-69.999,11.734c0.829-2.469,1.655-4.886,2.477-7.236
	c7.913-22.615,21.102-59.528,24.145-68.453c3.043-8.923-0.812-18.76-7.506-19.064c-6.697-0.305-17.146,5.07-23.231,21.398
	c-5.577,14.958-21.029,58.511-28.73,79.357c-26.15,4.977-61.845,12.245-94.099,20.365c-14.432,3.632-21.267,17.512-22.571,26.634
	c-1.303,9.122,2.2,17.432,12.63,14.988c9.993-2.342,58.493-13.203,87.623-18.839c-4.69,12.042-9.76,24.729-14.708,36.406
	c-10.956,25.86-29.216,69.061-43.826,91.878c-14.608,22.818-24.956,36.306-37.332,36.914c-17.822,1.628-30.185-16.146-39.069-3.707
	c-5.653,7.912-11.47,31.335,5.667,42.165c4.361,1.905,9.247,3.086,14.533,3.629c16.84,1.723,38.753-9.027,58.434-33.872
	c19.681-24.846,28.303-43.303,30.232-46.751c-2.841,18.254-6.788,51.921-1.116,70.785c5.579,18.56,19.782,24.947,35.608,10.749
	c15.826-14.197,29.927-37.421,46.361-67.033c16.434-29.611,27.898-54.152,29.217-56.891
	c-10.652,45.737-14.709,85.996-11.363,111.045c3.348,25.049,17.145,42.491,35.709,37.827c13.869-3.486,27.352-13.974,36.468-28.01
	C313.82,407.653,314.24,397.78,312.721,389.359 M240.948,242.719c-10.653,23.021-33.58,70.785-44.942,91.979
	c-11.362,21.196-22.115,39.146-27.086,46.447s-5.073,6.186-5.58-0.202c-0.507-6.389-1.522-22.311,3.55-51.617
	c5.073-29.31,13.696-67.339,21.102-92.59c2.556-8.712,5.218-17.834,7.937-26.975c17.341-3.227,35.197-6.436,55.842-9.8
	c2.889-0.471,5.883-0.953,8.959-1.441C254.07,213.729,246.854,229.953,240.948,242.719"/>
</svg>
