<?xml version="1.0" encoding="utf-8"?>
<!-- Generator: Adobe Illustrator 15.1.0, SVG Export Plug-In . SVG Version: 6.00 Build 0)  -->
<!DOCTYPE svg PUBLIC "-//W3C//DTD SVG 1.1//EN" "http://www.w3.org/Graphics/SVG/1.1/DTD/svg11.dtd">
<svg version="1.1" id="Layer_1" xmlns="http://www.w3.org/2000/svg" xmlns:xlink="http://www.w3.org/1999/xlink" x="0px" y="0px"
	 width="210.474px" height="446.455px" viewBox="193.005 197.08 210.474 446.455"
	 enable-background="new 193.005 197.08 210.474 446.455" xml:space="preserve">
<path fill="#010101" d="M396.589,340.024c0.29-0.576,0.587-1.168,0.898-1.792c3.462-6.916,6.197-13.26,5.979-17.98
	c-0.188-4.087-1.448-5.406-3.462-6.35c-2.015-0.944-4.47-1.32-8.939,3.584c-1.718,1.885-3.826,4.858-5.918,8.175
	c-0.091-2.01-0.215-3.996-0.377-5.975c-1.321-16.22-5.412-33.886-11.078-45.895c-5.666-12.008-11.33-23.135-25.558-33.131
	c3.966-2.012,6.483-5.658,4.783-11.128c-1.698-5.469-8.813-8.613-12.59-9.744c-3.775-1.132-5.603-1.321-4.721-3.772
	c0.882-2.451,3.65-12.007,1.385-15.025c-2.267-3.018-4.405-4.652-7.932-3.583c-3.524,1.068-8.876,5.029-16.178,10.436
	c-6.521,4.828-14.354,5.783-22.159,10.498c-7.805,4.716-11.141,9.305-11.645,13.329c-0.505,4.024,3.397,6.099,4.783,6.476
	c-15.297,7.544-19.198,10.436-26.062,16.786c-6.86,6.349-18.758,18.797-28.83,40.234c-5.996,12.763-9.827,25.144-12.478,36.498
	c-0.082-0.231-0.162-0.456-0.238-0.663c-1.825-4.966-5.603-10.624-8.624-13.642s-7.869-2.641-9.128,2.703
	c-1.044,4.432-1.434,14.357,3.313,24.646c-0.522,0.181-1.06,0.489-1.55,0.942c-2.455,2.263-2.014,9.241,0.189,14.647
	c2.146,5.271,6.211,10.359,9.912,6.94c-1.377,10.85-2.17,22.513-1.729,41.468c0.63,27.096,5.036,43.881,18.319,56.456
	c0.49,0.465,0.998,0.814,1.492,1.064c-3.301,0.08-5.84,0.205-7.284,0.383c-3.887,0.475-5.413,2.262-6.106,8.234
	c-0.65,5.615-1.636,16.732-2.274,20.393c-1.909,2.979-4.316,8.311-8.049,17.328c-1.572-13.578-7.68-12.447-9.254-9.619
	c-1.573,2.83-0.504,9.682,0.378,16.346s0.525,15.018,0.252,18.986c-0.126,1.824-1.637,5.658-2.519,13.266
	c-0.881,7.607-1.07,24.393,1.574,42.875c2.644,18.484,11.457,33.699,22.41,42.625c10.952,8.928,20.836,6.979,28.704,3.961
	c7.867-3.018,13.533-8.549,16.365-11.441c7.365,4.023,23.922,4.275,36.322,3.02c17.878,8.109,30.907,8.109,42.68,3.834
	c11.771-4.275,15.863-11.441,21.402-20.684c5.54-9.242,9.254-28.164,10.009-43.189s-3.902-33.068-3.966-33.949
	s0.818-6.854,1.637-19.615s-1.637-16.598-4.092-17.539c-2.455-0.943-5.1,1.887-6.798,8.551c-0.905-2.506-1.772-4.855-2.61-7.033
	c0.704-0.268,1.157-1.229,1.478-3.781c0.44-3.52,2.519-17.414,2.581-21.563c0.063-4.15-0.378-5.785-1.447-8.049
	s-3.021-2.641-5.792-2.641c-0.521,0-1.339,0.012-2.423,0.027c2.869-2.471,7.071-5.848,10.165-9.709
	c4.029-5.029,8.372-11.945,11.71-22.445c3.336-10.498,6.798-28.039,9.127-55.134c0.552-6.413,1.033-12.234,1.435-17.611
	c5.728,2.367,8.502-1.104,12.162-6.467c3.777-5.532,4.471-11.441,3.147-13.706C398.536,340.441,397.57,339.97,396.589,340.024
	 M210.732,364.504c-0.724-1.197-3.104-0.234-4.356-1.941c-1.373-1.87-5.034-10.478-2.64-14.176c0.522,0.893,1.084,1.784,1.694,2.671
	c2.331,3.381,4.28,3.143,2.896-1.194c-1.386-4.338-5.917-12.825-6.043-21.124c-0.127-8.299,1.698-9.619,4.596-7.167
	c2.837,2.402,5.915,5.05,8.762,13.907c-1.356,6.298-2.373,12.244-3.223,17.715C211.81,357.11,211.24,360.791,210.732,364.504
	 M197.813,504.644c1.07-0.377,2.771,2.453,3.525,6.539s1.007,7.041,0.817,8.424c-0.188,1.385-2.77,8.426-3.524,10.438
	c-0.063-4.715-0.944-14.773-1.322-18.17C196.933,508.48,196.744,505.021,197.813,504.644 M240.556,637.546
	c-10.575,3.584-19.514-1.508-27.76-11.631c-8.246-10.121-12.086-20.369-14.038-36.965c-1.951-16.598-2.014-29.549-1.448-32.127
	c0.567-2.576,0.63-5.217,1.322-12.195c0.693-6.979,5.478-22.131,10.198-34.137c4.721-12.008,8.641-18.164,9.379-17.918
	c1.511,0.502-0.188,11.002-2.142,19.049c-1.949,8.047-6.42,27.977-6.798,31.873c-0.378,3.898-0.63,6.729-1.637,9.936
	c-1.007,3.205-1.007,8.424-0.252,8.928c0.756,0.502,1.574-1.637,2.896-5.156c1.322-3.521,5.101-17.729,11.835-33.949
	c6.735-16.219,13.786-25.461,15.988-27.85c2.204-2.391,2.646-0.314,1.765,4.338c-0.883,4.652-3.4,13.014-6.549,21.689
	c-3.146,8.676-6.104,19.613-7.992,23.387c-1.891,3.771-3.148,9.557-2.204,9.996c0.943,0.439,2.33-2.326,4.28-5.975
	c1.95-3.645,13.346-27.158,20.332-37.344c6.987-10.184,11.456-12.762,11.834-12.258c0.379,0.502-2.959,6.727-6.985,13.957
	c-4.029,7.229-13.786,26.781-18.319,37.846c-4.532,11.064-5.979,20.369-2.266,21.188c3.714,0.816,6.043-4.465,10.764-12.512
	c4.722-8.047,13.535-20.494,19.452-27.096s13.912-14.082,14.793-13.266s-6.862,12.824-14.479,26.656
	c-7.616,13.83-11.204,23.639-11.457,39.355c-0.252,15.717,4.029,30.553,8.563,40.738
	C258.497,627.111,251.132,633.964,240.556,637.546 M365.824,504.582c3.272,0,1.889,21.248,1.447,26.719
	c-0.818-3.645-4.28-12.951-5.035-15.15C361.48,513.949,362.551,504.582,365.824,504.582 M363.181,531.677
	c3.147,11.002,7.554,29.234,5.414,46.9c-2.142,17.666-7.429,33.383-15.107,42.373c-7.681,8.99-20.898,19.236-49.981,8.047
	c5.351-4.338,9.297-9.27,11.079-16.346c2.581-10.248,3.776-25.65,0-39.859c-3.777-14.209-11.897-28.668-15.297-36.148
	s-8.12-18.734-7.806-19.363c0.238-0.477,4.28,3.898,9.19,10.438s12.903,16.785,19.01,27.283c6.105,10.5,8.938,18.043,13.408,15.906
	c4.47-2.139-2.329-15.529-7.113-27.852c-4.784-12.32-12.022-28.164-13.849-32.25c-1.825-4.088-3.146-8.678-1.699-9.307
	c1.448-0.627,5.036,3.271,9.315,9.936c4.281,6.664,16.557,29.045,19.577,35.33c3.021,6.287,4.345,9.684,6.105,8.803
	c1.763-0.881-0.251-5.154-1.762-8.109c-1.512-2.955-3.777-11.756-5.604-17.918c-1.824-6.16-7.931-26.215-9.127-29.674
	c-1.195-3.457-2.077-7.67-1.069-8.172c1.007-0.504,5.539,5.721,11.33,18.168c5.792,12.447,8.938,19.363,12.148,28.855
	c3.211,9.492,4.218,13.141,5.854,12.824c1.637-0.313,0.943-5.531-0.063-9.68c-1.007-4.15-5.729-27.098-7.617-34.326
	c-1.889-7.23-4.783-17.541-3.966-17.98c0.818-0.439,3.211,3.018,5.288,7.922C352.92,502.38,360.033,520.675,363.181,531.677
	 M355.06,470.947c1.764,0.377,2.581,2.451,2.078,7.229c-0.452,4.281-1.711,14.82-2.148,19.182
	c-2.083-4.928-3.966-8.533-5.721-10.506c-3.021-3.395-6.986-2.137-7.112,2.643s3.085,15.023,6.986,31.938
	c-5.224-12.889-14.919-29.486-18.129-32.629c-3.21-3.145-7.05-1.193-6.421,5.783c0.63,6.979,6.986,22.443,11.521,37.973
	c-2.581-5.596-8.876-15.527-14.163-24.268c-5.288-8.738-9.316-12.008-12.716-10.438c-3.398,1.572-3.273,7.859-0.757,13.832
	c2.519,5.973,10.198,22.381,13.408,30.428c3.211,8.047,9.757,24.645,9.19,24.834c-0.566,0.188-4.406-7.041-10.261-17.414
	c-5.854-10.375-19.641-26.846-23.604-31.688c-3.966-4.842-6.799-5.908-8.373-3.896c-1.573,2.012-0.063,8.486,3.462,17.162
	c3.526,8.676,12.59,25.775,17.626,39.104s4.344,29.361,1.889,39.672s-10.387,16.281-12.4,17.162
	c-2.016,0.881-22.787,1.195-27.382,0.566c-4.598-0.629-9.507-2.643-9.946-3.332c-4.784-8.928-7.995-29.045-7.554-38.352
	c0.438-9.305,2.14-20.055,7.993-30.992c5.854-10.939,14.289-25.777,17.122-30.994c2.832-5.219,1.322-8.488-2.077-9.18
	c-3.398-0.691-7.489,3.207-15.358,11.189c-7.869,7.984-17.689,22.318-21.277,28.039c-3.588,5.723-7.428,14.084-7.932,13.518
	c-0.503-0.564,1.448-9.053,8.373-24.016c6.924-14.963,13.848-27.348,17.562-34.451s5.037-11.506,3.211-13.328
	c-1.824-1.822-5.288-1.258-10.387,4.213c-5.099,5.469-12.021,17.604-19.451,30.68c0,0,5.98-15.592,8.939-25.336
	c2.958-9.744,1.762-13.203-0.126-14.334c-1.89-1.133-3.588-0.566-8.246,5.596c-4.659,6.16-10.766,18.42-17.563,34.074
	c1.448-6.162,4.975-23.639,6.232-29.863c1.259-6.223,0.063-10.561-1.7-11.441s-2.329-0.063-2.581,0.504
	c-0.142,0.318-0.846,0.961-1.782,1.977c0.696-2.621,1.151-6.27,2.034-11.973c1.07-6.914,0.818-9.619,4.47-9.619
	c3.652,0,27.319,0.313,48.976,0.816c21.654,0.504,56.465,0.504,66.032,0.439c9.568-0.063,10.514-0.188,12.339-0.564
	C351.157,470.505,353.298,470.57,355.06,470.947 M378.162,342.696c0.849-1.287,1.879-2.847,2.954-4.308
	c-0.073,4.234-0.245,8.978-0.499,14.555c-1.134,24.833-6.673,68.652-12.464,81.666s-10.891,19.553-16.934,24.268
	c-4.902,3.824-8.52,6.035-8.904,8.211c-4.697,0.051-10.506,0.08-17.03,0.023c-14.855-0.125-31.663,0.189-51.743-0.439
	c-13.942-0.436-30.793-0.66-41.86-0.504c0.721-0.76,0.588-2.285-1.261-4.273c-4.028-4.338-14.016-13.285-16.03-37.344
	c-2.015-24.058-1.092-54.82,1.176-71.333c0.511-3.723,1.134-7.637,1.897-11.7c1.519,5.203,2.04,7.22,3.012,7.025
	c0.863-0.172-0.583-6.023-2.166-11.284c2.685-12.871,6.847-27.041,13.454-41.294c9.485-20.452,18.214-30.512,28.286-39.9
	s20.479-14.962,25.074-16.724c4.596-1.76,3.65-2.137,0.566-3.017c-3.086-0.88-4.219-2.452-3.021-5.847
	c1.196-3.396,5.666-7.104,13.031-10.247c7.363-3.144,14.792-5.784,19.262-9.242c4.469-3.458,7.868-6.035,11.394-7.858
	c3.525-1.824,7.177-1.824,8.624,0.125c1.448,1.949-0.188,8.299-2.454,11.756c-2.267,3.458-1.89,5.47,2.393,6.853
	c4.279,1.383,12.652,3.396,14.036,9.179c1.386,5.784-4.343,8.048-6.294,8.11c-1.951,0.063-2.771,0.566-0.314,1.634
	c2.455,1.069,10.89,6.79,16.933,15.843c6.044,9.054,14.92,22.885,18.444,43.002c2.343,13.369,3.351,21.552,3.431,32.821
	c-1.783,3.248-3.313,6.367-4.248,8.735C375.888,343.762,376.589,345.085,378.162,342.696 M397.236,344.394
	c-0.125,2.263-0.944,5.407-3.841,9.053c-2.895,3.647-5.286,4.464-6.986,4.401c-0.893-0.033-1.559-0.1-2.044,0.063
	c0.633-9.175,0.987-17.029,0.968-24.304c0.608-0.74,0.723-1.262,0.888-2.541c0.252-1.949,4.722-8.299,7.681-11.002
	s5.664-2.893,5.979,0.503c0.314,3.395-4.344,13.643-7.617,19.741c-3.272,6.098-4.28,10.75-2.267,9.807
	c1.56-0.729,3.12-3.311,5.35-7.64C396.452,342.092,397.338,342.564,397.236,344.394 M295.385,236.197
	c5.413,0.126,10.638-5.721,13.408-8.173c2.77-2.452,4.154-4.904,4.783-7.041c0.63-2.137,0.313-2.248-1.134-1.32
	c-0.881,0.566-2.58,0.943-4.469,1.634c-1.889,0.692-5.478,2.39-9.064,3.145c-3.588,0.754-6.924,1.697-9,5.344
	C287.831,233.432,289.971,236.071,295.385,236.197 M332.272,235.884c3.525,1.948,6.169,2.137,7.681-0.253
	c1.511-2.389,1.447-5.657-2.202-8.173c-3.651-2.514-3.777-1.696-6.548-3.332c-2.771-1.634-3.84-2.011-5.161-0.942
	c-0.937,0.756-1.07,1.697-0.253,3.961C326.607,229.407,328.747,233.935,332.272,235.884 M316.221,251.475
	c-7.802-2.401-11.331-0.88-13.471-0.126c-2.142,0.755-4.757,0.382-9.191,2.325c-2.581,1.133-9.127,3.898-18.758,15.467
	c-9.632,11.567-14.604,27.285-18.633,40.927c-4.029,13.643-9.568,45.454-12.464,73.807c-2.896,28.354-1.7,42.939,3.902,57.525
	s15.988,21.123,33.362,21.752s22.977-4.211,32.606-13.83s15.55-28.166,19.45-42.94c3.903-14.773,8.625-46.647,9.191-64.125
	c0.565-17.478,0.188-43.818-4.219-59.851C333.595,266.374,326.229,254.556,316.221,251.475"/>
</svg>
