<?xml version="1.0" encoding="utf-8"?>
<!-- Generator: Adobe Illustrator 15.1.0, SVG Export Plug-In . SVG Version: 6.00 Build 0)  -->
<!DOCTYPE svg PUBLIC "-//W3C//DTD SVG 1.1//EN" "http://www.w3.org/Graphics/SVG/1.1/DTD/svg11.dtd">
<svg version="1.1" id="Layer_1" xmlns="http://www.w3.org/2000/svg" xmlns:xlink="http://www.w3.org/1999/xlink" x="0px" y="0px"
	 width="510.236px" height="424.135px" viewBox="42.496 207.53 510.236 424.135"
	 enable-background="new 42.496 207.53 510.236 424.135" xml:space="preserve">
<path fill="#ffffff" d="M548.262,275.312c-5.482,0.444-15.299,2.794-28.174,9.526c-12.498,6.534-20.734,12.413-29.077,21.059
	c0.893-2.005,1.806-4.142,2.751-6.451c5.48-13.401,5.035-22.356,0.317-30.422c-2.668-4.561-6.722-7.882-11.896-9.391
	c1.036-3.736,3.558-13.566,11.195-24.715c8.223-12.003,16-18.418,17.594-19.37c1.593-0.953,2.039-1.779,0-0.699
	c-2.04,1.08-9.116,4.382-19.251,17.593c-9.425,12.285-11.958,22.754-12.421,26.561c-3.282-0.497-6.937-0.332-10.909,0.621
	c-11.92,2.858-20.652,8.32-35.568,20.705c-0.05,0.041-0.1,0.084-0.148,0.126c0.091-1.407,0.028-3.249,0.148-5.334
	c0.255-4.446,1.083-15.878,6.374-28.453s12.94-19.688,16.191-22.102c3.25-2.413,2.612-3.239,0.127-1.778
	c-2.486,1.461-13.514,8.32-19.76,23.372c-5.767,13.89-6.63,24.96-6.63,33.407c0,1.755,0.12,2.858,0.638,3.378
	c-14.016,12.29-31.03,31.242-37.418,38.811c-0.064-0.563-0.194-1.225-0.318-2.05c-0.382-2.541-1.977-17.593,1.211-31.121
	c3.188-13.528,8.605-23.054,10.582-26.23c1.978-3.175,0.638-3.683-1.785-0.698c-2.422,2.985-9.688,13.083-12.43,27.182
	c-2.741,14.1-2.614,24.389-0.766,32.963c0.311,1.438,0.506,2.576,1,2.953c-6.106,7.339-13.907,16.839-19.484,24.229
	c-3.299,4.372-8.848,11.906-14.033,18.92c-0.065-0.362-0.175-0.73-0.311-1.073c-0.572-1.461-1.082-6.288-1.529-12.893
	c-0.446-6.605,0-20.006,2.805-31.628c2.806-11.623,5.992-19.435,7.013-21.912s0-3.493-1.85-0.254
	c-1.848,3.239-6.438,10.797-9.113,22.483c-2.679,11.686-3.824,25.976-1.978,38.17c0.501,3.304,0.829,4.192,1.402,5.145
	c0.537,0.89,0.406,3.942,1.843,4.286c-3.868,5.226-7.354,9.91-9.302,12.417c-4.646,5.987-11.043,11.852-19.238,16.841
	c0.12-0.808-0.25-2.055-1.223-3.884c-1.529-2.88-3.738-9.866-3.696-18.207c0.043-8.341,1.785-14.396,2.592-16.767
	c0.809-2.371-0.255-2.964-1.359-0.847c-1.104,2.117-4.845,9.781-4.76,17.953c0.085,8.171,1.827,15.666,4.76,20.789
	c0.715,1.249,1.26,1.883,1.779,2.101c-7.707,4.496-11.406,5.687-18.629,6.473c-4.836,0.526-7.581,0.866-6.715,1.447
	c0.321,0.215,0.588,0.376,0.91,0.499c-0.904-0.054-1.132,0.509,0.217,1.547c4.292,3.303,5.205,8.13,5.397,12.64
	c0.189,4.51-2.231,10.416-8.032,24.643c-5.8,14.227-9.243,32.518-9.434,43.758c-0.167,9.844-1.275,27.564,21.8,36.203
	c23.236,8.697,48.381,3.619,69.225-7.559c19.438-10.426,36.844-35.502,43.345-44.395c6.502-8.893,16.255-23.5,25.307-32.709
	c9.053-9.209,16.383-11.432,19.952-12.449c3.568-1.016,6.885-0.635,6.692-1.521c-0.191-0.889-2.358-1.145-10.964-5.908
	c-4.487-2.483-7.568-4.348-9.537-7.327c1.096-0.619,0.547-2.922,1.06-4.168c0.573-1.397,1.021-4.636,5.101-11.115
	c4.294-6.819,10.963-14.226,16.764-18.989c5.802-4.764,11.347-7.685,14.087-8.955c2.741-1.271,3.062-1.588-0.444-0.636
	c-3.507,0.953-7.141,2.477-11.921,5.081s-10.709,6.351-17.401,14.735c-6.256,7.837-8.502,13.897-9.289,19.012
	c-0.453-1.993-0.706-4.377-0.782-7.326c-0.243-9.541,2.023-20.197,4.931-29.803c1.051-1.514,2.744-3.775,5.778-7.351
	c5.929-6.986,14.661-14.163,25.497-22.292c11.639-8.731,22.89-13.227,27.792-15.053c3.708-1.38,0.701-2.032-4.271-1.079
	c-4.974,0.952-10.199,3.048-19.952,9.018c-9.511,5.822-19.691,14.369-30.772,25.038c4.738-11.193,14.103-25.856,18.789-33.294
	c2.482-3.939,4.803-7.776,7.151-12.187c2.261-1.491,6.715-7.083,10.441-10.741c4.271-4.191,9.688-9.399,24.351-17.656
	c14.661-8.256,24.731-10.67,29.13-11.114C554.125,276.645,553.742,274.867,548.262,275.312 M301.938,409.87
	c-0.417-0.259-0.823-0.453-1.193-0.59c0.655,0.088,1.568,0.133,2.999,0.167c2.305,0.055,4.684-0.274,6.752-0.711
	c0.102,0.165,0.223,0.337,0.389,0.52c1.657,1.842,4.652,6.161-1.595,11.75c-0.557,0.498-0.957,0.923-1.209,1.271
	C308.395,414.416,304.096,411.209,301.938,409.87 M464.143,345.216c-12.664,21.509-16.913,43.188-17.083,58.684
	c-0.17,15.497,6.034,17.953,19.972,23.881c-9.009,0.338-14.362,4.996-21.247,11.516c-6.885,6.521-20.143,25.406-26.347,33.703
	c-6.205,8.299-18.018,28.115-42.411,42.766c-24.392,14.648-51.249,14.059-66.462,8.043c-15.214-6.012-19.293-15.75-19.293-32.008
	c0-16.26,5.524-32.264,8.839-41.41c3.315-9.145,7.14-18.418,7.904-27.055c0-0.002,0-0.004,0-0.004
	c0.278,0.088,0.769,0.039,1.466-0.166c2.167-0.635,5.355-3.302,6.247-7.622c0.796-3.852-0.438-6.336-2.115-7.595
	c0.651-0.192,1.22-0.377,1.669-0.534c2.167-0.763,3.824-2.096,10.646-5.526c6.819-3.43,14.81-9.59,21.1-17.465
	c6.289-7.876,24.646-33.196,45.215-57.923c20.569-24.727,43.431-44.288,55.499-52.587s29.236-14.565,37.905-7.96
	s10.029,16.428,5.185,31.078C485.984,311.682,476.806,323.707,464.143,345.216 M439.451,322.564
	c-8.158-5.462-21.8,0.381-33.593,13.02c-11.792,12.638-24.668,29.088-34.229,44.394s-15.298,26.674-23.902,46.807
	c-8.605,20.135-12.749,33.725-11.475,41.98c1.274,8.258,5.163,13.021,13.577,13.846c8.414,0.826,14.47-3.746,21.8-9.336
	c7.332-5.588,19.762-16.258,34.996-40.141c15.233-23.879,25.814-44.012,32.637-64.526
	C446.08,348.095,449.122,329.038,439.451,322.564 M375.551,398.459c-0.988-0.031-2.231,0.572-2.455,2.001
	c-0.224,1.429,0.541,2.445,1.307,2.636c0.767,0.19,0.67,0.317,0.128,2.636c-0.542,2.318-0.638,2.318-2.484,1.841
	c-1.851-0.476-5.548-2.159-3.857-7.494s6.757-5.303,8.255-5.176c0.926,0.078,0.988,0.095,0.479,1.619
	C376.409,398.047,376.538,398.491,375.551,398.459 M408.92,396.11c-0.225,1.206-1.723,7.621-4.974,12.511
	c-3.251,4.891-8.571,10.956-18.677,8.765c-10.103-2.191-8.604-10.607-7.649-14.258c0.956-3.652,2.741-9.241,3.283-10.765
	c0.357-1.004,0.51-1.207,1.944-1.049c1.434,0.159,24.127,2.986,25.241,3.208C409.206,394.744,409.143,394.903,408.92,396.11
	 M160.555,475.541c15.895-9.568,28.897-25.404,36.716-36.328c7.819-10.924,17.679-22.948,24.478-28.283
	c6.8-5.335,9.434-6.436,10.879-7.452c1.164-0.819,0.728-2.679-0.197-3.062c0.081-0.571-0.313-1.26-1.354-1.765
	c-2.29-1.11-12.572-5.395-16.552-15.993c2.672-5.667,9.134-14.038,12.854-18.049c3.888-4.192,7.521-7.939,9.625-9.781
	c2.104-1.841,0.893-2.604-0.701-1.778c-1.593,0.826-5.482,3.112-9.816,7.05c-4.172,3.79-8.758,9.468-13.472,16.966
	c-1.798-10.013,0.545-21.371,3.464-32.399c1.559-5.885,3.432-11.916,5.24-18.631c1.037-0.085,2.282-1.694,5.023-4.678
	c3.441-3.747,9.625-9.336,17.91-14.544c8.465-5.319,16-8.51,17.849-9.209c1.849-0.699,2.996-1.588,0.638-1.08
	c-2.359,0.508-10.454,2.287-18.741,6.478c-7.862,3.978-16.375,10.335-21.017,16.53c1.484-6.167,2.833-12.959,3.807-20.721
	c2.355-18.775,1.753-34.142-9.506-42.12c2.585-3.532,12.584-14.022,21.809-21.137c9.88-7.622,19.313-12.957,21.545-14.036
	c2.23-1.08,3.06-2.033,0.573-1.08c-2.485,0.953-11.091,4.001-22.118,11.178c-10.87,7.074-18.455,15.382-24.715,23.283
	c-12.482-6.766-26.121-4.71-44.446,7.245c-3.76,2.452-7.625,5.281-11.498,8.333c0.36-1.885,1.553-5.239,4.358-11.297
	c3.825-8.257,10.136-18.419,19.06-29.342c8.924-10.924,15.617-15.815,20.779-20.006c2.255-1.83,3.188-3.049,1.148-1.779
	c-2.04,1.271-7.841,4.573-16,12.575c-7.722,7.574-17.274,17.847-25.37,31.502c-6.407,10.808-8.182,17.894-7.81,21.439
	c-14.352,11.827-28.344,26.115-36.853,35.403c-11.559,12.618-28.981,34.635-36.886,42.849c-0.406,0.422-0.816,0.846-1.229,1.271
	c-0.09-0.9-0.369-1.981-0.599-3.155c-0.51-2.604-2.741-12.829-1.084-27.119s5.609-22.737,7.649-26.548s1.466-4.382-0.828-1.079
	c-2.295,3.302-9.052,12.321-10.709,28.453c-1.658,16.131,0.382,23.88,1.338,28.135c0.473,2.103,1.043,3.345,1.883,3.701
	c-7.064,7.098-14.897,14.114-21.494,17.003c-7.733,3.388-10.539,3.388-12.409,3.472c-1.869,0.085-1.784,1.101,0.851,2.202
	s6.969,3.557,12.579,6.775c5.608,3.218,13.938,12.533,13.853,25.235c-0.085,12.702-5.014,33.704-1.104,47.252
	c3.91,13.549,13.854,26.336,33.4,30.824C122.904,492.73,144.663,485.109,160.555,475.541 M223.172,398.714
	c1.721,1.143,4.717,2.159,7.012,2.667c0.293,0.065,0.563,0.086,0.809,0.074c-0.172,0.322-0.637,0.758-2.02,1.429
	c-2.257,1.095-3.925,2.193-6.635,4.491c-0.48-0.522-1.237-1.044-2.162-1.421c-2.805-1.143-3.314-3.557-2.04-5.716
	C219.411,398.078,221.451,397.57,223.172,398.714 M74.206,456.232c-2.125-6.857-1.785-20.406,0.255-34.887
	c2.04-14.481,0.85-34.804-22.269-43.865c8.414-2.117,16.573-5.166,32.808-23.88c16.232-18.715,26.856-32.095,36.886-42.934
	c10.028-10.839,29.236-29.469,42.75-39.292c13.513-9.823,34.931-22.61,49.294-12.279c14.364,10.331,11.389,29.554,9.944,40.393
	c-1.445,10.839-7.904,32.01-11.39,46.744c-3.483,14.735-7.988,35.651,6.63,49.793c-2.975,1.101-4.42,4.657-4.164,7.071
	c0.324,3.07,2.261,5.602,5.258,6.137c-0.766,0.681-1.599,1.433-2.538,2.289c-5.949,5.419-14.873,15.411-23.372,26.251
	c-8.5,10.838-18.443,24.811-35.271,33.871c-16.828,9.063-33.486,15.666-54.819,11.688C82.875,479.351,76.33,463.093,74.206,456.232
	 M109.263,316.657c1.148-0.254,1.53-1.016,1.658-4.001c0.127-2.985-0.128-10.606,5.227-24.579
	c5.354-13.972,10.518-22.737,16.254-30.167c5.737-7.431,10.264-12.004,11.984-13.782c1.721-1.779,0.51-2.795-2.231-0.699
	c-2.74,2.096-9.625,8.637-15.361,16.449c-5.737,7.812-11.41,17.529-14.853,27.882c-3.442,10.352-4.717,17.846-4.525,24.705
	C107.486,315.006,108.116,316.911,109.263,316.657 M112.004,450.73c7.841,1.969,14.661-1.59,22.374-9.525
	c7.713-7.939,17.593-17.148,26.899-32.963c9.307-15.814,19.951-35.439,27.537-55.89c7.585-20.45,9.88-34.042,9.37-44.267
	s-5.801-17.402-9.688-18.99c-3.889-1.587-12.176,0.509-25.052,13.084c-12.876,12.575-22.501,28.389-29.385,41.536
	c-6.885,13.147-14.088,28.389-19.952,42.997s-8.414,22.928-10.008,30.041C99.277,438.281,104.165,448.759,112.004,450.73
	 M142.07,360.543c9.689,0.932,23.968,2.964,25.412,3.218c1.445,0.254,1.487,0.381,1.19,2.202c-0.298,1.821-1.785,7.748-5.609,13.21
	c-3.825,5.462-10.752,9.358-17.848,7.664c-7.097-1.694-9.01-6.351-8.287-11.347c0.722-4.997,3.272-12.533,3.655-13.592
	C140.965,360.84,140.963,360.437,142.07,360.543 M127.876,369.498c1.339-5.144,6.63-5.652,7.904-5.525
	c1.396,0.139,1.467,0.191,0.828,2.159c-0.637,1.969-0.956,1.715-1.656,1.715c-0.701,0-1.683,0.668-1.977,1.906
	c-0.298,1.249,0.123,2.173,0.893,2.413c1.02,0.317,1.084,0.572,0.445,2.794c-0.637,2.223-0.828,2.223-2.549,1.779
	C130.044,376.294,126.479,374.867,127.876,369.498 M285.13,545.361c-1.466-3.43-3.718-2.725-2.677,0.316
	c1.849,5.398,6.565,15.496,8.223,17.594c1.657,2.096,1.912,0.889,1.02-1.523C290.803,559.333,286.596,548.791,285.13,545.361
	 M308.715,558.189c-1.722-1.523-6.819-7.813-11.729-14.289c-4.907-6.479-8.986-13.527-10.517-15.941s-1.785-1.461-2.614-1.969
	c-0.828-0.508-1.749-0.73-1.338,1.842c0.446,2.795,9.243,16.195,13.641,21.594c4.398,5.398,9.308,7.367,11.347,9.082
	C309.545,560.222,310.437,559.714,308.715,558.189 M144.131,494.996c1.657-1.205,1.402-2.477-1.977-1.078
	c-3.379,1.396-13.896,6.033-19.951,9.209c-6.056,3.174-13.896,7.367-16.765,9.146c-2.869,1.777-5.673,3.236-7.394,4.443
	c-1.708,1.197-2.168,1.525-0.446,1.018c1.72-0.51,16.318-6.732,26.518-11.875C134.314,500.712,142.474,496.203,144.131,494.996
	 M266.582,394.458c-2.337,4.446-6.417,14.523-10.496,22.314c-4.08,7.792-14.279,24.048-22.778,37.515
	c-8.499,13.463-20.568,35.057-30.596,49.961c-10.029,14.904-17.763,23.033-23.203,27.268c-5.439,4.234-13.513,9.314-23.967,14.143
	c-14.661,6.77-12.919,14.904-11.984,19.73c0.936,4.826,4.165,17.021,16.403,30.4c13.086,14.307,31.362,27.859,39.521,33.111
	c8.159,5.25,6.034,2.793-3.399-5.422c-9.435-8.213-24.647-20.576-32.807-29.723c-8.158-9.145-13.854-19.223-15.978-28.453
	c-2.125-9.229,3.569-11.771,10.114-15.326c6.544-3.559,16.913-8.723,23.882-14.313c6.969-5.588,15.383-15.836,24.646-29.045
	c9.265-13.211,22.948-37.939,30.258-49.625c7.309-11.686,19.229-31.67,22.415-37.386c3.188-5.716,8.925-20.832,10.327-24.833
	C270.342,390.775,268.739,390.354,266.582,394.458 M134.952,508.777c-1.084,0.826-8.032,6.098-13.005,12.514
	c-1.169,1.508-1.02,2.031,0.319,1.143s8.542-6.158,11.219-8.637c2.678-2.479,3.442-3.43,3.378-4.764
	C136.8,507.699,136.036,507.953,134.952,508.777 M244.208,591.66c2.167,4.891,5.992,15.18,5.291,21.086s-2.806,8.193-3.952,9.717
	c-1.871,2.486-1.785,3.367,0.063,2.859c1.849-0.51,5.163-3.939,6.311-8.766s0.765-12.385-2.104-18.547
	C247.357,592.73,242.041,586.771,244.208,591.66 M206.089,590.136c-5.036-5.082-8.136-5.16-9.689-3.176
	c-2.485,3.176-1.401,9.908,1.722,14.607s10.07,4.637,14.597,6.924c4.526,2.285,8.032,6.922,10.008,10.098
	c1.977,3.174,3.506,5.145,4.972,4.508c1.467-0.635,0.766-2.793-2.613-7.811C221.707,610.271,211.125,595.216,206.089,590.136"/>
</svg>
