<?xml version="1.0" encoding="utf-8"?>
<!-- Generator: Adobe Illustrator 15.1.0, SVG Export Plug-In . SVG Version: 6.00 Build 0)  -->
<!DOCTYPE svg PUBLIC "-//W3C//DTD SVG 1.1//EN" "http://www.w3.org/Graphics/SVG/1.1/DTD/svg11.dtd">
<svg version="1.1" id="Layer_1" xmlns="http://www.w3.org/2000/svg" xmlns:xlink="http://www.w3.org/1999/xlink" x="0px" y="0px"
	 width="536.038px" height="467.735px" viewBox="29.295 187.733 536.038 467.735"
	 enable-background="new 29.295 187.733 536.038 467.735" xml:space="preserve">
<path fill="#010101" d="M347.549,199.552c3.181,0.826,11.919,1.616,14.098,0.35c2.181-1.267,1.388-2.893-0.675-3.475
	c-2.063-0.582-12.48-3.723-15.71-1.957c-1.849,1.011-1.643,1.802-0.816,2.539C345.27,197.747,344.367,198.726,347.549,199.552
	 M328.871,206.944c1.98,0.47,3.045-0.664,3.393-1.922c0.347-1.259-0.215-2.295-1.644-2.862c-1.429-0.568-2.788-0.391-3.479,1.433
	C326.493,205.308,326.891,206.473,328.871,206.944 M319.886,220.884c1.736,0.891,6.56,2.058,10.794,1.689
	c4.233-0.369,5.636-1.751,4.453-3.433c-1.183-1.683-6.775-3.281-9.932-3.607c-3.155-0.326-5.722,0.189-6.433,1.891
	C318.144,218.919,318.147,219.993,319.886,220.884 M273.717,565.705c-2.33,0.41-13.026,1.793-19.063,3.047
	c-4.278,0.889-4.425,3.24-0.398,2.402c4.025-0.836,18.041-4.189,20.461-4.807C277.137,565.732,276.048,565.292,273.717,565.705
	 M564.32,544.896c-2.266-6.756-5.992-9.061-8.689-9.844c-2.699-0.787-7.224-0.619-8.202-0.793c-0.979-0.174-2.505-0.756-7.056,0.33
	c-4.551,1.088-15.78,3.383-23.604,9.932s-14.799,14.682-18.735,25.523c-3.937,10.844-5.141,19.252-2.808,34.096
	c-9.164-2.67-18.685-5.373-28.757-7.818c-10.075-2.447-33.503-8.906-46.626-12.328c-13.122-3.422-40.312-10.76-52.723-14.086
	c-12.409-3.328-28.998-7.936-47.564-12.287c-18.566-4.354-39.413-7.83-53.36-9.469c-13.945-1.639-37.176-3.75-53.005-4.047
	c-15.828-0.297-34.282-0.068-50.011,0.563c-15.728,0.631-34.653,1.951-42.899,2.523c-3.624,0.25-8.357,0.68-13.208,1.094
	c0.712-6.859,3.532-11.678,5.699-15.234c2.224-3.648,5.532-7.111,8.199-10.271c2.668-3.16,4.008-5.959,3.924-8.107
	s-0.972-3.359-2.156-5.295c-0.947-1.549-1.544-2.893-1.781-3.754c0.493-0.426,1.022-0.873,1.601-1.34
	c5.532-4.484,22.938-15.623,38.607-25.006s53.995-30.137,75.163-41.688s60.724-34.285,75.99-43.092
	c15.266-8.808,71.801-41.03,89.051-51.133c17.249-10.103,30.808-17.852,45.146-25.108c14.17-7.172,27.192-15.927,20.542-26.832
	c1.024-0.964,1.979-1.916,2.808-2.817c4.826-5.263,6.24-11.942,4.259-14.934c-1.49-2.252-2.845-3.099-4.371-3.104
	c3.361-4.667,9.094-16.701-2.146-20.874c1.013-1.058,1.89-1.997,2.563-2.745c4.177-4.645,9.912-14.419,8.206-20.863
	c-1.706-6.444-7.239-8.431-15.823-3.323c-1.952,1.162-4.154,2.498-6.53,3.952c-5.276-23.871-6.975-28.89-7.882-32.612
	c-0.898-3.682-1.313-6.01-7.254-6.349c-5.939-0.339-16.203,3.488-25.303,7.111c-2.753,1.095-5.521,2.302-8.313,3.584
	c-20.794-5.616-31.008-8.238-35.412-6.651c-4.46,1.605-2.955,6.194,3.764,8.792c5.423,2.096,11.589,4.677,14.991,6.14
	c-1.109,0.583-2.226,1.169-3.354,1.767c-2.657-0.729-11.621-1.758-22.758-3.55c-11.582-1.865-26.921-5.653-26.593,0.151
	c0.375,6.628,9.715,8.121,32.918,14.556c0,0-0.581,0.292-1.098,0.95c-8.143-1.715-26.191-1.873-28.701,2.54
	c-2.51,4.415,11.876,8.181,24.354,10.456c0.172,0.031,0.348,0.056,0.52,0.084c2.146,4.982,6.249,14.13,7.862,17.877
	c-0.102,0.042-0.192,0.102-0.274,0.181c-12.497-13.033-25.632-15.295-32.998-12.996c-7.431,2.319-10.336,9.513-8.286,14.321
	s5.748,6.424,13.03,6.842c7.1,0.407,9.789,2.731,13.401,6.32c-0.014,0.013-0.025,0.022-0.039,0.035
	c-1.842,1.888-2.22,4.636-0.315,6.813c2.599,2.971,4.055,3.773,5.73,3.527c1.678-0.245,1.678-0.245,2.216,1.375
	c0.538,1.619,0.831,4.14-1.889,8.503c-2.723,4.362-10.51,11.837-28,26.522c-17.492,14.683-34.598,28.223-52.553,42.568
	c-17.956,14.346-57.063,45.954-77.465,61.739c-20.399,15.784-58.942,45.813-77.193,59.925c-0.742-6.361-6.063-14.658-15.092-15.838
	c-8.502-1.113-16.363,1.408-21.679,5.645c-12.436-0.943-17.396-1.072-3.419,0.83c-7.46,1.977-8.726,3.051-6.031,2.732
	c2.052-0.24,5.088-0.805,6.813-1.127c-4.318,4.576-6.896,10.656-5.585,17.771c1.475,7.998,6.465,12.635,10.907,14.877
	c1.132,0.57,2.216,0.775,3.219,0.676c-10.188,6.004-17.86,9.939-27.373,16.35c-9.692,6.531-13.912,9.672-16.171,12.813
	c-2.26,3.141-3.023,5.984-5.156,13.074c-2.132,7.088-2.838,9.893-2.951,10.512c-0.111,0.619,0.118,0.672-0.487,1
	c-0.606,0.328-2.73,1.555-2.757,4.807c-0.027,3.25,0.656,4.799,1.696,5.498c1.041,0.699,1.836,0.904,1.99-0.729
	c0.115-1.223,0.354-3.449,0.107-4.883c0.565,1.303,1.783,1.332,2.642,0.75c0.063-0.041,0.127-0.088,0.189-0.135
	c0.024,0.225,0.047,0.443,0.07,0.656c0.17,1.566-0.256,3.449-0.683,4.135s-0.975,0.57-1.3,0.041
	c-0.326-0.531-0.796-0.072-0.553,0.453c0.647,1.398,1.763,0.908,2.451,0.029c0.565-0.721,0.891-2.32,0.974-3.752
	c0.513,0.295,1.113,0.443,1.703,0.5c-0.119,0.842-0.442,2.066-1.274,2.355c-0.875,0.301-0.323,1.273,0.583,0.799
	c0.25-0.129,0.47-0.357,0.661-0.641c0.425,0.697,1.374,0.732,2.077-0.451c0.778-1.313,1.599-3.602,2.327-5.914
	c0.73-2.316,0.166-3.959-0.949-4.791c-1.118-0.834-3.225-0.588-3.851-0.078c1.951-3.16,5.143-11.477,6.287-14.789
	c0.976-2.824,1.037-3.697,0.931-4.332c2.643-1.66,6.893-4.408,9.541-5.961c1.724-1.01,2.985-1.715,3.911-2.232
	c-0.889,1.213-1.833,2.531-2.862,3.992c-7.359,10.438-7.439,17.512-5.242,22.797s4.606,9.273,10.647,12.873
	s11.94,6.215,14.549,7.205c-8.7-1.648-14.577-5.75-18.592-8.258c-2.419,11.742-3.015,16.07-7.871,25.279
	s-7.619,13.982-11.677,18.764c-4.057,4.783-7.167,7.758-8.999,9.025c-1.832,1.27-2.306,1.982-4.817,3.875
	c-2.513,1.895-3.301,2.443-4.7,2.754c-1.399,0.309-1.4,0.846-1.48,1.646c-0.079,0.801,0.354,1.104,1.125,0.998
	c0.772-0.105,0.938-0.07,1.226,0.668c0.289,0.736,0.758,2.324,0.528,4.791c-0.229,2.467-0.916,5.74-1.152,7.264
	c-0.238,1.523-0.136,2.105,1.843,1.852c1.979-0.256,10.653-1.439,13.139-1.688c2.485-0.25,4.263-0.217,4.734-1.119
	c0.075,1.498,0.292,2.375-1.195,2.543c-1.486,0.166-10.9,0.566-14.344,0.766c-3.443,0.197-3.945,0.223-5.258,0.484
	c-1.313,0.264-1.775-0.031-1.444-1.195c0.333-1.16,1.149-5.496,1.428-8.035c0.279-2.539-0.108-3.357-0.302-4.045
	c-0.169-0.6-0.27-0.992-0.208-1.539c0.071-0.629-0.5-0.902-0.684-0.289c-0.14,0.465-0.12,1.473,0.021,2.455
	c0.116,0.799,0.148,2.639-0.534,6.113c-0.416,2.121-0.751,2.906-1.282,4.732c-0.531,1.828-0.108,3.33,2.619,3.383
	c2.729,0.057,13.151-0.363,17.355-0.727c4.204-0.365,5.288-0.492,5.458-2.57c0.171-2.08-0.161-4.857-2.112-6.059
	s-9.865,0.166-13.513,0.998c2.732-2.973,4.052-5.887,5.932-7.414c1.88-1.529,10.018-7.377,17.057-14.072
	c7.04-6.693,13.916-13.525,20.563-22.693c6.052-8.35,8.6-15.416,9.693-18.352c25.085,6.354,44.334,7.939,48.921,8.674
	c4.588,0.736,17.657,3.316,34.445,6.188c16.787,2.869,39.166,6.424,54.246,8.934s40.916,6.305,53.377,7.951
	c12.462,1.646,34.401,4.145,44.541,5.352c10.141,1.205,25.729,3.373,35.156,4.484c9.427,1.109,23.518,2.123,32.436,5.184
	c8.917,3.061,13.428,5.514,16.193,9.186c2.767,3.672,3.943,6.586,3.927,7.564c-0.017,0.98,0.009,1.48,0.781,2.1
	c0.773,0.621,1.411,0.477,2.531,0.373c0.61-0.057,2.946-0.193,6.429-0.303c-2.747,1.893-7.569,4.217-12.716,5.162
	c-5.431,1-6.181,2.479-6.334,3.766c-3.535,0.75-5.556,2.912-3.828,4.584c1.729,1.67,5.405,0.055,6.091-0.361
	c1.536,2.252,6.337,1.994,11.297-0.479c4.78-2.383,11.915-10.061,14.109-12.826c0.729-0.004,1.469-0.006,2.229-0.006
	c9.203,0.018,33.349-0.207,43.896-0.461c10.546-0.252,24.037-1.023,33.477-1.461c9.438-0.436,17.125-0.594,23.974-1.201
	c6.848-0.609,10.269-2.188,13.073-6.184c2.805-3.992,3.783-9.555,5.384-16.613s5.609-26.99,6.98-37.855
	C564.529,565.978,566.587,551.652,564.32,544.896 M58.167,617.873c-3.524,3.145-13.731,11.059-14.353,11.484
	c-0.621,0.424-1.183-0.076-1.957-1.957s0.175-4.033,1.854-6.156c1.68-2.125,4.438-4.6,7.306-7.689
	c2.87-3.09,6.863-8.773,8.708-11.936c1.5,4.02,5.265,6.541,7.475,7.602C67.2,609.22,61.69,614.73,58.167,617.873 M159.834,476.044
	c-2.112,1.313-4.433,2.775-6.846,4.313c-7.599,0.598-9.833-2.494-6.706-7.449c2.51-3.98,6.511-4.48,8.967-3.955
	c-1.296,1.332-2.058,2.863-2.105,4.373c-0.103,3.244,2.081,4.346,4.458,3.111c1.979-1.027,3.835-4.688,1.816-7.391
	c0.686-0.375,1.402-0.691,2.119-0.922c2.641-0.844,5.997-0.682,9.547,1.248C166.387,472.087,162.524,474.369,159.834,476.044
	 M157.64,470.207c0.978,1.049,0.889,2.326-0.12,3.551c-1.229,1.494-2.813,1.383-2.386-0.428
	C155.363,472.361,156.335,471.21,157.64,470.207 M469.797,265.296c-2.329,3.69-4.743,6.608-6.995,9.041
	c1.856-7.385-0.751-11.945-5.892-13.873c2.521-2.471,5.281-5.223,7.726-7.712C469.113,252.561,474.531,257.796,469.797,265.296
	 M432.716,206.341c0,0-16.971-5.516-21.023-6.629C443.146,185.528,457.247,189.848,432.716,206.341 M368.034,233.967
	c11.942,1.189,26.088-3.656,41.406-11.166c16.471-8.074,31.226-17.988,37.321-25.367c0,0,3.72,15.93,6.848,30.754
	c-7.628,4.675-16.71,10.275-25.241,15.165c-12.231,7.011-22.943,12.242-31.951,15.659c-8.578,3.254-13.323,5.375-16.092,1.407
	c0.507-1.905,0.14-3.313-1.184-4.991c-0.818-1.037-1.826-2.109-2.791-2.874C373.165,245.756,369.242,236.864,368.034,233.967
	 M345.756,256.79c-2.897-0.172-7.789,0.187-10.361-4.327c2.189-4.401,9.045-6.65,12.2-5.326c3.176,1.332,3.055,5.202,1.315,9.988
	C347.641,256.902,346.556,256.838,345.756,256.79 M350.89,257.582c2.777-4.245,2.255-10.021-1.866-12.021
	c-4.127-2.003-11.152,0.831-14.167,5.761c-1.593-4.318,2.001-7.994,6.849-9.261c9.504-2.482,19.659,2.25,29.954,12.648
	c-0.932,1.316-2.229,2.883-4.124,4.884c-3.057,3.226-4.309,3.685-5.993,4.739c-0.197,0.123-0.381,0.244-0.557,0.366
	C357.589,260.376,353.922,258.457,350.89,257.582 M361.086,272.935c-1.863-1.963-3.21-4.137-1.354-5.378
	c0.648,0.321,1.84,0.12,3.238-0.855c2.522-1.755,4.324-3.586,6.198-5.581c1.875-1.995,3.363-4.729,3.814-5.615
	c0.45-0.886,0.901-1.773,2.309-0.104c1.407,1.668,2.977,3.963,2.198,5.866c-0.776,1.902-3.007,5.32-7.407,8.77
	C365.686,273.485,363.137,275.094,361.086,272.935 M340.889,314.15c19.487-17.137,24.729-21.541,27.371-27.504
	c2.641-5.962,1.063-8.307,0.514-9.419c-0.551-1.113-0.788-1.879,0.847-3.226c1.61-1.328,7.188-6.368,9.298-10.26
	c0.755,1.704,2.866,3.728,9.849,1.726c8.006-2.293,21.936-8.281,40.787-18.981c18.854-10.701,27.446-16.818,34.059-20.569
	c6.609-3.75,11.063-3.59,11.602,1.61c0.54,5.201-0.322,10.71-11.999,22.667c-11.677,11.956-13.036,13.204-15.035,15.133
	c-2,1.929-1.95,5.071,1.929,1.615c1.104-0.984,2.864-2.65,4.915-4.637c0.317,0.213,0.837,0.422,1.479,0.734
	c1.521,0.74,4.029,3.287,4.501,6.519c0.559,3.836-2.029,7.241-1.831,8.508c-1.351,1.341-2.562,2.533-3.547,3.66
	c-2.812,3.211-2.08,4.338,0.196,2.55c1.843-1.449,7.266-6.586,10.832-10.239c0.023-0.001,0.046-0.002,0.069-0.005
	c2.854-0.315,4.712,0.177,5.108,3.511c0.398,3.334-2.135,8.697-7.86,13.868c-5.728,5.171-9.082,7.654-10.818,9.284
	c-2.041,1.916-1.762,3.273,0.486,1.679c1.507-1.07,6.118-4.528,10.447-8.278c1.326,2.458,2.421,6.572-4.8,11.63
	c-7.935,5.561-44.93,23.81-59.945,32.951c-15.02,9.141-66.048,38.881-88.901,51.989c-15.677,8.992-32.112,18.415-50.181,28.625
	c-0.945-10.359,6.278-19.6,9.914-23.931c2.02-2.407,5.216-4.679,8.301-5.583c-0.466,1.16-0.901,2.327-1.312,3.5
	c-3.288,9.366,1.663,14.268,7.123,10.365c5.46-3.904,5.867-11.665,2.856-15.029c-0.766-0.857-1.842-1.5-3.129-1.87
	c1.302-2.415,2.921-4.986,4.875-7.58c3.491-4.63,7.575-7.875,11.436-9.837c-0.284,13.21,8.898,18.831,14.077,14.656
	c5.851-4.716,6.577-11.469,3.303-16.737c-2.211-3.557-7.13-5.564-13.167-4.223c1.707-9.314,4.582-14.863,11.07-27.687
	C323.906,328.637,332.634,321.409,340.889,314.15 M282.607,389.541c0.978,0.239,1.861,0.73,2.588,1.542
	c3.673,4.1-2.43,10.207-4.568,9.556C279.218,400.21,279.785,395.635,282.607,389.541 M303.909,367.842
	c3.517-1.122,6.584-1.084,8.463,0.024c4.442,2.618,5.481,7.5,0.374,12.192C308.113,384.314,303.464,377.201,303.909,367.842
	 M256.864,381.72c9.688-7.609,21.39-16.787,29.528-23.246c5.865-4.654,13.659-10.716,22.246-17.555
	c-1.853,3.23-5.22,10.182-7.709,22.907c-0.026,0.131-0.043,0.257-0.066,0.387c-1.829,0.778-3.725,1.855-5.647,3.279
	c-7.546,5.582-12.112,12.093-15.313,18.979c-3.181,0.386-6.832,2.072-10.181,5.534c-6.535,6.754-13.141,17.607-11.716,28.562
	c-7.579,4.278-15.447,8.694-23.668,13.278c-7.186,4.006-14.694,8.186-22.101,12.316c-7.689-0.74-6.793-9.107-3.323-15.691
	c3.122-5.92,8.07-8.199,11.828-8.248c-0.778,2.035-1.225,4.105-1.33,6.113c-0.359,6.83,3.968,6.174,6.43,3.613
	c2.36-2.453,3.298-8.691-1.542-11.333c0.466-0.756,0.987-1.458,1.561-2.063c5.274-5.557,10.225-8.468,16.1-8.993
	c-0.3,9.513,3.128,13.619,6.858,12.42c3.901-1.255,4.888-6.745,2.574-11.402c-1.103-2.218-3.545-3.564-6.713-3.888
	C245.5,399.813,248.304,391.705,256.864,381.72 M223.252,422.605c3,1.168,3.815,5,0.506,8.012
	C220.943,433.173,221.034,427.523,223.252,422.605 M244.44,409.508c6.434,0.508,6.845,7.156,4.353,9.11
	C246.246,420.615,244.098,416.696,244.44,409.508 M200.362,426.007c1.196,3.984-1.375,8.07-3.899,9.781
	c2.062-3.201-0.534-4.703-2.896-3.072c-1.57,1.084-2.119,3.438-1.236,4.701c-2.476,1.563-6.228,2.301-8.729,1.188
	C188.98,434.542,195.081,429.958,200.362,426.007 M193.923,436.113c-0.361-0.559-0.183-1.568,0.264-2.09
	C194.922,433.169,195.537,434.38,193.923,436.113 M171.606,447.72c0.727-0.555,1.416-1.08,2.052-1.566
	c1.977-1.514,4.533-3.457,7.397-5.623c3.997,1.574,9.045,1.266,13.17-2.273c0.725-0.023,1.625-0.277,2.726-0.857
	c5.228-2.758,5.825-8.818,5.064-12.627c2.281-1.705,4.368-3.26,6.112-4.554c8.861-6.574,26.363-20.819,34.986-27.667
	c1.409-1.119,3.175-2.513,5.19-4.101c-2.277,3.712-5.317,10.252-6.146,18.191c-2.963,0.17-6.337,1.102-9.752,2.891
	c-4.949,2.595-8.424,6.255-10.534,10.213c-5.109-0.988-10.572,2.865-14.174,8.068c-3.865,5.586-6.014,17.705,2.296,19.598
	c-4.123,2.303-8.199,4.58-12.157,6.799c-2.612,0.271-4.782,0.049-5.932-1.432c0.368-0.623,0.663-1.246,0.857-1.854
	c1.74-5.443,0.357-7.041-1.338-6.777c-1.482,0.23-2.613,4.465-1.958,7.875c-0.161,0.193-0.326,0.387-0.498,0.564
	c-1.825,1.896-5.724,5.438-7.662,3.186c3.992-4.844,5.665-10.779,2.654-11.834c-2.754-0.963-6.521,4.666-5.401,10.787
	c-2.87,2.555-7.461,5.898-9.182,4.258C167.602,457.289,168.344,452.05,171.606,447.72 M190.907,449.845
	c-0.25-2.045,0.34-3.285,0.805-3.057C192.072,446.966,191.709,448.333,190.907,449.845 M180.32,452.996
	c-0.29-3.471,2.027-7.061,3.008-6.605C184.343,446.863,182.607,450.394,180.32,452.996 M139.19,472.468
	c8.75-6.789,21.025-16.076,29.564-22.576c-2.219,3.846-2.827,9.65,0.121,11.482c2.733,1.699,6.973-0.041,10.689-3.699
	c2.279,3.646,7.742,0.822,10.966-2.98c0.826,1.191,1.938,1.74,3.072,1.891c-7.341,4.125-14.15,7.977-19.92,11.289
	c-2.303-2.41-7.658-3.475-12.079-2.383c-1.646,0.408-3.107,1.047-4.339,1.832c-4.417-2.242-10.047-0.23-13.088,5.141
	c-2.956,5.215-0.168,10.045,5.742,9.859c-10.229,6.586-21.238,14-24.938,17.33c-4.966,4.467-9.03,8.188-10.328,11.107
	c-0.649,1.459-0.429,2.471,0.229,1.535c0.504-0.717,1.497-2.412,4.426-5.188c0.122,1.055,0.297,2.842-1.13,5.594
	c-1.438,2.773-5.05,10.695-11.92,7.521c-6.815-3.146-5.511-13.684-1.193-18.951c4.319-5.27,6.018-6.043,11.291-10.375
	C121.632,486.564,130.437,479.257,139.19,472.468 M92.621,469.775c-1.955,5.766,1.762,7.664,5.919,0.217
	c0.482,3.1,2.859,2.773,4.067,0.48c0.566,2.674,3.397,1.514,3.866-1.029c2.822,2.023,7.264-0.398,3.812-3.129
	c3.789-0.922,4.847-2.273,4.192-3.293c2.188,0.213,2.744,0.682,2.882,1.822c0.139,1.143-0.771,3.461-3.08,5.305
	c-2.937,2.346-5.267,1.686-6.097,2.178s-2.866,2.932-4.482,2.902c-1.617-0.029-2.059-1.813-2.678-1.734
	c-0.618,0.078-3.103,4.992-5.662,5.002s-1.661-2.795-1.661-2.795c-3.095,5.053-5.284,6.793-7.2,5.965S87.139,474.902,92.621,469.775
	 M96.755,497.697c1.816,0.09,2.237-1.119,0.334-0.975c-1.902,0.146-4.747-0.201-6.562-2.246s-0.741-5.102,2.47-5.541
	c3.21-0.439,6.266,1.289,7.197,1.912c0.933,0.625,1.107,0.184,0.156-0.908c-0.952-1.094-2.45-3.318-3.778-5.826
	c-1.327-2.508-0.453-2.369,0.517-2.455c2.179-0.195,9.574-2.004,17.414-6.664s7.212-6.787,7.231-7.391
	c0.992,0.961,1.846,1.85,2.223,2.383c0.379,0.531,0,0.631-0.619,1.148c-1.046,0.877-2.716,2.527-3.144,5.123
	c-0.44,2.688-0.041,4.074,0.828,4.52s1.639-0.035,2.891-0.824c1.251-0.789,2.342-1.422,2.881-1.77
	c0.54-0.348,1.004,0.139,0.263,0.773c-0.742,0.635-6.99,5.896-9.109,7.688c-2.021,1.711-12.834,10.508-15.712,13.039
	c0.246-0.875,0.101-1.566-0.488-1.293C100.666,498.898,98.636,499.759,96.755,497.697 M124.298,477.835c0,0-1.636,1.297-2.284,1.57
	c-0.646,0.27-0.902-1.355-0.584-2.955C121.839,477.513,123.117,477.951,124.298,477.835 M96.296,507.642
	c-1.489,1.775-4.817,6.209-6.943,7.781c-1.677,1.24-2.493,1.541-2.768,1.244c5.377-5.643,9.784-9.951,10.316-10.424
	C97.614,505.613,97.786,505.867,96.296,507.642 M46.185,566.248c-0.519-0.066-1.457-0.455-1.728-2.627
	c-0.044-0.355-0.082-0.701-0.11-1.039c0.4-0.939,1.261-2.398,1.814-1.846C46.775,561.353,46.702,566.314,46.185,566.248
	 M49.464,561.298c-0.612,0.592-1.157,0.373-1.546-0.398s-0.178-2.09,0.826-2.016c0.667,0.051,0.951,0.947,1.118,2.004
	C49.722,561.035,49.59,561.177,49.464,561.298 M53.936,565.742c-0.269,0.473-0.765,0.398-0.937-0.029
	c0.232-0.574,0.375-1.219,0.41-1.76c0.555-0.012,1.047-0.09,1.377-0.182C54.423,564.732,54.101,565.453,53.936,565.742
	 M57.013,536.224c-1.375,1.162-1.116,1.92,0.364,1.113c0.244-0.133,0.628-0.363,1.11-0.66c-0.191,0.41-0.396,0.906-0.595,1.432
	c-0.633,1.666-5.306,12.574-6.779,16.891c-0.39,1.143-0.305,1.656,0.314,1.416c0.689-0.27,3.001-0.781,4.149,0.107
	c1.147,0.893,0.813,2.104,0.161,4.385c-0.167,0.588-0.348,1.154-0.527,1.688c-0.425,0.211-1.142,0.287-2.191,0.223
	c-1.047-0.066-1.718-0.213-2.066-0.615c-0.021-0.301-0.063-0.627-0.123-0.961c0.6-0.439,1.239-0.85,2.011-0.998
	c1.153-0.223,1.387-1.182-0.069-0.957c-0.423-1.113-2.099-1.463-2.563,0.01c-0.325-0.637-0.75-1.09-1.272-1.117
	c-1.18-0.059-2.188,0.934-1.988,2.328c-0.063-0.145-0.138-0.273-0.227-0.371c-0.764-0.818-1.825-0.061-2.419,1.047
	c0.035-1.369,0.363-2.486,1.284-3.18c1.424-1.07,1.813-1.014,2.495-3.244c0.682-2.232,2.771-11.174,4.771-16.506
	s4.136-7.381,10.808-11.867c6.669-4.484,16.141-10.473,25.897-16.102c-6.814,5.879-10.231,9.197-14.581,14.834
	C71.867,526.669,61.229,532.66,57.013,536.224 M50.772,560.08c0.078-0.881,0.674-1.002,1.103-0.566
	C51.427,559.669,51.074,559.869,50.772,560.08 M90.005,549.41c-8.034,0.158-18.573-0.441-21.119-1.791
	c-2.545-1.346-2.399-2.666-0.902-5.828c1.498-3.164,5.401-10.787,13.004-19.125c1.379-1.51,2.757-2.992,4.094-4.41
	c0.548,0.896,1.81,1.297,3.798,0.215c2.307-1.26,7.622-7.869,9.293-9.865c1.171-1.4,1.89-2.191,2.425-2.709
	c-0.322,0.82-0.651,1.869-0.844,3.248c-0.586,4.201,0.63,10.922,5.174,13.02c4.543,2.1,9.091,1.359,11.926-3.363
	c2.607-4.344,3.766-7.633,3.818-10.049c0.44,1.02,1.072,1.945,1.492,2.871c0.758,1.674,0.871,3.502-0.544,5.518
	s-7.18,8.41-10.923,14.197c-3.643,5.631-5.386,10.576-5.65,17.121C99.518,548.921,94.018,549.332,90.005,549.41 M405.859,653.847
	c-2.628,0.633-2.841-1.746-1.052-2.379c1.667-0.588,3.711-0.947,3.987,0.139C409.07,652.693,408.488,653.214,405.859,653.847
	 M551.087,538.931c4.997-0.588,7.813,1.521,9.572,7.684c0.043,0.146,0.075,0.307,0.114,0.457c-0.405-0.064-1-0.088-1.857-0.064
	c-2.37,0.063-16.534,0.861-23.723,1.652C539.576,541.964,546.591,539.458,551.087,538.931 M469.213,598.38
	c1.78,0.063,4.262,1.938,3.309,5.131c-0.955,3.193-5.378,3.934-7.497,1.953c-0.739-0.689-0.315-1.08,0.185-0.873
	c0.5,0.205,2.4,0.711,4.054,0.041c1.651-0.67,2.212-2.996,1.395-3.564c-0.815-0.57-0.888-1.693-1.706-1.549
	c-0.817,0.145-1.289,0.102-2.028-0.271C466.181,598.873,467.432,598.316,469.213,598.38 M392.479,619.205
	c-2.326-0.283-9.304-2.205-19.832-3.814c-10.527-1.609-28.289-4.088-55.666-6.949c-27.378-2.861-60.37-7.443-85.475-11.4
	c-25.105-3.955-47.501-8.326-49.347-8.756c-1.847-0.434-2.175-1.133-2.116-3.033c0.103-3.357,0.563-8.986,5.163-19.127
	c4.598-10.141,8.024-12.574,10.778-14.887c2.753-2.314,4.789-2.609,8.187-2.703c3.396-0.096,7.535,0.057,20.807,0.742
	c13.272,0.684,24.244,1.586,48.563,4.672c24.318,3.086,50.571,9.613,71.921,14.861c21.35,5.25,62.804,16.219,94.908,24.738
	C432.796,599.361,416.988,605.804,392.479,619.205 M421.271,637.976c-1.452,0.131-1.998,0.143-2.293-0.814
	c-0.296-0.957-0.54-1.627-1.052-2.377c-0.513-0.75-0.392-1.537,1.656-1.596c3.134-0.09,7.413-0.143,12.43-0.18
	c-0.765,1.523-1.913,3.229-2.959,4.545C424.823,637.734,421.98,637.912,421.271,637.976 M428.134,645.337
	c-5.764,5.094-12.499,9.686-18.043,6.922c1.184-1.174,0.264-3.281-1.492-3.436c0.903-1.336,2.625-1.133,5.029-1.602
	c2.404-0.465,6.635-1.338,12.813-5.746c6.177-4.41,8.305-11.467,9.929-15.408c1.623-3.943,4.301-12.904,9.353-18.922
	c5.051-6.02,10.25-7.607,14.646-8.006c4.397-0.396,6.813,0.857,7.206,2.135c0.394,1.273-0.611,1.787-2.878,1.852
	c-2.265,0.063-6.814,1.033-12.681,6.732s-8.346,10.76-10.81,16.152C438.743,631.406,434.625,639.599,428.134,645.337
	 M490.302,635.97c-6.467,0.385-31.396,0.998-44.314,1.133c-3.235,0.035-6.312,0.1-9.126,0.178c0.667-1.033,1.604-2.539,2.624-4.314
	c7.554-0.039,16.103-0.074,24.671-0.158c17.928-0.178,30.691-1.17,37.896-3.826s10.058-9.422,10.94-18.99
	c0.884-9.57,2.216-22.328,3.132-29.803c0.918-7.475,2.866-19.121,7.194-27.324c4.328-8.201,9.368-11.654,12.263-13.172
	c2.894-1.52,7.438-1.564,12.032-2.039c-6.762,1.502-10.776,4.85-14.672,11.328c-1.322,0.313-1.619,0.799-0.601,1.027
	c-0.67,1.172-1.342,2.438-2.026,3.809c-4.86,9.725-7.149,17.061-9.854,28.969c-2.704,11.908-3.956,28.477-4.889,35.617
	s-2.441,13.877-8.577,16.137C500.858,636.798,496.769,635.585,490.302,635.97 M548.845,628.039c-2.003,4.18-4.241,4.869-9.369,5.436
	c-5.127,0.568-23.949,1.156-25.424,1.164c-1.474,0.01-2.245-0.133-1.367-1.061c1.888-1.998,3.145-4.84,4.223-8.5
	c2.259-0.02,29.235-1.068,33.534-1.324C549.891,625.511,549.355,626.976,548.845,628.039 M553.371,612.384
	c-0.121-0.068-0.289-0.107-0.519-0.096c-1.419,0.082-0.831-0.652-2.604-0.676c-1.775-0.023-21.209,0.211-28.723,1.115
	c-2.473,0.299-3.427,2.076-0.861,2.045c2.565-0.033,26.192-0.631,28.132-0.635c1.938-0.006,2.444-0.475,3.572-0.295
	c0.265,0.041,0.507-0.027,0.707-0.152c-0.611,2.66-1.231,5.162-1.844,7.365c-1.99,0.186-6.825,0.465-12.312,0.664
	c-6.151,0.229-16.617,0.42-21.489,1.307c0.651-3.084,1.011-7.088,1.666-12.602c0.203-1.709,0.412-3.604,0.646-5.662
	c0.578,0.365,1.819,0.402,3.756,0.264c2.83-0.207,21.128-0.66,25.258-0.674c3.403-0.012,5.602,0.131,6.373-0.283
	C554.566,606.892,553.975,609.705,553.371,612.384 M555.383,602.794c-0.243-0.471-0.961-0.818-2.736-0.766
	c-2.854,0.082-13.403,0.012-19.256,0.285c-4.987,0.234-11.627,0.459-13.51,1.252c0.268-2.307,0.571-4.809,0.94-7.48
	c0.539,0.225,1.485,0.256,3.015,0.098c2.855-0.293,11.791-0.775,21.555-1.109c7.455-0.258,10.43-0.115,11.531-0.689
	C556.437,597.226,555.923,600.046,555.383,602.794 M557.256,592.398c-0.405-0.33-1.293-0.355-2.944-0.287
	c-2.804,0.115-13.026,0.238-19.574,0.637c-5.291,0.322-11.427,0.52-13.651,1.482c0.428-2.953,0.939-6.1,1.565-9.42
	c0.367,0.467,1.367,0.537,3.747,0.33c3.28-0.283,15.049-0.721,21.596-1.119c5.996-0.363,9.461-0.217,10.688-0.891
	C558.243,586.191,557.768,589.3,557.256,592.398 M558.947,581.255c-0.451-0.203-1.213-0.301-2.415-0.211
	c-3.367,0.258-16.133,0.787-22.462,1.23c-5.271,0.369-9.804,0.465-11.176,1.266c0.003-0.018,0.006-0.035,0.009-0.051
	c0.455-2.324,1.021-4.727,1.663-7.145c8.296-0.762,28.226-1.607,31.465-1.727c2.232-0.082,3.345-0.197,3.862-0.604
	C559.605,576.365,559.288,578.789,558.947,581.255 M560.131,572.048c-0.016,0.119-0.029,0.242-0.044,0.359
	c-0.402-0.5-1.41-0.676-3.167-0.633c-2.477,0.057-14.284,0.502-20.927,1.084c-5.586,0.49-9.321,0.924-10.799,1.199
	c0.674-2.375,1.416-4.75,2.203-7.076c1.452-0.129,5.468-0.453,10.289-0.768c5.667-0.369,16.71-0.385,18.565-0.375
	c1.566,0.006,3.93-0.041,4.69-1.002C560.702,567.197,560.416,569.615,560.131,572.048 M561.07,563.552
	c-0.519-0.898-2.757-0.855-8.836-0.66c-7.103,0.23-15.914,0.963-24.206,2.268c0.719-2.045,1.465-4.033,2.227-5.941
	c12.584-1.793,19.864-1.854,31.272-2.314C561.455,559.019,561.291,561.25,561.07,563.552 M561.566,554.626
	c-7.424-0.367-20.194,0.969-30.465,2.512c0.912-2.188,1.832-4.244,2.73-6.086c0.153-0.314,0.314-0.621,0.479-0.922
	c0.184-0.004,0.374-0.01,0.577-0.021c4.134-0.225,22.45-1.061,24.235-1.205c1.287-0.107,1.666-0.271,1.928-0.586
	C561.408,550.203,561.563,552.326,561.566,554.626 M444.308,311.144c-1.688,1.423-0.639,1.752,0.888,0.726
	c1.525-1.026,4.51-3.187,3.838-5.846c-0.626-2.474-4.236-2.152-4.236-2.152c11.358-8.371,12.263-17.229,2.124-16.637
	c7.304-6.269,8.681-10.294,6.255-13.648c-2.425-3.354-9.488-1.1-9.488-1.1c4.752-9.979,5.733-15.888,4.099-19.066
	c-1.636-3.178-5.396-3.713-9.613-2.528c-4.219,1.185-4.276,2.646-1.6,2.047c2.678-0.598,7.229-0.959,8.939,1.575
	c1.712,2.535-0.865,10.869-3.351,15.783c-2.483,4.913-2.305,5.575,1.059,4.919c3.36-0.657,7.152-1.388,8.49,0.457
	c1.336,1.845-0.031,4.481-4.263,8.82c-4.229,4.339-4.241,5.35-0.978,5.215c3.266-0.134,6.799,1.259,4.383,4.774
	c-2.415,3.515-6.353,7.361-7.655,9.293c-1.304,1.932-1.044,2.328,1.558,2.373C447.355,306.194,448.656,307.477,444.308,311.144
	 M101.393,497.289c1.677-1.432-0.629-2.854-1.852-1.723C98.385,496.634,99.58,498.835,101.393,497.289 M100.252,493.865
	c0.959-0.83,0.37-0.947-0.337-0.479c-0.707,0.475-1.807,0.697-3.229-0.563c-1.423-1.262-2.125-1.832-3.369-1.896
	s-2.481,0.627-2.681,1.828c-0.166,1.002,0.479,1.459,0.712,0.631c0.233-0.83,0.652-1.502,2.055-1.436
	c0.967,0.047,1.819,0.727,2.592,1.344c-0.977,0.129-1.667,1.229-1.574,1.914c0.104,0.77,0.518,0.602,0.66-0.021
	c0.12-0.523,0.941-1.098,1.871-1.186c0.015,0.01,0.028,0.02,0.043,0.027C98.018,494.636,99.293,494.697,100.252,493.865
	 M105.749,491.507c0.98-0.707,10.536-7.121,11.503-7.732c0.966-0.609,0.913-0.916-0.129-1.805s-5.182-4.098-10.062-0.938
	c-4.88,3.162-4.171,8.08-3.169,10.172C104.479,492.427,104.768,492.216,105.749,491.507 M112.643,481.722
	c2.382,0.465,3.244,1.699,2.68,2.047c-0.428,0.266-1.211,0.732-2.57,1.594C113.23,484.357,113.281,483.138,112.643,481.722
	 M104.546,485.228c0.038-0.131,0.093-0.258,0.148-0.383c-0.19,1.949,1.175,3.906,3.429,3.607c-1.192,0.852-2.152,1.576-2.493,1.848
	c-0.609,0.486-0.799,0.488-1.124-0.273C104.183,489.263,104.02,487.058,104.546,485.228"/>
</svg>
