<?xml version="1.0" encoding="utf-8"?>
<!-- Generator: Adobe Illustrator 15.1.0, SVG Export Plug-In . SVG Version: 6.00 Build 0)  -->
<!DOCTYPE svg PUBLIC "-//W3C//DTD SVG 1.1//EN" "http://www.w3.org/Graphics/SVG/1.1/DTD/svg11.dtd">
<svg version="1.1" id="Layer_1" xmlns="http://www.w3.org/2000/svg" xmlns:xlink="http://www.w3.org/1999/xlink" x="0px" y="0px"
	 width="293.387px" height="446.457px" viewBox="150.29 197.835 293.387 446.457"
	 enable-background="new 150.29 197.835 293.387 446.457" xml:space="preserve">
<path fill="#010101" d="M356.252,351.101c2.363-0.062,3.109-1.94,1.741-6.385c-1.368-4.445-4.915-10.455-8.397-16.089
	c-3.484-5.635-9.146-13.648-11.386-15.902c-2.239-2.253-2.792-1.471-3.671,0.626c-0.497,1.19-1.306,4.195,0.498,9.328
	c1.805,5.134,5.352,12.208,10.327,19.345C350.342,349.161,353.889,351.164,356.252,351.101 M335.473,314.729
	c0.141-1.331,0.25-2.129,2.24,0.375s8.834,11.832,13.126,19.22c4.293,7.387,7.341,13.897,5.974,14.649
	c-1.369,0.751-5.974-1.252-12.069-10.893C338.646,328.438,334.912,320.05,335.473,314.729 M309.032,317.859
	c4.791-4.633,3.982-9.078-1.555-7.262c-5.537,1.815-24.015,10.83-31.168,15.087c-7.154,4.257-12.565,8.514-14.62,10.643
	c-1.379,1.43-1.55,2.291-1.306,2.363c-0.731,1.073-1.292,2.628,0.248,3.521c3.235,1.879,15.678-3.756,24.263-8.201
	C293.481,329.566,304.242,322.491,309.032,317.859 M261.068,340.709c-0.746-1.002,0.996-2.755,2.428-4.32
	c1.276-1.397,0.765-1.59-1.308,0.389c2.749-2.801,7.3-5.565,13.313-9.153c7.029-4.195,29.239-14.774,32.227-15.651
	c2.985-0.876,4.044,0.751,0.995,4.32c-3.049,3.568-12.754,10.204-24.2,16.464C273.075,339.019,261.815,341.711,261.068,340.709
	 M389.225,227.46c3.546-0.564,10.575-1.753,15.802-0.94c5.226,0.814,11.26,4.007,13.499,5.697c2.24,1.691,2.8,1.315,0.312-1.502
	c-2.488-2.817-7.402-5.76-13.126-6.636c-5.725-0.877-11.635-0.188-16.362,1.127C386.7,225.942,385.678,228.023,389.225,227.46
	 M333.047,218.069c8.709-2.755,22.77-6.761,32.535-6.073c9.77,0.689,14.311,2.818,16.86,6.073c2.551,3.256,3.234,2.066,2.363-0.313
	c-0.87-2.379-7.029-8.201-19.225-8.201c-12.191,0-25.879,4.132-33.096,6.511c-7.216,2.379-13.688,4.82-18.041,5.196
	c-2.301,0.198-2.24,1.502,0.063,1.502C316.811,222.764,324.337,220.824,333.047,218.069 M351.773,312.976
	c4.354,9.015,9.829,14.273,15.801,14.148c4.663-0.098,9.591-2.181,14.548-4.549c0.742,0.912,7.263,0.039,10.897-0.835
	c4.168-1.001,10.389-3.067,9.828-4.319c-0.522-1.171-8.98,1.05-15.823,2.776c6.076-2.991,11.694-6.431,11.096-7.033
	c-0.622-0.627-6.158,1.565-10.699,3.756c-4.542,2.191-13.376,6.824-18.912,6.886c-5.537,0.063-8.523-2.754-13.749-11.707
	c-5.227-8.952-7.029-16.527-8.771-21.911c-1.742-5.384-2.673-4.383-1.681,0.188C345.178,294.383,347.418,303.961,351.773,312.976
	 M290.309,235.034c-1.059-0.813-2.086-0.144-0.871,1.315c1.929,2.317,5.91,3.005,11.694,2.379c5.786-0.626,21.4-5.133,33.222-8.89
	c11.819-3.756,24.512-6.322,30.297-5.446c5.786,0.876,7.776,5.071,7.402,9.14c-0.373,4.069-5.226,9.453-1.68,12.02
	c3.547,2.567,10.391-1.69,14.186-3.443s9.269-4.57,14.992-4.007c5.724,0.564,8.149,4.57,9.146,6.636
	c0.996,2.066,1.681,4.257,2.862,5.76c1.182,1.502,2.363,2.441,2.114,0.751s-1.805-9.516-7.093-13.147
	c-5.287-3.631-10.575-3.068-17.479-0.313c-6.906,2.755-15.554,8.389-17.421,5.572c-1.865-2.817,6.408-9.954,0.437-17.654
	c-5.973-7.7-21.898-2.692-38.197,1.878c-16.301,4.57-28.681,8.326-34.402,9.015C293.792,237.288,291.365,235.848,290.309,235.034
	 M438.494,330.692c6.159-8.827,7.093-17.028,1.369-21.034c-5.435-3.804-13.501,0.63-20.799,5.749
	c4.917-9.724,10.04-20.57,13.334-32.856c4.665-17.404,5.225-33.681,2.55-44.699c-2.675-11.019-11.943-30.113-32.785-35.935
	c-20.841-5.822-41.184-4.131-51.448-2.691c-10.266,1.439-27.994,2.441-41.744,7.762c-13.748,5.322-27.123,14.775-38.882,28.798
	c-10.898,12.999-22.648,31.692-28.023,40.737c0.515-1.88,1.169-4.552,1.957-7.933c1.432-6.135,2.116-10.831,0.498-12.583
	c-1.617-1.753-3.234-0.564-6.159,3.255c-2.924,3.819-7.651,12.271-11.446,23.477c-3.436,10.144-5.188,23.519-4.751,28.146
	c-0.623,1.201-1.258,2.438-1.905,3.719c-9.271,18.343-19.41,41.882-22.646,51.21c-0.453,1.307-0.654,2.483-0.68,3.432
	c-4.697-5.505-10.966-7.453-17.609-5.185c-7.155,2.442-15.864,11.206-14.559,23.038c0.748,6.784,2.932,13.978,6.238,20.31
	c-0.876,0.019-2.017,0.212-3.502,0.662c-5.785,1.753-12.131,11.394-7.402,20.723c4.396,8.674,14.389,11.986,22.371,12.609
	c-0.649,0.422-1.345,0.926-2.091,1.537c-5.412,4.445-12.006,13.398-16.548,22.037c-1.441,2.742-3.229,6.441-4.762,10.602
	c-0.214,0.041-0.449,0.109-0.714,0.229c-2.363,1.064-5.536,3.131-6.844,4.008c-2.134,1.434-1.182,3.633,0.622,2.631
	c1.538-0.855,3.753-2.207,5.762-3.404c-0.706,2.285-1.295,4.662-1.688,7.057c-1,0.668-1.953,1.412-2.767,2.232
	c-1.619,1.629-1.492,2.254,0.56,1.438c0.464-0.184,1.099-0.416,1.828-0.678c-0.205,2.314-0.189,4.621,0.116,6.859
	c-0.422,0.461-0.791,0.877-1.072,1.205c-2.187,2.547-2.8,2.941-1.245,2.191c0.467-0.225,1.46-0.762,2.663-1.428
	c0.472,2.121,1.24,4.16,2.376,6.061c7.341,12.27,30.297,6.887,36.456,5.133c4.272-1.217,9.535-3.064,15.14-5.357
	c-2.32,1.355-4.668,2.934-7.114,4.732c-12.938,9.516-30.441,30.299-37.408,55.674c-6.969,25.377-4.065,43.072,8.295,57.848
	c12.358,14.773,26.46,24.205,59.971,21.953c33.513-2.254,50.849-5.426,90.414-19.033c39.566-13.604,48.007-23.037,59.329-33.492
	c7.96-7.35,10.903-13.832,10.914-19.361c1.252,0.365,3.75-2.883,7.189-7.182c3.856-4.82,7.402-12.209,7.277-18.029
	c-0.124-5.822-2.736-12.207-10.451-12.771c-0.463-0.035-0.926-0.047-1.387-0.041c0.771-1.451,1.026-3.898,0.08-5.846
	c-1.492-3.066-5.351-4.506-12.38-2.816c-6.706,1.613-13.465,5.33-19.258,8.551c3.219-6.721,5.165-11.992,5.82-13.559
	c0.994-2.379,1.243-4.508,0.87-6.135c-0.374-1.629-0.87-2.379-2.924-2.379c-0.553,0-4.83,0.025-11.084,0.063
	c1.763-2.484,5.258-7.346,9.466-12.834c6.098-7.951,26.564-36.373,36.083-47.768s11.074-15.588,10.515-17.842
	c-0.561-2.254-2.24-2.564-6.159,1.189c-3.92,3.756-11.883,13.711-12.441,12.959c-0.561-0.752,3.358-7.449,0.621-9.391
	c-2.736-1.941-12.381,11.332-13.25,12.395c-0.871,1.064-1.369,1.564-1.432,0.564c-0.063-1.002-0.249-1.627-1.308-2.566
	c-1.058-0.939-2.736-0.188-5.287,1.314c5.537-7.574,6.283-11.08,5.164-12.834c-1.12-1.752-3.484-0.625-6.222,1.629
	c6.406-9.143,8.212-14.211,6.655-15.527c-1.555-1.313-4.292,1.316-6.718,4.07c-2.428,2.754-12.381,15.648-16.176,20.91
	c-3.795,5.258-7.532,9.775-7.839,8.889c-0.497-1.439,11.012-13.836,7.9-16.088c-3.11-2.254-19.534,15.838-20.095,14.336
	c-0.56-1.504,11.198-13.084,9.146-15.338c-2.055-2.254-16.61,9.891-36.581,24.352c13.873-11.895,22.21-20.658,21.649-24.854
	c-0.29-2.166-2.8-1.063-7.217,0.939c-4.417,2.004-28.556,13.709-34.277,15.84c-5.725,2.127-7.403-0.063-0.995-5.385
	c6.407-5.32,21.089-15.525,31.167-23.164c10.078-7.637,13.127-13.522,10.202-19.594c-2.924-6.073-11.011-8.139-22.458-8.514
	c-11.446-0.376-33.531,1.815-38.385-2.066c-4.853-3.882-0.312-13.335,14.371-27.921c-4.915,8.514,4.79,16.777,15.614,21.473
	c10.825,4.695,29.115,9.703,49.022,9.077s27.312-6.824,29.427-11.268c2.114-4.445,0.248-9.892-2.985-13.961
	c-3.235-4.069-7.777-7.638-11.945-11.331c-4.168-3.694,2.676-4.758,4.417-4.257c1.742,0.501,3.234,1.314,6.222,1.064
	c2.986-0.25,4.541-2.755,2.675-5.634c-1.865-2.88-7.153-6.073-10.45-6.699c-0.963-0.182-1.711-0.142-2.234,0.022
	c-0.318-3.181-2.125-6.621-4.058-9.971c0.818,0.202,2.107,0.178,4.052-0.193c3.607-0.688,4.479-1.878,3.358-4.194
	c-1.118-2.316-2.487-2.504-4.104-2.379c-1.618,0.125-3.981,0.438-5.164,0.876c-0.531,0.198-0.928,0.518-1.183,0.855
	c-1.909-2.989-3.924-5.938-5.972-9.556c-2.801-4.946-6.223-12.396-10.017-15.025c-3.795-2.629-8.149-1.628-9.893,4.194
	c-1.194,3.994-1.423,6.367-0.826,9.726c-0.053-0.113-0.103-0.226-0.168-0.335c-1.493-2.442-3.982-2.442-7.403-1.878
	c-3.11,0.512-8.228,1.7-13.244,3.698c2.986-2.537,6.833-7.147,8.827-10.209c2.364-3.631,2.427-8.577-2.178-9.015
	c-4.604-0.438-11.198,2.504-20.592,7.074c-6.132,2.983-13.851,7.061-21.087,11.308c-0.513-0.632-2.288-1.727-3.798-2.418
	c-2.053-0.939-3.981-1.565-6.223,0.063c-2.238,1.627-1.431,2.628-0.496,3.631c0.933,1.001,1.989,1.502,3.297,2.065
	c0.473,0.204,0.896,0.283,1.248,0.281c-1.694,1.064-3.328,2.124-4.855,3.163c-9.395,6.385-11.945,12.458-9.52,16.151
	c2.172,3.306,7.434,2.148,14.445-0.465c-7.482,5.855-14.98,13.643-16.313,19.434c-1.894,8.236,1.912,12.848,9.468,13.132
	c-20.615,16.859-25.168,27.204-25.394,30.941c-0.249,4.132,0.745,8.577,9.644,11.018c8.896,2.442,23.391,0.125,35.397-2.629
	c12.007-2.755,18.353-1.941,19.658,0.626c1.306,2.566-0.437,5.197-8.522,11.519c-8.088,6.322-32.102,21.035-43.797,32.49
	c-11.695,11.457-10.825,19.658-5.6,23.914c5.227,4.258,13.063,1.254,16.05,0c2.987-1.252,2.925-0.125,6.159-1.752
	c3.235-1.627,8.771-5.947,18.727-8.076c-13.251,12.146-8.896,15.338-5.412,13.648c-5.863,6.205-14.544,17.135-17.372,21.021
	c-2.049-0.197-2.788-0.447-3.281,0.324c-0.516,0.805-2.132,3.461-3.839,6.703c0.015-0.146,0.029-0.297,0.044-0.443
	c0.745-8.324-4.354-18.467-17.73-19.594c-6.174-0.521-11.428-0.02-16.382,1.467c6.661-3.385,9.557-6.387,6.429-5.598
	c-3.484,0.875-16.673,5.258-30.049,9.766c-13.375,4.506-29.178,5.07-34.092-1.629c-1.282-1.748-2.129-3.744-2.569-5.996
	c1.862-1.066,3.568-2.068,4.249-2.518c1.617-1.064,1.741-2.191,1.059-2.941c-0.685-0.752-2.801-0.377-4.666,1.064
	c-0.313,0.24-0.649,0.523-0.996,0.832c-0.021-1.457,0.09-3.002,0.333-4.639c1.61-0.561,3.219-1.121,4.458-1.578
	c3.048-1.127,1.057-4.068-1.432-3.256c-0.643,0.209-1.404,0.494-2.228,0.852c0.992-3.988,2.621-8.438,4.84-13.371
	c6.532-14.525,17.42-24.354,19.783-26.293c1.171-0.963,2.204-1.877,2.813-2.617c7.05-0.576,14.095-3.012,17.345-4.645
	c3.857-1.941,2.771-4.98-1.431-3.443c-2.054,0.752-11.074,3.631-19.908,4.006c-8.834,0.377-18.353-4.443-21.463-12.332
	c-3.109-7.888,4.715-12.446,7.402-13.021c1.441-0.309,2.396-0.557,2.99-0.879c2.041,3.24,4.399,6.147,7.025,8.516
	c8.398,7.576,17.917,8.076,22.832,7.763s3.526-1.939-0.934-3.006c-3.671-0.875-13.563-2.941-19.037-7.762
	c-5.475-4.82-11.819-15.463-14.37-28.109c-2.551-12.646,8.461-21.41,16.175-21.222s12.193,7.7,15.926,15.463
	c3.733,7.763,6.471,13.209,12.194,16.652c5.723,3.443,11.385,1.878,13.5,1.378c2.114-0.501,1.989-1.691,0.497-1.565
	c-1.493,0.125-5.475,0.375-9.954-1.816s-6.905-4.946-9.27-8.89c-2.278-3.802-4.737-10.859-9.203-17.196
	c0.282-0.3,0.578-0.794,0.867-1.522c1.617-4.069,12.006-29.486,19.596-44.887c7.591-15.4,14.122-28.296,26.254-48.455
	c12.132-20.158,25.195-39.627,36.021-49.206c10.824-9.578,22.334-17.341,36.456-20.346c14.121-3.005,23.328-2.254,33.221-3.318
	c9.891-1.064,33.594-2.88,50.019,2.504c16.423,5.384,27.372,18.406,30.919,35.121c3.546,16.715-0.561,37.937-6.222,51.209
	c-5.662,13.272-13.874,29.987-18.229,38.126c-4.354,8.138-13.375,24.665-16.174,29.048c-1.514,2.368-2.35,3.726-2.676,4.547
	c-1.584,0.204-3.46,0.927-5.662,2.339c-2.043,1.312-3.173,2.754-0.311,1.753c2.862-1.002,6.533-1.565,8.336,0.876
	c1.805,2.442,2.24,6.949-1.368,13.648c-3.607,6.698-8.959,14.273-10.514,16.715c-1.141,1.791-1.342,3.207-0.805,3.837
	c-2.688,1.026-5.188,2.143-6.849,2.862c-4.915,2.128-15.677,6.26-20.343,8.764c-3.563,1.912-3.733,3.631-1.244,2.379
	c2.488-1.252,13.375-5.634,23.329-9.265s14.62-4.946,15.18-4.07c0.562,0.877-10.763,9.391-16.237,13.46
	s-13.812,10.704-18.104,15.401c-4.293,4.695-6.346,7.01-2.799,4.945c3.546-2.066,17.668-12.896,25.133-19.157
	c7.465-6.261,17.543-12.959,14.932-16.59c-1.429-1.984-5.751-1.201-10.182,0.263c0.946-1.081,2.031-2.675,3.282-4.31
	c1.791,0.364,6.802-0.726,13.058-2.965c8.398-3.005,15.927-7.575,22.396-14.524c6.47-6.949,6.282-13.334,3.606-17.153
	c-2.346-3.349-5.601-3.953-8.926-3.334c0.03-0.035,0.063-0.074,0.092-0.109C419.21,354.294,432.336,339.52,438.494,330.692
	 M374.854,461.72c0.809-1.438,2.426-2.689,3.607-2.814c1.183-0.125,1.741,0.063,2.8-0.752c1.058-0.814,1.991-2.129,4.479-2.816
	c-0.249,1.877,1.866,1.752,3.732,0.625s1.805,0.063-1.492,3.318c-1.991-0.314-4.044,0.563-5.786,2.064
	c-2.364-2.189-5.849,0.25-6.968,1.314S374.155,462.964,374.854,461.72 M365.521,448.011c1.369-1.689,2.114-2.629,2.986-1.814
	c0.87,0.813,1.243,1.377,0.312,2.566c-0.935,1.188-1.806,2.754-0.561,2.689c1.244-0.063,2.427,1.754-0.188,4.445
	c1.12,0.313,2.24,3.131-0.934,5.947c1.991-3.066,0.187-5.635-2.115-6.322c0.996-2.004,0.623-3.943,0-4.82
	C364.402,449.826,364.409,449.384,365.521,448.011 M363.717,333.197c1.493-0.188,1.99,0.626,2.363,1.565s-0.062,1.314-1.741,1.252
	c-1.329-0.05-4.017,0.138-4.958,0.683c-0.049-0.082-0.097-0.164-0.144-0.245c-0.408-0.698-0.824-1.38-1.244-2.056
	C359.531,333.961,362.282,333.377,363.717,333.197 M331.927,315.604c0.312-2.191,1.493-6.323,4.854-6.135
	c3.358,0.188,6.781,5.071,9.146,9.078c2.363,4.006,8.397,14.774,12.068,20.345c3.67,5.572,4.666,9.141,3.172,12.459
	c-1.492,3.318-4.976,3.693-9.269,0.688s-11.509-11.268-15.429-18.906C332.549,325.496,331.301,320.016,331.927,315.604
	 M329.377,327.656c0.778-1.087,1.385-2.449,1.397-3.735c0.262,1.174,0.605,2.485,1.027,4.017c1.929,7.012,0.497,10.33-1.804,9.578
	c-2.303-0.751-1.742-4.82-1.183-6.761C329.231,329.319,329.645,328.295,329.377,327.656 M324.275,322.116
	c3.234-0.188,4.978,1.565,3.856,4.007c-1.12,2.441-2.612,1.189-4.043,0c-1.432-1.19-4.23-1.879-7.84-1.253
	c-2.821,0.49-7.048,1.142-10.633,3.704c-0.468,0.027-1.01,0.102-1.623,0.24c-0.406,0.092-0.897,0.221-1.455,0.38
	c1.662-1.012,3.702-2.714,6.743-3.823C313.574,323.806,321.039,322.304,324.275,322.116 M311.248,327.363
	c-0.655,4.132-4.663,6.734-6.818,7.086c-2.071,0.338-0.863-1.657,1.483-3.657c0.997-0.46,1.533-0.925,1.669-1.31
	C308.966,328.44,309.924,327.81,311.248,327.363 M268.409,325.058c-2.303-0.814-5.102-2.128-3.359-3.193
	c1.742-1.064,2.862-1.126,5.412,0.126c1.772,0.87,2.704,1.407,3.379,1.569c-1.421,0.841-2.819,1.686-4.181,2.531
	C269.645,325.761,269.272,325.363,268.409,325.058 M259.326,345.905c-4.23,0.125-5.536-3.067-2.239-7.825
	c3.297-4.758,13.812-11.144,25.07-17.279c11.26-6.135,23.952-12.02,28.307-13.46c4.354-1.439,8.088-1.752,7.9,2.818
	c-0.184,4.483-7.13,11.194-11.682,15.112c-3.043,1.589-6.58,4.095-6.467,4.641c-5.678,1.861-14.915,5.52-21.979,9.295
	c-0.288,0.153-0.581,0.315-0.879,0.484C269.697,343.392,263.059,345.795,259.326,345.905 M256.527,363.434
	c2.986-6.824,15.242-16.903,27.249-22.85c9.189-4.553,14.878-7.017,18.354-8.369c-1.276,2.379-0.563,4.854,1.988,4.362
	c2.849-0.549,8.941-3.357,8.736-9.636c0.44-0.09,0.922-0.174,1.466-0.255c3.795-0.563,7.528-0.313,8.834,1.565
	c1.149,1.651,2.442,2.188,3.92,1.486c-1.13,4.011-0.641,8.492,2.8,9.783c3.671,1.377,4.604-2.066,4.354-5.885
	c1.306,2.629,4.729,8.201,10.141,14.649c5.412,6.448,9.52,8.639,13.563,8.326c3.778-0.292,6.035-2.991,6.365-6.612
	c0.19,0.104,0.405,0.203,0.664,0.289c2.612,0.877,7.092,3.193,9.395,6.761c-1.244-1.502-5.351-3.004-10.141-1.001
	s-6.408,6.323-4.044,9.077c2.363,2.755,7.402,7.012,10.203,9.954c2.799,2.943,5.474,6.574,5.287,11.269
	c-0.187,4.695-10.514,8.389-26.627,9.453c-16.111,1.064-35.087-3.193-46.969-7.826c-11.883-4.632-15.614-10.016-15.553-14.837
	c0.063-4.82,9.27-12.458,14.184-16.902c4.915-4.445,8.523-9.14,6.781-11.77c-1.742-2.629-5.661-2.254-13.438,1.878
	c-7.776,4.132-21.772,13.523-26.314,18.343c-4.541,4.821-1.93,8.89,1.243,7.888c-0.632,0.478-1.248,0.95-1.858,1.419
	C255.27,374.49,253.611,370.098,256.527,363.434 M380.241,588.683c-6.989,3.74-15.998,3.533-18.205-0.127
	c-2.301-3.818,2.201-10.799,7.404-14.713c5.91-4.443,13.375-5.82,15.863-6.322c1.513-0.305,2.446-0.68,2.81-1.221
	c1.203,1.254,1.997,2.939,2.229,5.104C390.932,576.855,385.945,583.197,380.241,588.683 M405.212,546.673
	c0.747,6.949-4.604,13.461-7.591,17.217c-1.566,1.975-2.701,3.648-3.275,5.008c-0.24-1.154-0.606-2.262-1.077-3.316
	c-1.526-3.424-4.208-5.943-7.726-7.135c0.907-1.928,2.537-4.484,4.862-6.451c3.111-2.629,8.646-3.818,11.696-3.693
	c3.048,0.125,2.924-3.818,0.062-4.068c-2.177-0.189-6.158,0-10.763,2.879c-4.229,2.646-7.402,6.98-8.422,10.729
	c-2.823-0.4-6.048-0.047-9.558,1.229c-9.456,3.443-24.821,12.709-29.487,15.4c-1.908,1.102-4.785,2.77-7.701,4.58
	c1.94-1.885,3.726-3.744,5.088-5.393c1.287-1.559,2.748-3.555,4.337-5.877c5.26-3.416,21.882-15.219,30.688-21.105
	c9.456-6.322,14.495-7.699,19.161-8.326C400.173,537.724,404.465,539.724,405.212,546.673 M381.261,530.271
	c5.849-2.191,11.385-1.814,12.939-0.063c1.054,1.188,0.482,2.947,0.563,4.057c-6.33,0.98-12.491,5.143-18.479,9.09
	c-6.765,4.461-20.583,14.754-27.257,19.322c3.313-5.158,6.97-11.217,10.646-17.381c1.04-1.744,2.013-3.473,2.919-5.16
	C366.608,537.375,376.359,532.109,381.261,530.271 M345.676,489.955c0.622,0.438-2.054,4.695-0.498,6.262
	c1.004,1.008,3.423,0.875,9.644-5.697c-3.483,6.512-0.437,8.891,3.173,5.385c0,0-5.964,9.09-10.574,16.084
	c-7.795,0.037-16.662,0.07-24.884,0.086C330.665,505.195,345.066,489.525,345.676,489.955 M311.896,492.333
	c7.651-5.51,18.041-10.83,19.223-9.578c1.158,1.229-6.225,13.572-16.763,29.322c-6.597-0.004-12.254-0.027-15.835-0.086
	c-5.844-0.096-12.08-0.246-17.72-0.404c4.025-2.424,13.102-10.039,23.068-17.563C301.941,496.654,304.242,497.843,311.896,492.333
	 M292.112,491.771c0.851,1.527-13.395,14.369-18.827,19.59c-1.992-0.064-3.803-0.127-5.363-0.188
	C270.284,508.964,291.25,490.222,292.112,491.771 M260.073,513.306c4.229,0.813,41.619,2.691,65.198,2.691
	c23.578,0,42.738-0.25,43.609-0.188s-1.183,5.445-3.423,10.203c-2.237,4.76-8.148,16.967-15.614,28.424
	c-7.465,11.455-14.992,21.723-28.119,32.178s-26.377,14.021-34.59,15.4c-8.212,1.377-24.821,2.879-40.5-1.879
	c-15.677-4.758-20.777-9.328-22.955-13.836c-2.178-4.506-1.058-11.768,0.686-16.338c1.681-4.412,3.941-9.059,8.519-18.105
	c1.833-1.428,3.594-2.826,5.229-4.182c9.036-7.488,13.057-15.42,14.893-22.373C255.104,522.056,260.073,513.306,260.073,513.306
	 M219.947,586.615c0.888,2.998,2.589,5.637,4.957,7.943c-5.364-1.088-12.272-3.1-16.901-6.566
	c-4.865-3.645-5.666-7.494-4.695-10.986c5.362-6.656,15.109-14.061,24.222-21.023c-0.871,1.561-2.226,4.027-3.537,6.594
	C221.813,566.832,217.334,577.787,219.947,586.615 M250.307,516.812c0.685,6.012-0.934,14.023-14.122,27.107
	s-29.364,20.596-38.012,34.744c-8.648,14.148-1.058,22.662,4.417,25.729c5.475,3.068,12.256,3.445,13.624,3.133
	c1.369-0.313-5.039-2.443-10.763-5.887c-5.724-3.441-10.141-9.891-5.102-20.156c0.22,6.082,7.842,15.996,33.187,18.879
	c3.446,1.66,7.398,3.037,11.73,4.158c7.137,1.846,13.516,3.168,20.782,3.561c-21.077,4.424-50.081,15.17-36.585,12.467
	c12.528-2.512,45.456-10.426,55.864-13.422c0.532-0.072,1.072-0.146,1.618-0.227c18.104-2.629,32.164-12.959,36.271-16.34
	c0.923-0.76,2.112-1.752,3.456-2.895c2.271-0.506,7.934-3.41,12.967-6.434c7.404-4.445,26.066-14.838,34.218-16.967
	c3.513-0.918,6.909-1.109,9.702-0.438c-0.649,0.113-1.386,0.275-2.237,0.5c-2.613,0.688-8.548,1.988-13.624,6.01
	c-5.848,4.633-12.38,13.836-8.771,20.033c2.894,4.971,9.901,5.35,15.544,3.457c-0.248,0.207-0.493,0.41-0.737,0.611
	c-7.652,6.322-16.361,13.586-50.453,25.355c-34.092,11.768-61.216,17.465-89.087,19.094c-27.871,1.627-41.309-3.068-55.367-18.469
	c-14.061-15.4-15.615-31.803-9.456-54.027c5.387-19.439,14.201-32.076,24.944-43.445c-1.396,6.934,2.006,14.518,9.521,15.588
	c7.9,1.127,21.961-3.756,31.666-15.588c6.139-7.484,5.529-15.314,3.86-19.477C247.171,505.271,249.715,511.623,250.307,516.812
	 M235.251,502.976c0.05,0.002,0.097,0.008,0.146,0.008c1.437,4.729,2.877,10.984-3.383,18.463
	c-6.656,7.949-19.17,14.037-26.875,13.084c-7.052-0.873-10.178-9.633-5.896-16.596C212.048,505.394,224.234,502.728,235.251,502.976
	 M238.182,283.034c-3.49,5.706-7.867,12.651-13.264,22.646c0.139-3.803,1.459-13.225,4.857-23.818
	c3.856-12.02,12.008-24.415,13.313-23.602c1.308,0.814-1.616,12.709-3.048,17.529C239.06,279.098,238.313,281.815,238.182,283.034
	 M398.805,379.523c1.736-2.198,7.75-9.854,12.48-15.69c3.202-1.11,7.688-1.032,9.729,1.854c2.303,3.255,1.307,9.39-8.088,16.903
	c-9.395,7.512-22.458,10.705-25.194,11.018c-0.151,0.017-0.292,0.038-0.431,0.061c2.935-4.704,6.862-12.112,8.021-16.901
	c1.146-4.743,0.105-11.587-4.617-12.603c1.015-1.015,2.27-2.593,3.561-4.425c2.426-3.444,12.689-20.221,18.911-32.742
	c0.632-1.271,1.289-2.568,1.958-3.88c5.99-5.69,14.266-9.876,18.883-10.769c4.853-0.939,7.154,2.504,5.661,8.764
	c-1.492,6.26-8.397,14.524-17.605,25.417c-9.207,10.893-20.716,25.793-24.138,30.864
	C394.512,382.466,396.627,382.278,398.805,379.523 M339.766,273.41c2.239,2.818,5.289,0.439,16.859-6.385
	c11.57-6.824,16.609-9.766,23.268-13.022c6.656-3.255,13.251-3.881,16.236-1.502c2.986,2.379,2.239,9.516,3.608,14.649
	c1.368,5.134,4.168,7.575,6.532,8.201c2.363,0.626,2.302-0.376,1.182-1.44c-1.119-1.064-3.049-2.88-4.293-6.198
	c-1.244-3.318-1.12-7.95-2.053-12.958c-0.934-5.009-5.351-7.45-12.193-6.699c-6.842,0.751-19.97,8.201-26.688,12.458
	c-6.72,4.257-18.852,12.145-20.095,10.455c-1.244-1.691,4.168-10.705,7.341-14.775c3.173-4.069,6.656-8.826,3.358-12.645
	c-3.297-3.819-13.686-1.127-20.529,1.627c-6.843,2.755-23.079,9.266-32.038,12.208c-8.959,2.942-17.046,3.631-19.907,1.878
	c-2.861-1.753-2.985-5.196-2.8-7.262c0.188-2.066-0.694-2.148-1.493,0.063c-0.497,1.377-1.244,6.01,2.239,9.14
	c3.217,2.89,9.954,2.253,19.224-0.063c9.271-2.316,20.653-7.512,32.288-12.27c11.634-4.758,19.099-4.821,20.778-3.381
	c1.679,1.439,1.244,4.07-3.608,10.142C342.13,261.704,337.526,270.593,339.766,273.41 M256.527,295.572
	c-1.865-2.629-2.194-1.642-1.307,1.189c2.612,8.326,9.705,13.271,12.566,14.273c0.626,0.219,1.116,0.272,1.499,0.217
	c4.373,6.892,9.619,5.487,15.174,2.6c5.661-2.942,10.078-6.636,16.797-11.581c6.72-4.946,16.673-12.959,19.161-14.963
	c2.488-2.003-3.796,0.626-10.203,4.258c-6.406,3.63-21.338,14.273-27.187,18.092c-5.848,3.818-8.958,3.193-11.819-1.127
	c-2.861-4.32-6.222-13.084-8.024-18.405c-1.805-5.322-3.022-4.204-2.054,0.125c0.789,3.523,2.481,9.721,5.378,15.85
	c-0.745-0.432-1.622-0.991-2.702-1.89C260.944,301.832,258.394,298.201,256.527,295.572"/>
</svg>
